<svg width="1173" height="764" viewBox="0 0 1173 764" fill="none" xmlns="http://www.w3.org/2000/svg">
<metadata><?xpacket begin="﻿" id="W5M0MpCehiHzreSzNTczkc9d"?>
<x:xmpmeta xmlns:x="adobe:ns:meta/" x:xmptk="Adobe XMP Core 5.6-c148 79.164036, 2019/08/13-01:06:57        ">
   <rdf:RDF xmlns:rdf="http://www.w3.org/1999/02/22-rdf-syntax-ns#">
      <rdf:Description rdf:about=""
            xmlns:xmp="http://ns.adobe.com/xap/1.0/"
            xmlns:xmpMM="http://ns.adobe.com/xap/1.0/mm/"
            xmlns:stEvt="http://ns.adobe.com/xap/1.0/sType/ResourceEvent#">
         <xmp:Rating>1</xmp:Rating>
         <xmp:MetadataDate>2022-07-25T09:32:15+05:00</xmp:MetadataDate>
         <xmpMM:InstanceID>xmp.iid:70462a71-719d-3241-8d80-510b5e06dd05</xmpMM:InstanceID>
         <xmpMM:DocumentID>xmp.did:70462a71-719d-3241-8d80-510b5e06dd05</xmpMM:DocumentID>
         <xmpMM:OriginalDocumentID>xmp.did:70462a71-719d-3241-8d80-510b5e06dd05</xmpMM:OriginalDocumentID>
         <xmpMM:History>
            <rdf:Seq>
               <rdf:li>
                  <rdf:Description>
                     <stEvt:action>saved</stEvt:action>
                     <stEvt:instanceID>xmp.iid:70462a71-719d-3241-8d80-510b5e06dd05</stEvt:instanceID>
                     <stEvt:when>2022-07-25T09:32:15+05:00</stEvt:when>
                     <stEvt:softwareAgent>Adobe Bridge 2020 (Windows)</stEvt:softwareAgent>
                     <stEvt:changed>/metadata</stEvt:changed>
                  </rdf:Description>
               </rdf:li>
            </rdf:Seq>
         </xmpMM:History>
      </rdf:Description>
   </rdf:RDF>
</x:xmpmeta>
                                                                                                    
                                                                                                    
                                                                                                    
                                                                                                    
                                                                                                    
                                                                                                    
                                                                                                    
                                                                                                    
                                                                                                    
                                                                                                    
                                                                                                    
                                                                                                    
                                                                                                    
                                                                                                    
                                                                                                    
                                                                                                    
                                                                                                    
                                                                                                    
                                                                                                    
                                                                                                    
                           
<?xpacket end="w"?></metadata>
<mask id="mask0_436_7" style="mask-type:alpha" maskUnits="userSpaceOnUse" x="0" y="-107" width="1173" height="871">
<rect y="-107" width="1173" height="871" fill="#D9D9D9"/>
</mask>
<g mask="url(#mask0_436_7)">
<line x1="862" y1="628" x2="862" y2="661" stroke="#AED2B6" stroke-width="4" stroke-linecap="round"/>
<line x1="1055" y1="253" x2="956" y2="253" stroke="#A9CDAF" stroke-width="4" stroke-linecap="round"/>
<path d="M799 342L956 253" stroke="#A9CDAF" stroke-width="4" stroke-linecap="round"/>
<g filter="url(#filter0_f_436_7)">
<path d="M971.5 445L1009.17 466.75V510.25L971.5 532L933.828 510.25V466.75L971.5 445Z" fill="#A6CAAE" fill-opacity="0.82"/>
</g>
<g filter="url(#filter1_f_436_7)">
<path d="M1047.5 653L1078.24 670.75V706.25L1047.5 724L1016.76 706.25V670.75L1047.5 653Z" fill="#A6CAAE" fill-opacity="0.82"/>
</g>
<g filter="url(#filter2_f_436_7)">
<path d="M1087.5 258L1125.17 279.75V323.25L1087.5 345L1049.83 323.25V279.75L1087.5 258Z" fill="#A6CAAE" fill-opacity="0.82"/>
</g>
<line x1="1115" x2="1291" stroke="#A3C8A9" stroke-width="4" stroke-linecap="round"/>
<line x1="1116" y1="14" x2="1292" y2="14" stroke="#A3C8A9" stroke-width="4" stroke-linecap="round"/>
<path d="M963 57L1112 -27" stroke="#A3C8A9" stroke-width="4" stroke-linecap="round"/>
<path d="M972 67L1114 -13" stroke="#A3C8A9" stroke-width="4" stroke-linecap="round"/>
<path d="M981 77L1114 1" stroke="#A3C8A9" stroke-width="4" stroke-linecap="round"/>
<path d="M991 85L1115 15" stroke="#A3C8A9" stroke-width="4" stroke-linecap="round"/>
<line x1="990" y1="86" x2="990" y2="145" stroke="#A9CDAF" stroke-width="4" stroke-linecap="round"/>
<line x1="981" y1="78" x2="981" y2="136" stroke="#A9CDAF" stroke-width="4" stroke-linecap="round"/>
<line x1="972" y1="68" x2="972" y2="128" stroke="#A9CDAF" stroke-width="4" stroke-linecap="round"/>
<line x1="963" y1="59" x2="963" y2="118" stroke="#A9CDAF" stroke-width="4" stroke-linecap="round"/>
<path d="M902 168L972 129" stroke="#A9CDAF" stroke-width="4" stroke-linecap="round"/>
<path d="M881 192L981 137" stroke="#A9CDAF" stroke-width="4" stroke-linecap="round"/>
<path d="M861 219L990 146" stroke="#A9CDAF" stroke-width="4" stroke-linecap="round"/>
<circle cx="857" cy="222" r="5" stroke="#A9CDAF" stroke-width="4"/>
<circle cx="1097" cy="261" r="5" stroke="#AED2B6" stroke-width="4"/>
<g filter="url(#filter3_f_436_7)">
<path d="M640 691L668.579 707.5V740.5L640 757L611.421 740.5V707.5L640 691Z" fill="#A9CEAF" fill-opacity="0.64"/>
</g>
<g filter="url(#filter4_f_436_7)">
<path d="M1086 49L1105.92 60.5V83.5L1086 95L1066.08 83.5V60.5L1086 49Z" fill="#A9CEAF" fill-opacity="0.64"/>
</g>
<path d="M780 527L882 467" stroke="#AED2B6" stroke-width="5"/>
<path d="M882.188 526.516L777.844 465.484" stroke="#AED2B6" stroke-width="5"/>
<path d="M778.94 465.943L831 435.887L883.06 465.943V526.057L831 556.113L778.94 526.057V465.943Z" stroke="#AED2B6" stroke-width="5"/>
<path d="M635.969 765.086L706.359 723.914" stroke="#ABCFB3" stroke-width="4"/>
<path d="M705.031 765.086L634.641 723.914" stroke="#ABCFB3" stroke-width="4"/>
<path d="M635.694 724.405L670.5 704.309L705.306 724.405V764.595L670.5 784.691L635.694 764.595V724.405Z" stroke="#ABCFB3" stroke-width="4"/>
<g filter="url(#filter5_f_436_7)">
<path d="M296 195L321.115 209.5V238.5L296 253L270.885 238.5V209.5L296 195Z" fill="#A6CAAE"/>
</g>
<line x1="433" y1="140" x2="609" y2="140" stroke="#ABCFB3" stroke-width="4" stroke-linecap="round"/>
<line x1="436" y1="154" x2="551" y2="154" stroke="#ABCFB3" stroke-width="4" stroke-linecap="round"/>
<line x1="436" y1="167" x2="551" y2="167" stroke="#ABCFB3" stroke-width="4" stroke-linecap="round"/>
<line x1="437" y1="181" x2="530" y2="181" stroke="#ABCFB3" stroke-width="4" stroke-linecap="round"/>
<line x1="311" y1="253" x2="311" y2="312" stroke="#ABCFB3" stroke-width="4" stroke-linecap="round"/>
<line x1="302" y1="245" x2="302" y2="303" stroke="#ABCFB3" stroke-width="4" stroke-linecap="round"/>
<line x1="293" y1="235" x2="293" y2="295" stroke="#ABCFB3" stroke-width="4" stroke-linecap="round"/>
<line x1="284" y1="226" x2="284" y2="285" stroke="#ABCFB3" stroke-width="4" stroke-linecap="round"/>
<path d="M284 224L433 140" stroke="#ABCFB3" stroke-width="4" stroke-linecap="round"/>
<path d="M266 296L283 286" stroke="#ABCFB3" stroke-width="4" stroke-linecap="round"/>
<path d="M293 234L435 154" stroke="#ABCFB3" stroke-width="4" stroke-linecap="round"/>
<path d="M223 334L293 295" stroke="#ABCFB3" stroke-width="4" stroke-linecap="round"/>
<path d="M302 244L435 168" stroke="#ABCFB3" stroke-width="4" stroke-linecap="round"/>
<path d="M242 337L302 304" stroke="#ABCFB3" stroke-width="4" stroke-linecap="round"/>
<path d="M312 252L436 182" stroke="#ABCFB3" stroke-width="4" stroke-linecap="round"/>
<path d="M182 386L311 313" stroke="#ABCFB3" stroke-width="4" stroke-linecap="round"/>
<circle cx="259" cy="299" r="5" stroke="#ABCFB3" stroke-width="4"/>
<circle cx="218" cy="338" r="5" stroke="#ABCFB3" stroke-width="4"/>
<circle cx="178" cy="389" r="5" stroke="#ABCFB3" stroke-width="4"/>
<path d="M222 588L270 561" stroke="#AED2B6" stroke-width="4" stroke-linecap="round"/>
<path d="M245 514L269 501" stroke="#AED2B6" stroke-width="4" stroke-linecap="round"/>
<path d="M-32 787L222 643" stroke="#ABCFB3" stroke-width="4" stroke-linecap="round"/>
<g filter="url(#filter6_f_436_7)">
<path d="M841 333L869.579 349.5V382.5L841 399L812.421 382.5V349.5L841 333Z" fill="#9EC2A5"/>
</g>
<path d="M752 405L920 310" stroke="#AED2B6" stroke-width="4" stroke-linecap="round"/>
<path d="M975 310L1016 287" stroke="#AED2B6" stroke-width="4" stroke-linecap="round"/>
<path d="M961 300L1016 269" stroke="#AED2B6" stroke-width="4" stroke-linecap="round"/>
<path d="M1083 475L1148 438" stroke="#AED2B6" stroke-width="4" stroke-linecap="round"/>
<path d="M1129 295L1177 268" stroke="#AED2B6" stroke-width="4" stroke-linecap="round"/>
<path d="M1133 282L1181 255" stroke="#AED2B6" stroke-width="4" stroke-linecap="round"/>
<path d="M1148 306L1182 286" stroke="#AED2B6" stroke-width="4" stroke-linecap="round"/>
<path d="M729 399L904 300" stroke="#AED2B6" stroke-width="4" stroke-linecap="round"/>
<path d="M663 507L729 469" stroke="#AED2B6" stroke-width="4" stroke-linecap="round"/>
<path d="M674 521L752 477" stroke="#AED2B6" stroke-width="4" stroke-linecap="round"/>
<path d="M428 689L663 556" stroke="#AED2B6" stroke-width="4" stroke-linecap="round"/>
<path d="M215 783L381 689" stroke="#AED2B6" stroke-width="4" stroke-linecap="round"/>
<path d="M500 663L675 565" stroke="#AED2B6" stroke-width="4" stroke-linecap="round"/>
<path d="M374 764L500 693" stroke="#AED2B6" stroke-width="4" stroke-linecap="round"/>
<line x1="222" y1="588" x2="222" y2="643" stroke="#AED2B6" stroke-width="4" stroke-linecap="round"/>
<line x1="245" y1="515" x2="245" y2="573" stroke="#AED2B6" stroke-width="4" stroke-linecap="round"/>
<line x1="965" y1="361" x2="965" y2="419" stroke="#AED2B6" stroke-width="4" stroke-linecap="round"/>
<line x1="1148" y1="306" x2="1148" y2="438" stroke="#AED2B6" stroke-width="4" stroke-linecap="round"/>
<line x1="1083" y1="475" x2="1083" y2="563" stroke="#AED2B6" stroke-width="4" stroke-linecap="round"/>
<line x1="500" y1="663" x2="500" y2="692" stroke="#AED2B6" stroke-width="4" stroke-linecap="round"/>
<line x1="752" y1="405" x2="752" y2="477" stroke="#AED2B6" stroke-width="4" stroke-linecap="round"/>
<line x1="729" y1="399" x2="729" y2="468" stroke="#AED2B6" stroke-width="4" stroke-linecap="round"/>
<line x1="663" y1="507" x2="663" y2="576" stroke="#AED2B6" stroke-width="4" stroke-linecap="round"/>
<line x1="674" y1="522" x2="674" y2="593" stroke="#AED2B6" stroke-width="4" stroke-linecap="round"/>
<line x1="427" y1="689" x2="382" y2="689" stroke="#AED2B6" stroke-width="4" stroke-linecap="round"/>
<g filter="url(#filter7_f_436_7)">
<path d="M667 192L695.579 208.5V241.5L667 258L638.421 241.5V208.5L667 192Z" fill="#A8CDAE" fill-opacity="0.8"/>
</g>
<g filter="url(#filter8_f_436_7)">
<path d="M312.5 550L356.234 575.25V625.75L312.5 651L268.766 625.75V575.25L312.5 550Z" fill="#A6CAAE" fill-opacity="0.82"/>
</g>
<g filter="url(#filter9_f_436_7)">
<path d="M688.5 256L712.316 269.75V297.25L688.5 311L664.684 297.25V269.75L688.5 256Z" fill="#B0D2B9"/>
</g>
<path d="M386.462 325.619L386.463 339.927L317.587 379.693L305.196 372.538L305.195 358.229L374.071 318.463L386.462 325.619Z" stroke="#AED2B6" stroke-width="4"/>
<path d="M210.13 626.241L210.131 634.385L167.547 658.971L160.495 654.898L160.494 646.755L203.078 622.169L210.13 626.241Z" stroke="#ABCFB3" stroke-width="4"/>
<path d="M614.743 179.961L614.744 190.725L560.983 221.764L551.661 216.382L551.66 205.617L605.422 174.578L614.743 179.961Z" stroke="#AED2B6" stroke-width="4"/>
<path d="M843.84 520.891L843.841 534.6L775.558 574.024L763.686 567.168L763.685 553.459L831.968 514.036L843.84 520.891Z" stroke="#AED2B6" stroke-width="5"/>
<path d="M267.89 426.964L384 359.928L500.11 426.964V561.036L384 628.072L267.89 561.036V426.964Z" stroke="#AED2B6" stroke-width="12"/>
<path d="M319.5 428L344.182 442.25V470.75L319.5 485L294.818 470.75V442.25L319.5 428Z" fill="#AED2B6"/>
<path d="M753.5 -11L855.258 47.75V165.25L753.5 224L651.742 165.25V47.75L753.5 -11Z" fill="#AED2B6" fill-opacity="0.15"/>
<path d="M981 -110L1032.96 -80V-20L981 10L929.038 -20V-80L981 -110Z" fill="#AED2B6" fill-opacity="0.15"/>
<path d="M489.5 605L554.019 642.25V716.75L489.5 754L424.981 716.75V642.25L489.5 605Z" fill="#AED2B6" fill-opacity="0.09"/>
<path d="M1117.5 468L1142.18 482.25V510.75L1117.5 525L1092.82 510.75V482.25L1117.5 468Z" fill="#AED2B6" fill-opacity="0.58"/>
<path d="M801.5 94L826.182 108.25V136.75L801.5 151L776.818 136.75V108.25L801.5 94Z" fill="#AED2B6" fill-opacity="0.58"/>
<path d="M348.5 693L361.057 700.25V714.75L348.5 722L335.943 714.75V700.25L348.5 693Z" fill="#AED2B6"/>
<path d="M783 242L798.588 251V269L783 278L767.412 269V251L783 242Z" fill="#AED2B6"/>
<path d="M908 12L923.588 21V39L908 48L892.412 39V21L908 12Z" fill="#A7CBAD" fill-opacity="0.8"/>
<path d="M488.005 575L488.006 590.787L420.671 629.662L407 621.768L418.392 615.191L477.954 580.802L488.005 575Z" fill="#AED2B6"/>
<path d="M361 770L468 710" stroke="#AED2B6" stroke-width="10" stroke-linecap="round"/>
<path d="M303 734L370 696" stroke="#AED2B6" stroke-width="10" stroke-linecap="round"/>
<path d="M710 501L752 476.736V439" stroke="#AED2B6" stroke-width="10" stroke-linecap="round"/>
<circle cx="795" cy="345" r="5" stroke="#AED2B6" stroke-width="4"/>
<circle cx="955" cy="680" r="5" stroke="#AED2B6" stroke-width="4"/>
<path d="M752 386L786 367" stroke="#AED2B6" stroke-width="10" stroke-linecap="round"/>
<path d="M473 663L507 644" stroke="#AED2B6" stroke-width="10" stroke-linecap="round"/>
<path d="M800 697L834 678" stroke="#AED2B6" stroke-width="10" stroke-linecap="round"/>
<path d="M1038 603L1108 564" stroke="#AED2B6" stroke-width="10" stroke-linecap="round"/>
<path d="M148.5 684.5L222 642.5V605" stroke="#AED2B6" stroke-width="10" stroke-linecap="round"/>
<rect x="143" y="523" width="43" height="9" fill="#A5C7AC"/>
<rect x="729" y="328" width="25" height="5" fill="#AED2B6"/>
<rect x="841" y="139" width="25" height="5" fill="#AED2B6"/>
<rect x="1138" y="210" width="25" height="5" fill="#AED2B6" fill-opacity="0.42"/>
<rect x="1091" y="601" width="25" height="5" fill="#AED2B6"/>
<rect x="122" y="538" width="15" height="5" fill="#A5C7AC"/>
<rect x="713" y="338" width="15" height="5" fill="#AED2B6"/>
<rect x="825" y="149" width="15" height="5" fill="#AED2B6"/>
<rect x="1122" y="220" width="15" height="5" fill="#AED2B6" fill-opacity="0.42"/>
<rect x="1075" y="611" width="15" height="5" fill="#AED2B6"/>
<rect x="418" y="533" width="15" height="5" fill="#AED2B6"/>
<rect x="218" y="217" width="15" height="5" fill="#ABCFB3" fill-opacity="0.58"/>
<rect x="580" y="742" width="15" height="5" fill="#ADD1B5"/>
<rect x="566" y="733" width="15" height="5" fill="#ADD1B5"/>
<path d="M818 706L834.454 714.75V732.25L818 741L801.546 732.25V714.75L818 706Z" fill="#AED2B6" fill-opacity="0.45"/>
<path d="M979.661 323.137L1056.5 278.774L1133.34 323.137V411.863L1056.5 456.227L979.661 411.863V323.137Z" stroke="#AED2B6" stroke-width="10"/>
<path d="M1034.71 682.405L1095.5 647.309L1156.29 682.405V752.595L1095.5 787.691L1034.71 752.595V682.405Z" stroke="#ABCFB3" stroke-width="4"/>
<path d="M996 437L965 419" stroke="#AED2B6" stroke-width="4" stroke-linecap="round"/>
<path d="M1129 295L1061 256" stroke="#AED2B6" stroke-width="4" stroke-linecap="round"/>
<path d="M1133 282L1103 265" stroke="#AED2B6" stroke-width="4" stroke-linecap="round"/>
<g filter="url(#filter10_d_436_7)">
<path d="M769 18.1285L1037.5 177.633V498.367L769 657.871L500.5 498.367V177.633L769 18.1285Z" stroke="url(#paint0_linear_436_7)" stroke-width="69" shape-rendering="crispEdges"/>
</g>
<g filter="url(#filter11_d_436_7)">
<path fill-rule="evenodd" clip-rule="evenodd" d="M435 215.75L396.5 193L358 215.75V261.25L396.5 284L435 261.25V215.75Z" fill="url(#paint1_linear_436_7)" fill-opacity="0.85" shape-rendering="crispEdges"/>
</g>
<g filter="url(#filter12_d_436_7)">
<path fill-rule="evenodd" clip-rule="evenodd" d="M602.084 323.753L505.042 266L408 323.753V439.259L505.042 497.011L602.084 439.259V323.753Z" fill="#C72D3F" fill-opacity="0.7" shape-rendering="crispEdges"/>
<path d="M602.584 323.753V323.469L602.34 323.323L505.298 265.57L505.042 265.418L504.786 265.57L407.744 323.323L407.5 323.469V323.753V439.259V439.543L407.744 439.688L504.786 497.441L505.042 497.593L505.298 497.441L602.34 439.688L602.584 439.543V439.259V323.753Z" stroke="#C72D3F" stroke-opacity="0.7" shape-rendering="crispEdges"/>
</g>
<g filter="url(#filter13_d_436_7)">
<path fill-rule="evenodd" clip-rule="evenodd" d="M638 505.5L602 484L566 505.5V548.5L602 570L638 548.5V505.5Z" fill="#C72D3F" fill-opacity="0.7" shape-rendering="crispEdges"/>
<path d="M638.5 505.5V505.216L638.256 505.071L602.256 483.571L602 483.418L601.744 483.571L565.744 505.071L565.5 505.216V505.5V548.5V548.784L565.744 548.929L601.744 570.429L602 570.582L602.256 570.429L638.256 548.929L638.5 548.784V548.5V505.5Z" stroke="#C72D3F" stroke-opacity="0.7" shape-rendering="crispEdges"/>
</g>
<g filter="url(#filter14_d_436_7)">
<path fill-rule="evenodd" clip-rule="evenodd" d="M602 265.75L585.5 256L569 265.75V285.25L585.5 295L602 285.25V265.75Z" fill="#C72D3F" fill-opacity="0.7" shape-rendering="crispEdges"/>
<path d="M602.25 265.75V265.607L602.127 265.535L585.627 255.785L585.5 255.71L585.373 255.785L568.873 265.535L568.75 265.607V265.75V285.25V285.393L568.873 285.465L585.373 295.215L585.5 295.29L585.627 295.215L602.127 285.465L602.25 285.393V285.25V265.75Z" stroke="#C72D3F" stroke-opacity="0.7" stroke-width="0.5" shape-rendering="crispEdges"/>
</g>
<g filter="url(#filter15_d_436_7)">
<path fill-rule="evenodd" clip-rule="evenodd" d="M691.782 387.848L636.391 355L581 387.848V453.545L636.391 486.393L691.782 453.545V387.848Z" fill="#A6CAAE" fill-opacity="0.67" shape-rendering="crispEdges"/>
</g>
<path d="M1088.5 109.375L1154.75 70.625" stroke="#A9CDAF" stroke-width="4"/>
<path d="M1153.5 109.375L1087.25 70.625" stroke="#A9CDAF" stroke-width="4"/>
<path d="M1088.36 71.1547L1121 52.3094L1153.64 71.1547V108.845L1121 127.691L1088.36 108.845V71.1547Z" stroke="#A9CDAF" stroke-width="4"/>
<path d="M1046 747L1147 688" stroke="#ABCFB3" stroke-width="6"/>
<path d="M1146 747L1044 688" stroke="#ABCFB3" stroke-width="6"/>
<path d="M1046.17 689.232L1096 660.464L1145.83 689.232V746.768L1096 775.536L1046.17 746.768V689.232Z" stroke="#ABCFB3" stroke-width="6"/>
<path d="M966.84 215.891L966.841 229.6L898.558 269.023L886.686 262.168L886.685 248.459L954.968 209.035L966.84 215.891Z" stroke="#A9CDAF" stroke-width="5"/>
<path d="M1161.83 127.131L1161.83 135.754L1117.2 161.521L1109.73 157.209L1109.73 148.585L1154.36 122.818L1161.83 127.131Z" stroke="#A9CDAF" stroke-opacity="0.72" stroke-width="4"/>
<path d="M808.91 32.2613L808.912 59.206L680.251 133.488L656.918 120.014L656.916 93.0692L785.576 18.787L808.91 32.2613Z" stroke="#A9CDAF" stroke-width="7"/>
<line x1="975" y1="310" x2="920" y2="310" stroke="#AED2B6" stroke-width="4" stroke-linecap="round"/>
<line x1="959" y1="300" x2="904" y2="300" stroke="#AED2B6" stroke-width="4" stroke-linecap="round"/>
<line x1="930" y1="665" x2="930" y2="716" stroke="#AED2B6" stroke-width="4" stroke-linecap="round"/>
<line x1="955" y1="686" x2="955" y2="729" stroke="#AED2B6" stroke-width="4" stroke-linecap="round"/>
<line x1="736" y1="734" x2="736" y2="767" stroke="#AED2B6" stroke-width="4" stroke-linecap="round"/>
<line x1="941" y1="644" x2="941" y2="724" stroke="#AED2B6" stroke-width="4" stroke-linecap="round"/>
<path d="M930 664L1197 513" stroke="#AED2B6" stroke-width="4" stroke-linecap="round"/>
<path d="M941 644L1083 564" stroke="#AED2B6" stroke-width="4" stroke-linecap="round"/>
<path d="M844 765L930 716" stroke="#AED2B6" stroke-width="4" stroke-linecap="round"/>
<path d="M736 733L862 661" stroke="#AED2B6" stroke-width="4" stroke-linecap="round"/>
<path d="M823 791L941 724" stroke="#AED2B6" stroke-width="4" stroke-linecap="round"/>
<path d="M834 798L954 730" stroke="#AED2B6" stroke-width="4" stroke-linecap="round"/>
</g>
<defs>
<filter id="filter0_f_436_7" x="925.828" y="437" width="91.3438" height="103" filterUnits="userSpaceOnUse" color-interpolation-filters="sRGB">
<feFlood flood-opacity="0" result="BackgroundImageFix"/>
<feBlend mode="normal" in="SourceGraphic" in2="BackgroundImageFix" result="shape"/>
<feGaussianBlur stdDeviation="4" result="effect1_foregroundBlur_436_7"/>
</filter>
<filter id="filter1_f_436_7" x="1008.76" y="645" width="77.4883" height="87" filterUnits="userSpaceOnUse" color-interpolation-filters="sRGB">
<feFlood flood-opacity="0" result="BackgroundImageFix"/>
<feBlend mode="normal" in="SourceGraphic" in2="BackgroundImageFix" result="shape"/>
<feGaussianBlur stdDeviation="4" result="effect1_foregroundBlur_436_7"/>
</filter>
<filter id="filter2_f_436_7" x="1041.83" y="250" width="91.3438" height="103" filterUnits="userSpaceOnUse" color-interpolation-filters="sRGB">
<feFlood flood-opacity="0" result="BackgroundImageFix"/>
<feBlend mode="normal" in="SourceGraphic" in2="BackgroundImageFix" result="shape"/>
<feGaussianBlur stdDeviation="4" result="effect1_foregroundBlur_436_7"/>
</filter>
<filter id="filter3_f_436_7" x="605.422" y="685" width="69.1562" height="78" filterUnits="userSpaceOnUse" color-interpolation-filters="sRGB">
<feFlood flood-opacity="0" result="BackgroundImageFix"/>
<feBlend mode="normal" in="SourceGraphic" in2="BackgroundImageFix" result="shape"/>
<feGaussianBlur stdDeviation="3" result="effect1_foregroundBlur_436_7"/>
</filter>
<filter id="filter4_f_436_7" x="1060.08" y="43" width="51.8359" height="58" filterUnits="userSpaceOnUse" color-interpolation-filters="sRGB">
<feFlood flood-opacity="0" result="BackgroundImageFix"/>
<feBlend mode="normal" in="SourceGraphic" in2="BackgroundImageFix" result="shape"/>
<feGaussianBlur stdDeviation="3" result="effect1_foregroundBlur_436_7"/>
</filter>
<filter id="filter5_f_436_7" x="262.885" y="187" width="66.2305" height="74" filterUnits="userSpaceOnUse" color-interpolation-filters="sRGB">
<feFlood flood-opacity="0" result="BackgroundImageFix"/>
<feBlend mode="normal" in="SourceGraphic" in2="BackgroundImageFix" result="shape"/>
<feGaussianBlur stdDeviation="4" result="effect1_foregroundBlur_436_7"/>
</filter>
<filter id="filter6_f_436_7" x="806.422" y="327" width="69.1562" height="78" filterUnits="userSpaceOnUse" color-interpolation-filters="sRGB">
<feFlood flood-opacity="0" result="BackgroundImageFix"/>
<feBlend mode="normal" in="SourceGraphic" in2="BackgroundImageFix" result="shape"/>
<feGaussianBlur stdDeviation="3" result="effect1_foregroundBlur_436_7"/>
</filter>
<filter id="filter7_f_436_7" x="632.422" y="186" width="69.1562" height="78" filterUnits="userSpaceOnUse" color-interpolation-filters="sRGB">
<feFlood flood-opacity="0" result="BackgroundImageFix"/>
<feBlend mode="normal" in="SourceGraphic" in2="BackgroundImageFix" result="shape"/>
<feGaussianBlur stdDeviation="3" result="effect1_foregroundBlur_436_7"/>
</filter>
<filter id="filter8_f_436_7" x="260.766" y="542" width="103.469" height="117" filterUnits="userSpaceOnUse" color-interpolation-filters="sRGB">
<feFlood flood-opacity="0" result="BackgroundImageFix"/>
<feBlend mode="normal" in="SourceGraphic" in2="BackgroundImageFix" result="shape"/>
<feGaussianBlur stdDeviation="4" result="effect1_foregroundBlur_436_7"/>
</filter>
<filter id="filter9_f_436_7" x="660.684" y="252" width="55.6328" height="63" filterUnits="userSpaceOnUse" color-interpolation-filters="sRGB">
<feFlood flood-opacity="0" result="BackgroundImageFix"/>
<feBlend mode="normal" in="SourceGraphic" in2="BackgroundImageFix" result="shape"/>
<feGaussianBlur stdDeviation="2" result="effect1_foregroundBlur_436_7"/>
</filter>
<filter id="filter10_d_436_7" x="423" y="-30" width="654" height="768" filterUnits="userSpaceOnUse" color-interpolation-filters="sRGB">
<feFlood flood-opacity="0" result="BackgroundImageFix"/>
<feColorMatrix in="SourceAlpha" type="matrix" values="0 0 0 0 0 0 0 0 0 0 0 0 0 0 0 0 0 0 127 0" result="hardAlpha"/>
<feOffset dx="-19" dy="16"/>
<feGaussianBlur stdDeviation="12"/>
<feComposite in2="hardAlpha" operator="out"/>
<feColorMatrix type="matrix" values="0 0 0 0 0 0 0 0 0 0 0 0 0 0 0 0 0 0 0.07 0"/>
<feBlend mode="normal" in2="BackgroundImageFix" result="effect1_dropShadow_436_7"/>
<feBlend mode="normal" in="SourceGraphic" in2="effect1_dropShadow_436_7" result="shape"/>
</filter>
<filter id="filter11_d_436_7" x="338" y="193" width="97" height="111" filterUnits="userSpaceOnUse" color-interpolation-filters="sRGB">
<feFlood flood-opacity="0" result="BackgroundImageFix"/>
<feColorMatrix in="SourceAlpha" type="matrix" values="0 0 0 0 0 0 0 0 0 0 0 0 0 0 0 0 0 0 127 0" result="hardAlpha"/>
<feOffset dx="-10" dy="10"/>
<feGaussianBlur stdDeviation="5"/>
<feComposite in2="hardAlpha" operator="out"/>
<feColorMatrix type="matrix" values="0 0 0 0 0 0 0 0 0 0 0 0 0 0 0 0 0 0 0.06 0"/>
<feBlend mode="normal" in2="BackgroundImageFix" result="effect1_dropShadow_436_7"/>
<feBlend mode="normal" in="SourceGraphic" in2="effect1_dropShadow_436_7" result="shape"/>
</filter>
<filter id="filter12_d_436_7" x="342" y="244.836" width="286.084" height="323.339" filterUnits="userSpaceOnUse" color-interpolation-filters="sRGB">
<feFlood flood-opacity="0" result="BackgroundImageFix"/>
<feColorMatrix in="SourceAlpha" type="matrix" values="0 0 0 0 0 0 0 0 0 0 0 0 0 0 0 0 0 0 127 0" result="hardAlpha"/>
<feOffset dx="-20" dy="25"/>
<feGaussianBlur stdDeviation="22.5"/>
<feComposite in2="hardAlpha" operator="out"/>
<feColorMatrix type="matrix" values="0 0 0 0 0 0 0 0 0 0 0 0 0 0 0 0 0 0 0.3 0"/>
<feBlend mode="normal" in2="BackgroundImageFix" result="effect1_dropShadow_436_7"/>
<feBlend mode="normal" in="SourceGraphic" in2="effect1_dropShadow_436_7" result="shape"/>
</filter>
<filter id="filter13_d_436_7" x="500" y="462.835" width="164" height="178.329" filterUnits="userSpaceOnUse" color-interpolation-filters="sRGB">
<feFlood flood-opacity="0" result="BackgroundImageFix"/>
<feColorMatrix in="SourceAlpha" type="matrix" values="0 0 0 0 0 0 0 0 0 0 0 0 0 0 0 0 0 0 127 0" result="hardAlpha"/>
<feOffset dx="-20" dy="25"/>
<feGaussianBlur stdDeviation="22.5"/>
<feComposite in2="hardAlpha" operator="out"/>
<feColorMatrix type="matrix" values="0 0 0 0 0 0 0 0 0 0 0 0 0 0 0 0 0 0 0.3 0"/>
<feBlend mode="normal" in2="BackgroundImageFix" result="effect1_dropShadow_436_7"/>
<feBlend mode="normal" in="SourceGraphic" in2="effect1_dropShadow_436_7" result="shape"/>
</filter>
<filter id="filter14_d_436_7" x="548.5" y="255.419" width="54" height="60.1611" filterUnits="userSpaceOnUse" color-interpolation-filters="sRGB">
<feFlood flood-opacity="0" result="BackgroundImageFix"/>
<feColorMatrix in="SourceAlpha" type="matrix" values="0 0 0 0 0 0 0 0 0 0 0 0 0 0 0 0 0 0 127 0" result="hardAlpha"/>
<feOffset dx="-10" dy="10"/>
<feGaussianBlur stdDeviation="5"/>
<feComposite in2="hardAlpha" operator="out"/>
<feColorMatrix type="matrix" values="0 0 0 0 0 0 0 0 0 0 0 0 0 0 0 0 0 0 0.15 0"/>
<feBlend mode="normal" in2="BackgroundImageFix" result="effect1_dropShadow_436_7"/>
<feBlend mode="normal" in="SourceGraphic" in2="effect1_dropShadow_436_7" result="shape"/>
</filter>
<filter id="filter15_d_436_7" x="531" y="335" width="180.783" height="201.393" filterUnits="userSpaceOnUse" color-interpolation-filters="sRGB">
<feFlood flood-opacity="0" result="BackgroundImageFix"/>
<feColorMatrix in="SourceAlpha" type="matrix" values="0 0 0 0 0 0 0 0 0 0 0 0 0 0 0 0 0 0 127 0" result="hardAlpha"/>
<feOffset dx="-15" dy="15"/>
<feGaussianBlur stdDeviation="17.5"/>
<feComposite in2="hardAlpha" operator="out"/>
<feColorMatrix type="matrix" values="0 0 0 0 0 0 0 0 0 0 0 0 0 0 0 0 0 0 0.25 0"/>
<feBlend mode="normal" in2="BackgroundImageFix" result="effect1_dropShadow_436_7"/>
<feBlend mode="normal" in="SourceGraphic" in2="effect1_dropShadow_436_7" result="shape"/>
</filter>
<linearGradient id="paint0_linear_436_7" x1="734.075" y1="698.139" x2="734.075" y2="-2.77065" gradientUnits="userSpaceOnUse">
<stop stop-color="#C1DFC7"/>
<stop offset="1" stop-color="#A5CAAB"/>
</linearGradient>
<linearGradient id="paint1_linear_436_7" x1="377.269" y1="270.422" x2="421.264" y2="208.935" gradientUnits="userSpaceOnUse">
<stop stop-color="#A9CDB1"/>
<stop offset="1" stop-color="#A9CDB1"/>
</linearGradient>
</defs>
</svg>
