<svg width="1231" height="564" viewBox="0 0 1231 564" fill="none" xmlns="http://www.w3.org/2000/svg">
<metadata><?xpacket begin="﻿" id="W5M0MpCehiHzreSzNTczkc9d"?>
<x:xmpmeta xmlns:x="adobe:ns:meta/" x:xmptk="Adobe XMP Core 5.6-c148 79.164036, 2019/08/13-01:06:57        ">
   <rdf:RDF xmlns:rdf="http://www.w3.org/1999/02/22-rdf-syntax-ns#">
      <rdf:Description rdf:about=""
            xmlns:xmp="http://ns.adobe.com/xap/1.0/"
            xmlns:xmpMM="http://ns.adobe.com/xap/1.0/mm/"
            xmlns:stEvt="http://ns.adobe.com/xap/1.0/sType/ResourceEvent#">
         <xmp:Rating>1</xmp:Rating>
         <xmp:MetadataDate>2022-07-25T09:32:32+05:00</xmp:MetadataDate>
         <xmpMM:InstanceID>xmp.iid:05e8a216-e453-c24c-b7d8-5e9a521c3144</xmpMM:InstanceID>
         <xmpMM:DocumentID>xmp.did:05e8a216-e453-c24c-b7d8-5e9a521c3144</xmpMM:DocumentID>
         <xmpMM:OriginalDocumentID>xmp.did:05e8a216-e453-c24c-b7d8-5e9a521c3144</xmpMM:OriginalDocumentID>
         <xmpMM:History>
            <rdf:Seq>
               <rdf:li>
                  <rdf:Description>
                     <stEvt:action>saved</stEvt:action>
                     <stEvt:instanceID>xmp.iid:05e8a216-e453-c24c-b7d8-5e9a521c3144</stEvt:instanceID>
                     <stEvt:when>2022-07-25T09:32:32+05:00</stEvt:when>
                     <stEvt:softwareAgent>Adobe Bridge 2020 (Windows)</stEvt:softwareAgent>
                     <stEvt:changed>/metadata</stEvt:changed>
                  </rdf:Description>
               </rdf:li>
            </rdf:Seq>
         </xmpMM:History>
      </rdf:Description>
   </rdf:RDF>
</x:xmpmeta>
                                                                                                    
                                                                                                    
                                                                                                    
                                                                                                    
                                                                                                    
                                                                                                    
                                                                                                    
                                                                                                    
                                                                                                    
                                                                                                    
                                                                                                    
                                                                                                    
                                                                                                    
                                                                                                    
                                                                                                    
                                                                                                    
                                                                                                    
                                                                                                    
                                                                                                    
                                                                                                    
                           
<?xpacket end="w"?></metadata>
<mask id="mask0_514_80" style="mask-type:alpha" maskUnits="userSpaceOnUse" x="0" y="0" width="1231" height="564">
<rect width="1231" height="564" fill="#E14747"/>
</mask>
<g mask="url(#mask0_514_80)">
<path d="M1183 159L1198.59 168.5V187.5L1183 197L1167.41 187.5V168.5L1183 159Z" fill="#A7CDB0" fill-opacity="0.21"/>
<g filter="url(#filter0_f_514_80)">
<path d="M435.5 451L479.234 476.25V526.75L435.5 552L391.766 526.75V476.25L435.5 451Z" fill="#ABCFB3" fill-opacity="0.51"/>
</g>
<g filter="url(#filter1_f_514_80)">
<path d="M1106.5 380L1150.23 405.25V455.75L1106.5 481L1062.77 455.75V405.25L1106.5 380Z" fill="#ABCFB3" fill-opacity="0.25"/>
</g>
<g filter="url(#filter2_f_514_80)">
<path d="M177.5 456L221.234 481.25V531.75L177.5 557L133.766 531.75V481.25L177.5 456Z" fill="#A5C9AD" fill-opacity="0.82"/>
</g>
<g filter="url(#filter3_f_514_80)">
<path d="M818.5 131L837.986 142.25V164.75L818.5 176L799.014 164.75V142.25L818.5 131Z" fill="#A5C9AD" fill-opacity="0.74"/>
</g>
<g filter="url(#filter4_f_514_80)">
<path d="M595 304L623.579 320.5V353.5L595 370L566.421 353.5V320.5L595 304Z" fill="#A8CBB0" fill-opacity="0.75"/>
</g>
<g filter="url(#filter5_f_514_80)">
<path d="M293.703 292L322.282 308.5V341.5L293.703 358L265.124 341.5V308.5L293.703 292Z" fill="#A8CCAE" fill-opacity="0.72"/>
</g>
<g filter="url(#filter6_f_514_80)">
<path d="M613 102L641.579 118.5V151.5L613 168L584.421 151.5V118.5L613 102Z" fill="#A9CEAF" fill-opacity="0.4"/>
</g>
<g filter="url(#filter7_f_514_80)">
<path d="M885 121L913.579 137.5V170.5L885 187L856.421 170.5V137.5L885 121Z" fill="#A8CDAE" fill-opacity="0.77"/>
</g>
<path d="M716.5 193L727.325 199.5V212.5L716.5 219L705.675 212.5V199.5L716.5 193Z" fill="#A7CDB0"/>
<path d="M399 494L416.321 504.5V525.5L399 536L381.679 525.5V504.5L399 494Z" fill="#A7CDB0"/>
<path d="M1193.5 326L1216.45 340V368L1193.5 382L1170.55 368V340L1193.5 326Z" fill="#A7CDB0" fill-opacity="0.47"/>
<path d="M654.662 289.706L654.662 298.427L611.579 323.302L604.026 318.94L604.026 310.219L647.109 285.345L654.662 289.706Z" fill="#A7CDB0" stroke="#A7CDB0" stroke-width="3"/>
<path d="M344 547L361.321 557.5V578.5L344 589L326.679 578.5V557.5L344 547Z" fill="#A7CDB0"/>
<path d="M761 39L777.454 47.75V65.25L761 74L744.546 65.25V47.75L761 39Z" fill="#ABCFB3" fill-opacity="0.38"/>
<path d="M857 517L873.454 525.75V543.25L857 552L840.546 543.25V525.75L857 517Z" fill="#9FC3A7"/>
<path d="M689.5 363L715.048 376.5V403.5L689.5 417L663.952 403.5V376.5L689.5 363Z" fill="#9FC3A7" fill-opacity="0.53"/>
<path d="M724 391L758.641 409.25V445.75L724 464L689.359 445.75V409.25L724 391Z" fill="#9FC3A7"/>
<path d="M353 214L369.454 222.75V240.25L353 249L336.546 240.25V222.75L353 214Z" fill="#A0C5A8"/>
<rect x="738" y="57" width="25" height="5" fill="#A7CDB0"/>
<rect x="988" y="13" width="25" height="5" fill="#A7CDB0"/>
<rect x="722" y="67" width="15" height="5" fill="#A7CDB0"/>
<rect x="972" y="23" width="15" height="5" fill="#A7CDB0"/>
<rect x="558" y="529" width="15" height="5" fill="#A7CDB0"/>
<rect x="543" y="520" width="15" height="5" fill="#A7CDB0"/>
<path d="M482.75 570.437L542.375 535.562" stroke="#A7CDB0" stroke-width="4"/>
<path d="M541.25 570.437L481.625 535.562" stroke="#A7CDB0" stroke-width="4"/>
<path d="M482.823 536.155L512 519.309L541.177 536.155V569.845L512 586.691L482.823 569.845V536.155Z" stroke="#A7CDB0" stroke-width="4"/>
<path d="M1099.75 506.437L1159.37 471.562" stroke="#A2C8AA" stroke-width="4"/>
<path d="M1158.25 506.437L1098.63 471.562" stroke="#A2C8AA" stroke-width="4"/>
<path d="M1099.82 472.155L1129 455.309L1158.18 472.155V505.845L1129 522.691L1099.82 505.845V472.155Z" stroke="#A2C8AA" stroke-width="4"/>
<path d="M1179.22 169.398L1216.48 147.602" stroke="#A2C8AA" stroke-width="3"/>
<path d="M1215.78 169.398L1178.52 147.602" stroke="#A2C8AA" stroke-width="3"/>
<path d="M1179.51 148.116L1197.5 137.732L1215.49 148.116V168.884L1197.5 179.268L1179.51 168.884V148.116Z" stroke="#A2C8AA" stroke-width="3"/>
<path d="M525.656 456.445L610.953 406.555" stroke="#A7CDB0" stroke-width="4"/>
<path d="M609.344 456.445L524.047 406.555" stroke="#A7CDB0" stroke-width="4"/>
<path d="M524.9 406.905L567.5 382.309L610.1 406.905V456.095L567.5 480.691L524.9 456.095V406.905Z" stroke="#A7CDB0" stroke-width="4"/>
<path d="M826.531 71.7891L875.391 43.2109" stroke="#A7CDB0" stroke-width="2"/>
<path d="M874.469 71.7891L825.609 43.2109" stroke="#A7CDB0" stroke-width="2"/>
<path d="M825.952 43.3273L850.5 29.1547L875.048 43.3273V71.6726L850.5 85.8453L825.952 71.6726V43.3273Z" stroke="#A7CDB0" stroke-width="2"/>
<path d="M628.11 155.309L683 123.619L737.89 155.309V218.691L683 250.381L628.11 218.691V155.309Z" stroke="#A7CDB0" stroke-width="8"/>
<g style="mix-blend-mode:lighten">
<path d="M1017 171L1087.15 211.5V292.5L1017 333L946.852 292.5V211.5L1017 171Z" fill="#A7CDB0" fill-opacity="0.25"/>
</g>
<path d="M971.878 263.443L1030 229.887L1088.12 263.443V330.557L1030 364.113L971.878 330.557V263.443Z" stroke="#A7CDB0" stroke-width="5"/>
<path d="M736.97 121.984L736.971 131.583L686.219 160.885L677.906 156.085L677.906 146.486L728.658 117.184L736.97 121.984Z" stroke="#A7CDB0" stroke-width="5"/>
<path d="M554.47 413.519L554.471 423.695L503.219 453.285L494.406 448.197L494.406 438.021L545.658 408.43L554.47 413.519Z" stroke="#A7CDB0" stroke-width="4"/>
<path d="M823.718 151.961L823.719 158.356L790.557 177.502L785.019 174.304L785.019 167.909L818.18 148.763L823.718 151.961Z" stroke="#A7CDB0" stroke-width="3"/>
<path d="M457 325L491 307" stroke="#A7CDB0" stroke-width="3" stroke-linecap="round"/>
<path d="M83 515L482 297" stroke="#A7CDB0" stroke-width="3" stroke-linecap="round"/>
<path d="M83 515L257 420" stroke="#A7CDB0" stroke-width="4" stroke-linecap="round"/>
<path d="M69 541L257 436" stroke="#A7CDB0" stroke-width="4" stroke-linecap="round"/>
<path d="M119 527L209 478" stroke="#A7CDB0" stroke-width="4" stroke-linecap="round"/>
<path d="M89 499L456 297" stroke="#A7CDB0" stroke-width="4" stroke-linecap="round"/>
<path d="M492 242L540 216" stroke="#A7CDB0" stroke-width="3" stroke-linecap="round"/>
<path d="M483 237L514 220" stroke="#A7CDB0" stroke-width="3" stroke-linecap="round"/>
<path d="M457 281L523 245" stroke="#A7CDB0" stroke-width="3" stroke-linecap="round"/>
<line x1="491.5" y1="242.5" x2="491.5" y2="306.5" stroke="#A7CDB0" stroke-width="3" stroke-linecap="round"/>
<line x1="456.5" y1="281.5" x2="456.5" y2="296.5" stroke="#A7CDB0" stroke-width="3" stroke-linecap="round"/>
<line x1="257" y1="421" x2="257" y2="435" stroke="#A7CDB0" stroke-width="4" stroke-linecap="round"/>
<line x1="209" y1="463" x2="209" y2="477" stroke="#A7CDB0" stroke-width="4" stroke-linecap="round"/>
<line x1="482.5" y1="237.5" x2="482.5" y2="296.5" stroke="#A7CDB0" stroke-width="3" stroke-linecap="round"/>
<path d="M67.4701 541.519L67.4709 551.695L16.2188 581.285L7.40648 576.197L7.40564 566.021L58.6578 536.43L67.4701 541.519Z" stroke="#A7CDB0" stroke-width="4"/>
<path d="M403 326L431 310" stroke="#A7CDB0" stroke-width="8" stroke-linecap="round"/>
<circle cx="545" cy="213" r="5.5" stroke="#A7CDB0" stroke-width="3"/>
<circle cx="528" cy="242" r="5.5" stroke="#A7CDB0" stroke-width="3"/>
<circle cx="78" cy="518" r="5" stroke="#A7CDB0" stroke-width="4"/>
<line x1="455.5" y1="325.5" x2="431.5" y2="325.5" stroke="#A7CDB0" stroke-width="3" stroke-linecap="round"/>
<path d="M334 364L456 297" stroke="#A7CDB0" stroke-width="3" stroke-linecap="round"/>
<path d="M870 405L977 346" stroke="#A7CDB0" stroke-width="4" stroke-linecap="round"/>
<path d="M880 415L960 371" stroke="#A7CDB0" stroke-width="4" stroke-linecap="round"/>
<path d="M890 426L952 392" stroke="#A7CDB0" stroke-width="4" stroke-linecap="round"/>
<path d="M1048 447L1129 403" stroke="#A7CDB0" stroke-width="4" stroke-linecap="round"/>
<path d="M1038 434L1109 394" stroke="#A7CDB0" stroke-width="4" stroke-linecap="round"/>
<path d="M1109 292L1232 223" stroke="#A7CDB0" stroke-width="4" stroke-linecap="round"/>
<path d="M1091 115L1232 36" stroke="#A7CDB0" stroke-width="4" stroke-linecap="round"/>
<path d="M1112 163L1163 135" stroke="#A7CDB0" stroke-width="4" stroke-linecap="round"/>
<path d="M1182 135L1233 107" stroke="#A7CDB0" stroke-width="4" stroke-linecap="round"/>
<path d="M1093 101L1153 67" stroke="#A7CDB0" stroke-width="4" stroke-linecap="round"/>
<path d="M1153 57L1231 13" stroke="#A7CDB0" stroke-width="4" stroke-linecap="round"/>
<path d="M1119 301L1242 232" stroke="#A7CDB0" stroke-width="4" stroke-linecap="round"/>
<path d="M1129 309L1252 240" stroke="#A7CDB0" stroke-width="4" stroke-linecap="round"/>
<path d="M861 589L1048 485" stroke="#A7CDB0" stroke-width="4" stroke-linecap="round"/>
<path d="M950 522L1038 473" stroke="#A7CDB0" stroke-width="4" stroke-linecap="round"/>
<path d="M733 522L870 444" stroke="#A7CDB0" stroke-width="4" stroke-linecap="round"/>
<path d="M723 544L880 455" stroke="#A7CDB0" stroke-width="4" stroke-linecap="round"/>
<path d="M801 518L889 468" stroke="#A7CDB0" stroke-width="4" stroke-linecap="round"/>
<path d="M546 589L658 525" stroke="#A7CDB0" stroke-width="4" stroke-linecap="round"/>
<path d="M576 591L658 544" stroke="#A7CDB0" stroke-width="4" stroke-linecap="round"/>
<line x1="870" y1="405" x2="870" y2="444" stroke="#A7CDB0" stroke-width="4" stroke-linecap="round"/>
<line x1="880" y1="416" x2="880" y2="455" stroke="#A7CDB0" stroke-width="4" stroke-linecap="round"/>
<line x1="890" y1="427" x2="890" y2="467" stroke="#A7CDB0" stroke-width="4" stroke-linecap="round"/>
<line x1="1109" y1="293" x2="1109" y2="394" stroke="#A7CDB0" stroke-width="4" stroke-linecap="round"/>
<line x1="1111" y1="164" x2="1111" y2="191" stroke="#A7CDB0" stroke-width="4" stroke-linecap="round"/>
<line x1="1153" y1="57" x2="1153" y2="67" stroke="#A7CDB0" stroke-width="4" stroke-linecap="round"/>
<line x1="1119" y1="302" x2="1119" y2="407" stroke="#A7CDB0" stroke-width="4" stroke-linecap="round"/>
<line x1="1129" y1="309" x2="1129" y2="402" stroke="#A7CDB0" stroke-width="4" stroke-linecap="round"/>
<line x1="1048" y1="447" x2="1048" y2="485" stroke="#A7CDB0" stroke-width="4" stroke-linecap="round"/>
<line x1="1038" y1="434" x2="1038" y2="472" stroke="#A7CDB0" stroke-width="4" stroke-linecap="round"/>
<path d="M726 525L822 471" stroke="#A7CDB0" stroke-width="10" stroke-linecap="round"/>
<path d="M983 522L1036 492" stroke="#A7CDB0" stroke-width="10" stroke-linecap="round"/>
<path d="M1130 280L1183 250" stroke="#A7CDB0" stroke-width="10" stroke-linecap="round"/>
<path d="M630 541L658 525" stroke="#A7CDB0" stroke-width="10" stroke-linecap="round"/>
<path d="M828 358L856 342" stroke="#A7CDB0" stroke-width="10" stroke-linecap="round"/>
<path d="M660 523.929L725.932 524.756" stroke="#A7CDB0" stroke-width="10" stroke-linecap="round"/>
<circle cx="696" cy="545" r="5" stroke="#A7CDB0" stroke-width="4"/>
<circle cx="796" cy="521" r="5" stroke="#A7CDB0" stroke-width="4"/>
<circle cx="965" cy="368" r="5" stroke="#A7CDB0" stroke-width="4"/>
<circle cx="921" cy="282" r="5" stroke="#A7CDB0" stroke-width="4"/>
<circle cx="799" cy="375" r="5" stroke="#A7CDB0" stroke-width="4"/>
<line x1="722" y1="544" x2="703" y2="544" stroke="#A7CDB0" stroke-width="4" stroke-linecap="round"/>
<line x1="671" y1="544" x2="659" y2="544" stroke="#A7CDB0" stroke-width="4" stroke-linecap="round"/>
<line x1="1163" y1="135" x2="1182" y2="135" stroke="#A7CDB0" stroke-width="4" stroke-linecap="round"/>
<line x1="897" y1="155" x2="897" y2="214" stroke="#A7CDB0" stroke-width="4" stroke-linecap="round"/>
<line x1="871" y1="311" x2="871" y2="333" stroke="#A7CDB0" stroke-width="4" stroke-linecap="round"/>
<line x1="937" y1="207" x2="937" y2="259" stroke="#A7CDB0" stroke-width="4" stroke-linecap="round"/>
<line x1="888" y1="147" x2="888" y2="205" stroke="#A7CDB0" stroke-width="4" stroke-linecap="round"/>
<line x1="879" y1="137" x2="879" y2="197" stroke="#A7CDB0" stroke-width="4" stroke-linecap="round"/>
<line x1="870" y1="128" x2="870" y2="187" stroke="#A7CDB0" stroke-width="4" stroke-linecap="round"/>
<path d="M870 126L963 74" stroke="#A7CDB0" stroke-width="4" stroke-linecap="round"/>
<path d="M787 234L869 188" stroke="#A7CDB0" stroke-width="4" stroke-linecap="round"/>
<path d="M879 136L1028 52" stroke="#A7CDB0" stroke-width="4" stroke-linecap="round"/>
<path d="M747 271L879 197" stroke="#A7CDB0" stroke-width="4" stroke-linecap="round"/>
<path d="M888 146L1028 66" stroke="#A7CDB0" stroke-width="4" stroke-linecap="round"/>
<path d="M843 231L888 206" stroke="#A7CDB0" stroke-width="4" stroke-linecap="round"/>
<path d="M898 154L1027 81" stroke="#A7CDB0" stroke-width="4" stroke-linecap="round"/>
<path d="M740 304L897 215" stroke="#A7CDB0" stroke-width="4" stroke-linecap="round"/>
<path d="M802 336L937 259" stroke="#A7CDB0" stroke-width="4" stroke-linecap="round"/>
<path d="M803 372L871 333" stroke="#A7CDB0" stroke-width="4" stroke-linecap="round"/>
<path d="M871 311L916 285" stroke="#A7CDB0" stroke-width="4" stroke-linecap="round"/>
<path d="M937 207L997 172" stroke="#A7CDB0" stroke-width="4" stroke-linecap="round"/>
<circle cx="782" cy="236" r="5" stroke="#A7CDB0" stroke-width="4"/>
<circle cx="743" cy="275" r="5" stroke="#A7CDB0" stroke-width="4"/>
<circle cx="736" cy="307" r="5" stroke="#A7CDB0" stroke-width="4"/>
<circle cx="838" cy="234" r="5" stroke="#A7CDB0" stroke-width="4"/>
<circle cx="1073" cy="77" r="5" stroke="#A7CDB0" stroke-width="4"/>
<path d="M567 251L625 219" stroke="#A7CDB0" stroke-width="4" stroke-linecap="round"/>
<path d="M403 418L581 320" stroke="#A7CDB0" stroke-width="4" stroke-linecap="round"/>
<path d="M289 520L386 467" stroke="#A7CDB0" stroke-width="3" stroke-linecap="round"/>
<path d="M683 266L646 245" stroke="#A7CDB0" stroke-width="4" stroke-linecap="round"/>
<path d="M1017 368L977 346" stroke="#A7CDB0" stroke-width="4" stroke-linecap="round"/>
<path d="M1091 115L1028 80" stroke="#A7CDB0" stroke-width="4" stroke-linecap="round"/>
<path d="M1092 101L1029 66" stroke="#A7CDB0" stroke-width="4" stroke-linecap="round"/>
<path d="M1068 74L1028 52" stroke="#A7CDB0" stroke-width="4" stroke-linecap="round"/>
<path d="M683 266L704 254" stroke="#A7CDB0" stroke-width="4" stroke-linecap="round"/>
<path d="M611 195L626 187" stroke="#A7CDB0" stroke-width="4" stroke-linecap="round"/>
<path d="M386 412L567 309" stroke="#A7CDB0" stroke-width="4" stroke-linecap="round"/>
<line x1="567" y1="252" x2="567" y2="309" stroke="#A7CDB0" stroke-width="4" stroke-linecap="round"/>
<line x1="611" y1="197" x2="611" y2="226" stroke="#A7CDB0" stroke-width="4" stroke-linecap="round"/>
<line x1="583" y1="281" x2="583" y2="318" stroke="#A7CDB0" stroke-width="4" stroke-linecap="round"/>
<line x1="386" y1="412" x2="386" y2="466" stroke="#A7CDB0" stroke-width="4" stroke-linecap="round"/>
<path d="M532 329L566.5 310.5V273" stroke="#A7CDB0" stroke-width="10" stroke-linecap="round"/>
<circle cx="583" cy="276" r="5" stroke="#A7CDB0" stroke-width="4"/>
<path d="M349.662 503.706L349.662 512.427L306.579 537.302L299.026 532.94L299.026 524.219L342.109 499.345L349.662 503.706Z" stroke="#A7CDB0" stroke-width="3"/>
<path d="M209 581L289 537" stroke="#A7CDB0" stroke-width="3" stroke-linecap="round"/>
<path d="M190 581L256 545" stroke="#A7CDB0" stroke-width="3" stroke-linecap="round"/>
<line x1="289.5" y1="521.5" x2="289.5" y2="536.5" stroke="#A7CDB0" stroke-width="3" stroke-linecap="round"/>
<g filter="url(#filter8_d_514_80)">
<path fill-rule="evenodd" clip-rule="evenodd" d="M411 232.75L386 218L361 232.75V262.25L386 277L411 262.25V232.75Z" fill="#A7CDB0" fill-opacity="0.8" shape-rendering="crispEdges"/>
</g>
<g filter="url(#filter9_d_514_80)">
<path fill-rule="evenodd" clip-rule="evenodd" d="M282.703 322.75L257.703 308L232.703 322.75V352.25L257.703 367L282.703 352.25V322.75Z" fill="#A7CDB0" fill-opacity="0.8" shape-rendering="crispEdges"/>
</g>
<g filter="url(#filter10_d_514_80)">
<path fill-rule="evenodd" clip-rule="evenodd" d="M1087.7 145.75L1062.7 131L1037.7 145.75V175.25L1062.7 190L1087.7 175.25V145.75Z" fill="#A7CDB0" fill-opacity="0.8" shape-rendering="crispEdges"/>
</g>
<g filter="url(#filter11_d_514_80)">
<path fill-rule="evenodd" clip-rule="evenodd" d="M257.703 295.619L221 316.809V359.191L257.703 380.381L294.406 359.191V316.809L257.703 295.619ZM298.406 314.5L257.703 291L217 314.5V361.5L257.703 385L298.406 361.5V314.5Z" fill="#A7CDB0" fill-opacity="0.8" shape-rendering="crispEdges"/>
</g>
<g filter="url(#filter12_d_514_80)">
<path fill-rule="evenodd" clip-rule="evenodd" d="M1062.7 118.619L1026 139.809V182.191L1062.7 203.381L1099.41 182.191V139.809L1062.7 118.619ZM1103.41 137.5L1062.7 114L1022 137.5V184.5L1062.7 208L1103.41 184.5V137.5Z" fill="#A7CDB0" fill-opacity="0.8" shape-rendering="crispEdges"/>
</g>
</g>
<defs>
<filter id="filter0_f_514_80" x="383.766" y="443" width="103.469" height="117" filterUnits="userSpaceOnUse" color-interpolation-filters="sRGB">
<feFlood flood-opacity="0" result="BackgroundImageFix"/>
<feBlend mode="normal" in="SourceGraphic" in2="BackgroundImageFix" result="shape"/>
<feGaussianBlur stdDeviation="4" result="effect1_foregroundBlur_514_80"/>
</filter>
<filter id="filter1_f_514_80" x="1054.77" y="372" width="103.469" height="117" filterUnits="userSpaceOnUse" color-interpolation-filters="sRGB">
<feFlood flood-opacity="0" result="BackgroundImageFix"/>
<feBlend mode="normal" in="SourceGraphic" in2="BackgroundImageFix" result="shape"/>
<feGaussianBlur stdDeviation="4" result="effect1_foregroundBlur_514_80"/>
</filter>
<filter id="filter2_f_514_80" x="125.766" y="448" width="103.469" height="117" filterUnits="userSpaceOnUse" color-interpolation-filters="sRGB">
<feFlood flood-opacity="0" result="BackgroundImageFix"/>
<feBlend mode="normal" in="SourceGraphic" in2="BackgroundImageFix" result="shape"/>
<feGaussianBlur stdDeviation="4" result="effect1_foregroundBlur_514_80"/>
</filter>
<filter id="filter3_f_514_80" x="791.014" y="123" width="54.9727" height="61" filterUnits="userSpaceOnUse" color-interpolation-filters="sRGB">
<feFlood flood-opacity="0" result="BackgroundImageFix"/>
<feBlend mode="normal" in="SourceGraphic" in2="BackgroundImageFix" result="shape"/>
<feGaussianBlur stdDeviation="4" result="effect1_foregroundBlur_514_80"/>
</filter>
<filter id="filter4_f_514_80" x="560.422" y="298" width="69.1562" height="78" filterUnits="userSpaceOnUse" color-interpolation-filters="sRGB">
<feFlood flood-opacity="0" result="BackgroundImageFix"/>
<feBlend mode="normal" in="SourceGraphic" in2="BackgroundImageFix" result="shape"/>
<feGaussianBlur stdDeviation="3" result="effect1_foregroundBlur_514_80"/>
</filter>
<filter id="filter5_f_514_80" x="259.125" y="286" width="69.1562" height="78" filterUnits="userSpaceOnUse" color-interpolation-filters="sRGB">
<feFlood flood-opacity="0" result="BackgroundImageFix"/>
<feBlend mode="normal" in="SourceGraphic" in2="BackgroundImageFix" result="shape"/>
<feGaussianBlur stdDeviation="3" result="effect1_foregroundBlur_514_80"/>
</filter>
<filter id="filter6_f_514_80" x="578.422" y="96" width="69.1562" height="78" filterUnits="userSpaceOnUse" color-interpolation-filters="sRGB">
<feFlood flood-opacity="0" result="BackgroundImageFix"/>
<feBlend mode="normal" in="SourceGraphic" in2="BackgroundImageFix" result="shape"/>
<feGaussianBlur stdDeviation="3" result="effect1_foregroundBlur_514_80"/>
</filter>
<filter id="filter7_f_514_80" x="850.422" y="115" width="69.1562" height="78" filterUnits="userSpaceOnUse" color-interpolation-filters="sRGB">
<feFlood flood-opacity="0" result="BackgroundImageFix"/>
<feBlend mode="normal" in="SourceGraphic" in2="BackgroundImageFix" result="shape"/>
<feGaussianBlur stdDeviation="3" result="effect1_foregroundBlur_514_80"/>
</filter>
<filter id="filter8_d_514_80" x="349" y="214" width="66" height="75" filterUnits="userSpaceOnUse" color-interpolation-filters="sRGB">
<feFlood flood-opacity="0" result="BackgroundImageFix"/>
<feColorMatrix in="SourceAlpha" type="matrix" values="0 0 0 0 0 0 0 0 0 0 0 0 0 0 0 0 0 0 127 0" result="hardAlpha"/>
<feOffset dx="-4" dy="4"/>
<feGaussianBlur stdDeviation="4"/>
<feComposite in2="hardAlpha" operator="out"/>
<feColorMatrix type="matrix" values="0 0 0 0 0 0 0 0 0 0 0 0 0 0 0 0 0 0 0.07 0"/>
<feBlend mode="normal" in2="BackgroundImageFix" result="effect1_dropShadow_514_80"/>
<feBlend mode="normal" in="SourceGraphic" in2="effect1_dropShadow_514_80" result="shape"/>
</filter>
<filter id="filter9_d_514_80" x="220.703" y="296" width="66" height="75" filterUnits="userSpaceOnUse" color-interpolation-filters="sRGB">
<feFlood flood-opacity="0" result="BackgroundImageFix"/>
<feColorMatrix in="SourceAlpha" type="matrix" values="0 0 0 0 0 0 0 0 0 0 0 0 0 0 0 0 0 0 127 0" result="hardAlpha"/>
<feOffset dx="-4" dy="-4"/>
<feGaussianBlur stdDeviation="4"/>
<feComposite in2="hardAlpha" operator="out"/>
<feColorMatrix type="matrix" values="0 0 0 0 0 0 0 0 0 0 0 0 0 0 0 0 0 0 0.07 0"/>
<feBlend mode="normal" in2="BackgroundImageFix" result="effect1_dropShadow_514_80"/>
<feBlend mode="normal" in="SourceGraphic" in2="effect1_dropShadow_514_80" result="shape"/>
</filter>
<filter id="filter10_d_514_80" x="1025.7" y="119" width="66" height="75" filterUnits="userSpaceOnUse" color-interpolation-filters="sRGB">
<feFlood flood-opacity="0" result="BackgroundImageFix"/>
<feColorMatrix in="SourceAlpha" type="matrix" values="0 0 0 0 0 0 0 0 0 0 0 0 0 0 0 0 0 0 127 0" result="hardAlpha"/>
<feOffset dx="-4" dy="-4"/>
<feGaussianBlur stdDeviation="4"/>
<feComposite in2="hardAlpha" operator="out"/>
<feColorMatrix type="matrix" values="0 0 0 0 0 0 0 0 0 0 0 0 0 0 0 0 0 0 0.07 0"/>
<feBlend mode="normal" in2="BackgroundImageFix" result="effect1_dropShadow_514_80"/>
<feBlend mode="normal" in="SourceGraphic" in2="effect1_dropShadow_514_80" result="shape"/>
</filter>
<filter id="filter11_d_514_80" x="205" y="287" width="97.4062" height="110" filterUnits="userSpaceOnUse" color-interpolation-filters="sRGB">
<feFlood flood-opacity="0" result="BackgroundImageFix"/>
<feColorMatrix in="SourceAlpha" type="matrix" values="0 0 0 0 0 0 0 0 0 0 0 0 0 0 0 0 0 0 127 0" result="hardAlpha"/>
<feOffset dx="-4" dy="4"/>
<feGaussianBlur stdDeviation="4"/>
<feComposite in2="hardAlpha" operator="out"/>
<feColorMatrix type="matrix" values="0 0 0 0 0 0 0 0 0 0 0 0 0 0 0 0 0 0 0.07 0"/>
<feBlend mode="normal" in2="BackgroundImageFix" result="effect1_dropShadow_514_80"/>
<feBlend mode="normal" in="SourceGraphic" in2="effect1_dropShadow_514_80" result="shape"/>
</filter>
<filter id="filter12_d_514_80" x="1010" y="110" width="97.4062" height="110" filterUnits="userSpaceOnUse" color-interpolation-filters="sRGB">
<feFlood flood-opacity="0" result="BackgroundImageFix"/>
<feColorMatrix in="SourceAlpha" type="matrix" values="0 0 0 0 0 0 0 0 0 0 0 0 0 0 0 0 0 0 127 0" result="hardAlpha"/>
<feOffset dx="-4" dy="4"/>
<feGaussianBlur stdDeviation="4"/>
<feComposite in2="hardAlpha" operator="out"/>
<feColorMatrix type="matrix" values="0 0 0 0 0 0 0 0 0 0 0 0 0 0 0 0 0 0 0.07 0"/>
<feBlend mode="normal" in2="BackgroundImageFix" result="effect1_dropShadow_514_80"/>
<feBlend mode="normal" in="SourceGraphic" in2="effect1_dropShadow_514_80" result="shape"/>
</filter>
</defs>
</svg>
