<svg width="768" height="644" viewBox="0 0 768 644" fill="none" xmlns="http://www.w3.org/2000/svg">
<metadata><?xpacket begin="﻿" id="W5M0MpCehiHzreSzNTczkc9d"?>
<x:xmpmeta xmlns:x="adobe:ns:meta/" x:xmptk="Adobe XMP Core 5.6-c148 79.164036, 2019/08/13-01:06:57        ">
   <rdf:RDF xmlns:rdf="http://www.w3.org/1999/02/22-rdf-syntax-ns#">
      <rdf:Description rdf:about=""
            xmlns:xmp="http://ns.adobe.com/xap/1.0/"
            xmlns:xmpMM="http://ns.adobe.com/xap/1.0/mm/"
            xmlns:stEvt="http://ns.adobe.com/xap/1.0/sType/ResourceEvent#">
         <xmp:Rating>1</xmp:Rating>
         <xmp:MetadataDate>2022-07-25T09:32:27+05:00</xmp:MetadataDate>
         <xmpMM:InstanceID>xmp.iid:3fcfb901-0cb1-894a-8b9e-b8da4ca7469e</xmpMM:InstanceID>
         <xmpMM:DocumentID>xmp.did:3fcfb901-0cb1-894a-8b9e-b8da4ca7469e</xmpMM:DocumentID>
         <xmpMM:OriginalDocumentID>xmp.did:3fcfb901-0cb1-894a-8b9e-b8da4ca7469e</xmpMM:OriginalDocumentID>
         <xmpMM:History>
            <rdf:Seq>
               <rdf:li>
                  <rdf:Description>
                     <stEvt:action>saved</stEvt:action>
                     <stEvt:instanceID>xmp.iid:3fcfb901-0cb1-894a-8b9e-b8da4ca7469e</stEvt:instanceID>
                     <stEvt:when>2022-07-25T09:32:27+05:00</stEvt:when>
                     <stEvt:softwareAgent>Adobe Bridge 2020 (Windows)</stEvt:softwareAgent>
                     <stEvt:changed>/metadata</stEvt:changed>
                  </rdf:Description>
               </rdf:li>
            </rdf:Seq>
         </xmpMM:History>
      </rdf:Description>
   </rdf:RDF>
</x:xmpmeta>
                                                                                                    
                                                                                                    
                                                                                                    
                                                                                                    
                                                                                                    
                                                                                                    
                                                                                                    
                                                                                                    
                                                                                                    
                                                                                                    
                                                                                                    
                                                                                                    
                                                                                                    
                                                                                                    
                                                                                                    
                                                                                                    
                                                                                                    
                                                                                                    
                                                                                                    
                                                                                                    
                           
<?xpacket end="w"?></metadata>
<mask id="mask0_599_241" style="mask-type:alpha" maskUnits="userSpaceOnUse" x="0" y="0" width="768" height="643">
<rect width="768" height="643" fill="#98BEA0"/>
</mask>
<g mask="url(#mask0_599_241)">
<path d="M705.5 53L724.12 63V83L705.5 93L686.88 83V63L705.5 53Z" fill="#E5F2E9" fill-opacity="0.34"/>
<path d="M294.5 481L324.378 498.25V532.75L294.5 550L264.622 532.75V498.25L294.5 481Z" fill="#E5F2E9" fill-opacity="0.27"/>
<g filter="url(#filter0_f_599_241)">
<path d="M-4.5 322L21.9138 337.25V367.75L-4.5 383L-30.9138 367.75V337.25L-4.5 322Z" fill="#E5F2E9" fill-opacity="0.74"/>
</g>
<g filter="url(#filter1_f_599_241)">
<path d="M755.5 195L786.244 212.75V248.25L755.5 266L724.756 248.25V212.75L755.5 195Z" fill="#E5F2E9" fill-opacity="0.46"/>
</g>
<path d="M708 238L723.588 247.5V266.5L708 276L692.412 266.5V247.5L708 238Z" fill="#E5F2E9" fill-opacity="0.51"/>
<g filter="url(#filter2_f_599_241)">
<path d="M488.5 477L532.234 502.25V552.75L488.5 578L444.766 552.75V502.25L488.5 477Z" fill="#E5F2E9" fill-opacity="0.46"/>
</g>
<g filter="url(#filter3_f_599_241)">
<path d="M413.5 354L439.914 369.25V399.75L413.5 415L387.086 399.75V369.25L413.5 354Z" fill="#E5F2E9" fill-opacity="0.74"/>
</g>
<path d="M507.5 193L533.048 206.5V233.5L507.5 247L481.952 233.5V206.5L507.5 193Z" fill="#E5F2E9" fill-opacity="0.5"/>
<path d="M541 221L575.641 239.25V275.75L541 294L506.359 275.75V239.25L541 221Z" fill="#E5F2E9"/>
<path d="M413 260L428.588 268.25V284.75L413 293L397.412 284.75V268.25L413 260Z" fill="#E5F2E9"/>
<path d="M23 411L38.5885 419.25V435.75L23 444L7.41154 435.75V419.25L23 411Z" fill="#E5F2E9"/>
<path d="M212.375 507.219L295.188 458.781" stroke="#E5F2E9" stroke-width="4"/>
<path d="M293.625 507.219L210.812 458.781" stroke="#E5F2E9" stroke-width="4"/>
<path d="M211.699 459.155L253 435.309L294.301 459.155V506.845L253 530.691L211.699 506.845V459.155Z" stroke="#E5F2E9" stroke-width="4"/>
<path d="M483.156 614.57L555.203 572.43" stroke="#E5F2E9" stroke-width="4"/>
<path d="M553.844 614.57L481.797 572.43" stroke="#E5F2E9" stroke-width="4"/>
<path d="M482.828 572.905L518.5 552.309L554.172 572.905V614.095L518.5 634.691L482.828 614.095V572.905Z" stroke="#E5F2E9" stroke-width="4"/>
<path d="M-18.8438 572.57L53.2031 530.43" stroke="#E5F2E9" stroke-width="4"/>
<path d="M51.8438 572.57L-20.2031 530.43" stroke="#E5F2E9" stroke-width="4"/>
<path d="M-19.1721 530.905L16.5 510.309L52.1721 530.905V572.095L16.5 592.691L-19.1721 572.095V530.905Z" stroke="#E5F2E9" stroke-width="4"/>
<path d="M651.094 75.2422L704.922 43.7578" stroke="#E5F2E9" stroke-width="4"/>
<path d="M703.906 75.2422L650.078 43.7578" stroke="#E5F2E9" stroke-width="4"/>
<path d="M651.354 44.4047L677.5 29.3094L703.646 44.4047V74.5953L677.5 89.6906L651.354 74.5953V44.4047Z" stroke="#E5F2E9" stroke-width="4"/>
<path d="M704.219 248.398L741.484 226.602" stroke="#E5F2E9" stroke-width="3"/>
<path d="M740.781 248.398L703.516 226.602" stroke="#E5F2E9" stroke-width="3"/>
<path d="M704.514 227.116L722.5 216.732L740.486 227.116V247.884L722.5 258.268L704.514 247.884V227.116Z" stroke="#E5F2E9" stroke-width="3"/>
<path d="M303.821 214.606L372.5 175.188L441.179 214.606V293.394L372.5 332.812L303.821 293.394V214.606Z" stroke="#E5F2E9" stroke-width="9"/>
<path d="M439.708 173.066L439.709 185.675L376.118 222.39L365.198 216.084L365.197 203.475L428.789 166.761L439.708 173.066Z" stroke="#E5F2E9" stroke-width="5"/>
<path d="M679.06 385.429L679.061 399.485L611.259 438.631L599.087 431.602L599.086 417.545L666.888 378.4L679.06 385.429Z" stroke="#E5F2E9" stroke-width="4"/>
<path d="M418.781 379.926L418.782 391.829L360.165 425.671L349.857 419.719L349.856 407.816L408.473 373.974L418.781 379.926Z" stroke="#E5F2E9" stroke-width="4"/>
<path d="M157 356.5L241 312" stroke="#E5F2E9" stroke-width="10" stroke-linecap="round"/>
<path d="M415.774 451.579L467.227 424.421" stroke="#E5F2E9" stroke-width="10" stroke-linecap="round"/>
<path d="M579.065 318.177L613.715 299" stroke="#E5F2E9" stroke-width="10" stroke-linecap="round"/>
<line x1="759" y1="384" x2="759" y2="443" stroke="#E5F2E9" stroke-width="4" stroke-linecap="round"/>
<line x1="646" y1="558" x2="646" y2="605" stroke="#E5F2E9" stroke-width="4" stroke-linecap="round"/>
<line x1="750" y1="376" x2="750" y2="434" stroke="#E5F2E9" stroke-width="4" stroke-linecap="round"/>
<line x1="741" y1="366" x2="741" y2="426" stroke="#E5F2E9" stroke-width="4" stroke-linecap="round"/>
<line x1="732" y1="357" x2="732" y2="416" stroke="#E5F2E9" stroke-width="4" stroke-linecap="round"/>
<path d="M649 463L731 417" stroke="#E5F2E9" stroke-width="4" stroke-linecap="round"/>
<path d="M741 365L795 335" stroke="#E5F2E9" stroke-width="4" stroke-linecap="round"/>
<path d="M732 356L793 321" stroke="#E5F2E9" stroke-width="4" stroke-linecap="round"/>
<path d="M609 500L741 426" stroke="#E5F2E9" stroke-width="4" stroke-linecap="round"/>
<path d="M750 375L795 349" stroke="#E5F2E9" stroke-width="4" stroke-linecap="round"/>
<path d="M705 460L750 435" stroke="#E5F2E9" stroke-width="4" stroke-linecap="round"/>
<path d="M760 383L793 364" stroke="#E5F2E9" stroke-width="4" stroke-linecap="round"/>
<path d="M637 513L759 444" stroke="#E5F2E9" stroke-width="4" stroke-linecap="round"/>
<path d="M647 557L705 524" stroke="#E5F2E9" stroke-width="4" stroke-linecap="round"/>
<path d="M701 540L782 494" stroke="#E5F2E9" stroke-width="4" stroke-linecap="round"/>
<path d="M744 500L785 477" stroke="#E5F2E9" stroke-width="4" stroke-linecap="round"/>
<path d="M552 659L646 606" stroke="#E5F2E9" stroke-width="4" stroke-linecap="round"/>
<circle cx="644" cy="465" r="5" stroke="#E5F2E9" stroke-width="4"/>
<circle cx="605" cy="504" r="5" stroke="#E5F2E9" stroke-width="4"/>
<circle cx="545" cy="373" r="5" stroke="#E5F2E9" stroke-width="4"/>
<circle cx="361" cy="541" r="5" stroke="#E5F2E9" stroke-width="4"/>
<circle cx="263" cy="589" r="5" stroke="#E5F2E9" stroke-width="4"/>
<circle cx="700" cy="463" r="5" stroke="#E5F2E9" stroke-width="4"/>
<path d="M228 334L300 294" stroke="#E5F2E9" stroke-width="4" stroke-linecap="round"/>
<path d="M122 487L246 419" stroke="#E5F2E9" stroke-width="4" stroke-linecap="round"/>
<path d="M324 484L305 473" stroke="#E5F2E9" stroke-width="4" stroke-linecap="round"/>
<path d="M305 433L270 414" stroke="#E5F2E9" stroke-width="4" stroke-linecap="round"/>
<path d="M283 264L301 254" stroke="#E5F2E9" stroke-width="4" stroke-linecap="round"/>
<path d="M107 475L228 406" stroke="#E5F2E9" stroke-width="4" stroke-linecap="round"/>
<line x1="228" y1="334" x2="228" y2="406" stroke="#E5F2E9" stroke-width="4" stroke-linecap="round"/>
<line x1="282" y1="266" x2="282" y2="303" stroke="#E5F2E9" stroke-width="4" stroke-linecap="round"/>
<line x1="248" y1="370" x2="248" y2="417" stroke="#E5F2E9" stroke-width="4" stroke-linecap="round"/>
<path d="M185 430L228 407.205V361" stroke="#E5F2E9" stroke-width="10" stroke-linecap="round"/>
<path d="M385 592L428 569.205V523" stroke="#E5F2E9" stroke-width="10" stroke-linecap="round"/>
<path d="M255 363.5C255 366.984 251.975 370 248 370C244.025 370 241 366.984 241 363.5C241 360.016 244.025 357 248 357C251.975 357 255 360.016 255 363.5Z" stroke="#E5F2E9" stroke-width="4"/>
<path d="M714 168.5C714 171.984 710.975 175 707 175C703.025 175 700 171.984 700 168.5C700 165.016 703.025 162 707 162C710.975 162 714 165.016 714 168.5Z" stroke="#E5F2E9" stroke-width="4"/>
<g filter="url(#filter4_f_599_241)">
<path d="M614 115L642.579 131.5V164.5L614 181L585.421 164.5V131.5L614 115Z" fill="#E5F2E9" fill-opacity="0.42"/>
</g>
<g filter="url(#filter5_f_599_241)">
<path d="M294.5 137L335.636 160.75V208.25L294.5 232L253.364 208.25V160.75L294.5 137Z" fill="#E5F2E9" fill-opacity="0.42"/>
</g>
<path d="M672.694 570.405L707.5 550.309L742.306 570.405V610.595L707.5 630.691L672.694 610.595V570.405Z" fill="#E5F2E9" stroke="#E5F2E9" stroke-width="4"/>
<path d="M637.5 260L689.029 289.75V349.25L637.5 379L585.971 349.25V289.75L637.5 260Z" fill="#E5F2E9" fill-opacity="0.2"/>
<path d="M72.5 294L124.029 323.75V383.25L72.5 413L20.9715 383.25V323.75L72.5 294Z" fill="#E5F2E9" fill-opacity="0.2"/>
<path d="M680.5 334L709.512 350.75V384.25L680.5 401L651.488 384.25V350.75L680.5 334Z" fill="#E5F2E9" fill-opacity="0.35"/>
<path d="M115.5 368L144.512 384.75V418.25L115.5 435L86.4881 418.25V384.75L115.5 368Z" fill="#E5F2E9" fill-opacity="0.35"/>
<path d="M192 565L232.703 588.5V635.5L192 659L151.297 635.5V588.5L192 565Z" fill="#E5F2E9" fill-opacity="0.47"/>
<path d="M566 90L582.454 98.75V116.25L566 125L549.546 116.25V98.75L566 90Z" fill="#E5F2E9" fill-opacity="0.81"/>
<path d="M592.5 73L603.325 78.75V90.25L592.5 96L581.675 90.25V78.75L592.5 73Z" fill="#E5F2E9" fill-opacity="0.81"/>
<path d="M566.5 11L577.325 16.75V28.25L566.5 34L555.675 28.25V16.75L566.5 11Z" fill="#E5F2E9" fill-opacity="0.81"/>
<rect x="607" y="138" width="15" height="5" fill="#E5F2E9"/>
<rect x="211" y="189" width="15" height="5" fill="#E5F2E9"/>
<rect x="483" y="89" width="25" height="5" fill="#E5F2E9"/>
<rect x="470" y="115" width="20" height="5" fill="#E5F2E9"/>
<rect x="591" y="147" width="15" height="5" fill="#E5F2E9"/>
<rect x="195" y="198" width="15" height="5" fill="#E5F2E9"/>
<rect x="454" y="102" width="31" height="5" fill="#E5F2E9"/>
<path d="M428 480L524 428" stroke="#E5F2E9" stroke-width="4" stroke-linecap="round"/>
<path d="M-14 450L282 290" stroke="#E5F2E9" stroke-width="4" stroke-linecap="round"/>
<path d="M415 469L513 416" stroke="#E5F2E9" stroke-width="4" stroke-linecap="round"/>
<path d="M403 459L501 406" stroke="#E5F2E9" stroke-width="4" stroke-linecap="round"/>
<path d="M271 655L430 569" stroke="#E5F2E9" stroke-width="4" stroke-linecap="round"/>
<path d="M-17 651L120 577" stroke="#E5F2E9" stroke-width="4" stroke-linecap="round"/>
<path d="M233 657L415 559" stroke="#E5F2E9" stroke-width="4" stroke-linecap="round"/>
<path d="M-17 633L107 566" stroke="#E5F2E9" stroke-width="4" stroke-linecap="round"/>
<path d="M118 651L274 568" stroke="#E5F2E9" stroke-width="4" stroke-linecap="round"/>
<path d="M138 655L257 592" stroke="#E5F2E9" stroke-width="4" stroke-linecap="round"/>
<path d="M312 568L357 544" stroke="#E5F2E9" stroke-width="4" stroke-linecap="round"/>
<path d="M524 385L540 376" stroke="#E5F2E9" stroke-width="4" stroke-linecap="round"/>
<path d="M513 371L667 285" stroke="#E5F2E9" stroke-width="4" stroke-linecap="round"/>
<path d="M502 361L655 276" stroke="#E5F2E9" stroke-width="4" stroke-linecap="round"/>
<path d="M655 197L701 172" stroke="#E5F2E9" stroke-width="4" stroke-linecap="round"/>
<path d="M667 208L785 143" stroke="#E5F2E9" stroke-width="4" stroke-linecap="round"/>
<line x1="524" y1="385" x2="524" y2="427" stroke="#E5F2E9" stroke-width="4" stroke-linecap="round"/>
<line x1="428" y1="481" x2="428" y2="570" stroke="#E5F2E9" stroke-width="4" stroke-linecap="round"/>
<line x1="120" y1="488" x2="120" y2="577" stroke="#E5F2E9" stroke-width="4" stroke-linecap="round"/>
<line x1="415" y1="469" x2="415" y2="559" stroke="#E5F2E9" stroke-width="4" stroke-linecap="round"/>
<line x1="107" y1="476" x2="107" y2="566" stroke="#E5F2E9" stroke-width="4" stroke-linecap="round"/>
<line x1="403" y1="459" x2="403" y2="504" stroke="#E5F2E9" stroke-width="4" stroke-linecap="round"/>
<line x1="94" y1="505" x2="94" y2="550" stroke="#E5F2E9" stroke-width="4" stroke-linecap="round"/>
<line x1="305" y1="435" x2="305" y2="471" stroke="#E5F2E9" stroke-width="4" stroke-linecap="round"/>
<line x1="513" y1="372" x2="513" y2="415" stroke="#E5F2E9" stroke-width="4" stroke-linecap="round"/>
<line x1="667" y1="209" x2="667" y2="285" stroke="#E5F2E9" stroke-width="4" stroke-linecap="round"/>
<line x1="501" y1="362" x2="501" y2="405" stroke="#E5F2E9" stroke-width="4" stroke-linecap="round"/>
<line x1="655" y1="197" x2="655" y2="275" stroke="#E5F2E9" stroke-width="4" stroke-linecap="round"/>
<path d="M54 289L92 268" stroke="#E5F2E9" stroke-width="4" stroke-linecap="round"/>
<path d="M-71 383L54 315" stroke="#E5F2E9" stroke-width="4" stroke-linecap="round"/>
<path d="M-82 375L43 307" stroke="#E5F2E9" stroke-width="4" stroke-linecap="round"/>
<path d="M-100 372L43 294" stroke="#E5F2E9" stroke-width="4" stroke-linecap="round"/>
<path d="M43 283L77 264" stroke="#E5F2E9" stroke-width="4" stroke-linecap="round"/>
<line x1="43" y1="283" x2="43" y2="306" stroke="#E5F2E9" stroke-width="4" stroke-linecap="round"/>
<line x1="54" y1="291" x2="54" y2="314" stroke="#E5F2E9" stroke-width="4" stroke-linecap="round"/>
<circle cx="96" cy="265" r="5" stroke="#E5F2E9" stroke-width="4"/>
<circle cx="164" cy="254" r="5" stroke="#E5F2E9" stroke-width="4"/>
<g filter="url(#filter6_d_599_241)">
<path fill-rule="evenodd" clip-rule="evenodd" d="M741.887 594.619L729 602.059V616.941L741.887 624.381L754.775 616.941V602.059L741.887 594.619ZM758.775 599.75L741.887 590L725 599.75V619.25L741.887 629L758.775 619.25V599.75Z" fill="#E5F2E9"/>
</g>
<path d="M170.014 265.405L187.5 255.309L204.986 265.405V285.595L187.5 295.691L170.014 285.595V265.405Z" stroke="#E5F2E9" stroke-width="4"/>
<line x1="274" y1="568" x2="311" y2="568" stroke="#E5F2E9" stroke-width="4" stroke-linecap="round"/>
</g>
<mask id="mask1_599_241" style="mask-type:alpha" maskUnits="userSpaceOnUse" x="0" y="426" width="768" height="218">
<path d="M0.000502321 426L768 426L768 644H0L0.000502321 426Z" fill="#99BFA1"/>
</mask>
<g mask="url(#mask1_599_241)">
<path d="M0.000502321 426L768 426L768 644H0L0.000502321 426Z" fill="#99BFA1"/>
<rect y="426" width="768" height="217" fill="url(#paint0_linear_599_241)"/>
<path d="M294.5 481L324.378 498.25V532.75L294.5 550L264.622 532.75V498.25L294.5 481Z" fill="#A7CDB0" fill-opacity="0.27"/>
<g filter="url(#filter7_f_599_241)">
<path d="M488.5 477L532.234 502.25V552.75L488.5 578L444.766 552.75V502.25L488.5 477Z" fill="#ABCFB3" fill-opacity="0.46"/>
</g>
<path d="M23 411L38.5885 419.25V435.75L23 444L7.41154 435.75V419.25L23 411Z" fill="#A7CDB0"/>
<path d="M212.375 507.219L295.188 458.781" stroke="#A7CDB0" stroke-width="4"/>
<path d="M293.625 507.219L210.812 458.781" stroke="#A7CDB0" stroke-width="4"/>
<path d="M211.699 459.155L253 435.309L294.301 459.155V506.845L253 530.691L211.699 506.845V459.155Z" stroke="#A7CDB0" stroke-width="4"/>
<path d="M483.156 614.57L555.203 572.43" stroke="#A7CDB0" stroke-width="4"/>
<path d="M553.844 614.57L481.797 572.43" stroke="#A7CDB0" stroke-width="4"/>
<path d="M482.828 572.905L518.5 552.309L554.172 572.905V614.095L518.5 634.691L482.828 614.095V572.905Z" stroke="#A7CDB0" stroke-width="4"/>
<path d="M-18.8438 572.57L53.2031 530.43" stroke="#A7CDB0" stroke-width="4"/>
<path d="M51.8438 572.57L-20.2031 530.43" stroke="#A7CDB0" stroke-width="4"/>
<path d="M-19.1721 530.905L16.5 510.309L52.1721 530.905V572.095L16.5 592.691L-19.1721 572.095V530.905Z" stroke="#A7CDB0" stroke-width="4"/>
<path d="M679.06 385.429L679.061 399.485L611.259 438.631L599.087 431.602L599.086 417.545L666.888 378.4L679.06 385.429Z" stroke="#A7CDB0" stroke-width="4"/>
<path d="M418.781 379.926L418.782 391.829L360.165 425.671L349.857 419.719L349.856 407.816L408.473 373.974L418.781 379.926Z" stroke="#A7CDB0" stroke-width="4"/>
<path d="M415.774 451.579L467.227 424.421" stroke="#A7CDB0" stroke-width="10" stroke-linecap="round"/>
<line x1="759" y1="384" x2="759" y2="443" stroke="#A7CDB0" stroke-width="4" stroke-linecap="round"/>
<line x1="646" y1="558" x2="646" y2="605" stroke="#A7CDB0" stroke-width="4" stroke-linecap="round"/>
<line x1="750" y1="376" x2="750" y2="434" stroke="#A7CDB0" stroke-width="4" stroke-linecap="round"/>
<line x1="741" y1="366" x2="741" y2="426" stroke="#A7CDB0" stroke-width="4" stroke-linecap="round"/>
<path d="M649 463L731 417" stroke="#A7CDB0" stroke-width="4" stroke-linecap="round"/>
<path d="M609 500L741 426" stroke="#A7CDB0" stroke-width="4" stroke-linecap="round"/>
<path d="M705 460L750 435" stroke="#A7CDB0" stroke-width="4" stroke-linecap="round"/>
<path d="M637 513L759 444" stroke="#A7CDB0" stroke-width="4" stroke-linecap="round"/>
<path d="M647 557L705 524" stroke="#A7CDB0" stroke-width="4" stroke-linecap="round"/>
<path d="M701 540L782 494" stroke="#A7CDB0" stroke-width="4" stroke-linecap="round"/>
<path d="M744 500L785 477" stroke="#A7CDB0" stroke-width="4" stroke-linecap="round"/>
<path d="M552 659L646 606" stroke="#A7CDB0" stroke-width="4" stroke-linecap="round"/>
<circle cx="644" cy="465" r="5" stroke="#A7CDB0" stroke-width="4"/>
<circle cx="605" cy="504" r="5" stroke="#A7CDB0" stroke-width="4"/>
<circle cx="361" cy="541" r="5" stroke="#A7CDB0" stroke-width="4"/>
<circle cx="263" cy="589" r="5" stroke="#A7CDB0" stroke-width="4"/>
<circle cx="700" cy="463" r="5" stroke="#A7CDB0" stroke-width="4"/>
<path d="M122 487L246 419" stroke="#A7CDB0" stroke-width="4" stroke-linecap="round"/>
<path d="M324 484L305 473" stroke="#A7CDB0" stroke-width="4" stroke-linecap="round"/>
<path d="M305 433L270 414" stroke="#A7CDB0" stroke-width="4" stroke-linecap="round"/>
<path d="M107 475L228 406" stroke="#A7CDB0" stroke-width="4" stroke-linecap="round"/>
<path d="M185 430L228 407.205V361" stroke="#A7CDB0" stroke-width="10" stroke-linecap="round"/>
<path d="M385 592L428 569.205V523" stroke="#A7CDB0" stroke-width="10" stroke-linecap="round"/>
<path d="M672.694 570.405L707.5 550.309L742.306 570.405V610.595L707.5 630.691L672.694 610.595V570.405Z" fill="#A7CDB0" stroke="#A7CDB0" stroke-width="4"/>
<path d="M115.5 368L144.512 384.75V418.25L115.5 435L86.4881 418.25V384.75L115.5 368Z" fill="#A7CDB0" fill-opacity="0.35"/>
<path d="M192 565L232.703 588.5V635.5L192 659L151.297 635.5V588.5L192 565Z" fill="#A7CDB0" fill-opacity="0.47"/>
<path d="M428 480L524 428" stroke="#A7CDB0" stroke-width="4" stroke-linecap="round"/>
<path d="M415 469L513 416" stroke="#A7CDB0" stroke-width="4" stroke-linecap="round"/>
<path d="M403 459L501 406" stroke="#A7CDB0" stroke-width="4" stroke-linecap="round"/>
<path d="M271 655L430 569" stroke="#A7CDB0" stroke-width="4" stroke-linecap="round"/>
<path d="M-17 651L120 577" stroke="#A7CDB0" stroke-width="4" stroke-linecap="round"/>
<path d="M233 657L415 559" stroke="#A7CDB0" stroke-width="4" stroke-linecap="round"/>
<path d="M-17 633L107 566" stroke="#A7CDB0" stroke-width="4" stroke-linecap="round"/>
<path d="M118 651L274 568" stroke="#A7CDB0" stroke-width="4" stroke-linecap="round"/>
<path d="M138 655L257 592" stroke="#A7CDB0" stroke-width="4" stroke-linecap="round"/>
<path d="M312 568L357 544" stroke="#A7CDB0" stroke-width="4" stroke-linecap="round"/>
<line x1="524" y1="385" x2="524" y2="427" stroke="#A7CDB0" stroke-width="4" stroke-linecap="round"/>
<line x1="428" y1="481" x2="428" y2="570" stroke="#A7CDB0" stroke-width="4" stroke-linecap="round"/>
<line x1="120" y1="488" x2="120" y2="577" stroke="#A7CDB0" stroke-width="4" stroke-linecap="round"/>
<line x1="415" y1="469" x2="415" y2="559" stroke="#A7CDB0" stroke-width="4" stroke-linecap="round"/>
<line x1="107" y1="476" x2="107" y2="566" stroke="#A7CDB0" stroke-width="4" stroke-linecap="round"/>
<line x1="403" y1="459" x2="403" y2="504" stroke="#A7CDB0" stroke-width="4" stroke-linecap="round"/>
<line x1="94" y1="505" x2="94" y2="550" stroke="#A7CDB0" stroke-width="4" stroke-linecap="round"/>
<line x1="305" y1="435" x2="305" y2="471" stroke="#A7CDB0" stroke-width="4" stroke-linecap="round"/>
<g filter="url(#filter8_d_599_241)">
<path fill-rule="evenodd" clip-rule="evenodd" d="M741.887 594.619L729 602.059V616.941L741.887 624.381L754.775 616.941V602.059L741.887 594.619ZM758.775 599.75L741.887 590L725 599.75V619.25L741.887 629L758.775 619.25V599.75Z" fill="#A7CDB0"/>
</g>
<line x1="274" y1="568" x2="311" y2="568" stroke="#A7CDB0" stroke-width="4" stroke-linecap="round"/>
</g>
<defs>
<filter id="filter0_f_599_241" x="-38.9141" y="314" width="68.8281" height="77" filterUnits="userSpaceOnUse" color-interpolation-filters="sRGB">
<feFlood flood-opacity="0" result="BackgroundImageFix"/>
<feBlend mode="normal" in="SourceGraphic" in2="BackgroundImageFix" result="shape"/>
<feGaussianBlur stdDeviation="4" result="effect1_foregroundBlur_599_241"/>
</filter>
<filter id="filter1_f_599_241" x="720.756" y="191" width="69.4883" height="79" filterUnits="userSpaceOnUse" color-interpolation-filters="sRGB">
<feFlood flood-opacity="0" result="BackgroundImageFix"/>
<feBlend mode="normal" in="SourceGraphic" in2="BackgroundImageFix" result="shape"/>
<feGaussianBlur stdDeviation="2" result="effect1_foregroundBlur_599_241"/>
</filter>
<filter id="filter2_f_599_241" x="436.766" y="469" width="103.469" height="117" filterUnits="userSpaceOnUse" color-interpolation-filters="sRGB">
<feFlood flood-opacity="0" result="BackgroundImageFix"/>
<feBlend mode="normal" in="SourceGraphic" in2="BackgroundImageFix" result="shape"/>
<feGaussianBlur stdDeviation="4" result="effect1_foregroundBlur_599_241"/>
</filter>
<filter id="filter3_f_599_241" x="379.086" y="346" width="68.8281" height="77" filterUnits="userSpaceOnUse" color-interpolation-filters="sRGB">
<feFlood flood-opacity="0" result="BackgroundImageFix"/>
<feBlend mode="normal" in="SourceGraphic" in2="BackgroundImageFix" result="shape"/>
<feGaussianBlur stdDeviation="4" result="effect1_foregroundBlur_599_241"/>
</filter>
<filter id="filter4_f_599_241" x="577.422" y="107" width="73.1562" height="82" filterUnits="userSpaceOnUse" color-interpolation-filters="sRGB">
<feFlood flood-opacity="0" result="BackgroundImageFix"/>
<feBlend mode="normal" in="SourceGraphic" in2="BackgroundImageFix" result="shape"/>
<feGaussianBlur stdDeviation="4" result="effect1_foregroundBlur_599_241"/>
</filter>
<filter id="filter5_f_599_241" x="245.363" y="129" width="98.2734" height="111" filterUnits="userSpaceOnUse" color-interpolation-filters="sRGB">
<feFlood flood-opacity="0" result="BackgroundImageFix"/>
<feBlend mode="normal" in="SourceGraphic" in2="BackgroundImageFix" result="shape"/>
<feGaussianBlur stdDeviation="4" result="effect1_foregroundBlur_599_241"/>
</filter>
<filter id="filter6_d_599_241" x="714" y="587" width="47.7754" height="53" filterUnits="userSpaceOnUse" color-interpolation-filters="sRGB">
<feFlood flood-opacity="0" result="BackgroundImageFix"/>
<feColorMatrix in="SourceAlpha" type="matrix" values="0 0 0 0 0 0 0 0 0 0 0 0 0 0 0 0 0 0 127 0" result="hardAlpha"/>
<feOffset dx="-4" dy="4"/>
<feGaussianBlur stdDeviation="3.5"/>
<feComposite in2="hardAlpha" operator="out"/>
<feColorMatrix type="matrix" values="0 0 0 0 0 0 0 0 0 0 0 0 0 0 0 0 0 0 0.08 0"/>
<feBlend mode="normal" in2="BackgroundImageFix" result="effect1_dropShadow_599_241"/>
<feBlend mode="normal" in="SourceGraphic" in2="effect1_dropShadow_599_241" result="shape"/>
</filter>
<filter id="filter7_f_599_241" x="436.766" y="469" width="103.469" height="117" filterUnits="userSpaceOnUse" color-interpolation-filters="sRGB">
<feFlood flood-opacity="0" result="BackgroundImageFix"/>
<feBlend mode="normal" in="SourceGraphic" in2="BackgroundImageFix" result="shape"/>
<feGaussianBlur stdDeviation="4" result="effect1_foregroundBlur_599_241"/>
</filter>
<filter id="filter8_d_599_241" x="714" y="587" width="47.7754" height="53" filterUnits="userSpaceOnUse" color-interpolation-filters="sRGB">
<feFlood flood-opacity="0" result="BackgroundImageFix"/>
<feColorMatrix in="SourceAlpha" type="matrix" values="0 0 0 0 0 0 0 0 0 0 0 0 0 0 0 0 0 0 127 0" result="hardAlpha"/>
<feOffset dx="-4" dy="4"/>
<feGaussianBlur stdDeviation="3.5"/>
<feComposite in2="hardAlpha" operator="out"/>
<feColorMatrix type="matrix" values="0 0 0 0 0 0 0 0 0 0 0 0 0 0 0 0 0 0 0.08 0"/>
<feBlend mode="normal" in2="BackgroundImageFix" result="effect1_dropShadow_599_241"/>
<feBlend mode="normal" in="SourceGraphic" in2="effect1_dropShadow_599_241" result="shape"/>
</filter>
<linearGradient id="paint0_linear_599_241" x1="384.2" y1="426" x2="383.309" y2="642.997" gradientUnits="userSpaceOnUse">
<stop stop-color="#99BFA1"/>
<stop offset="1" stop-color="#83A58A" stop-opacity="0.15"/>
</linearGradient>
</defs>
</svg>
