<svg width="480" height="893" viewBox="0 0 480 893" fill="none" xmlns="http://www.w3.org/2000/svg">
<metadata><?xpacket begin="﻿" id="W5M0MpCehiHzreSzNTczkc9d"?>
<x:xmpmeta xmlns:x="adobe:ns:meta/" x:xmptk="Adobe XMP Core 5.6-c148 79.164036, 2019/08/13-01:06:57        ">
   <rdf:RDF xmlns:rdf="http://www.w3.org/1999/02/22-rdf-syntax-ns#">
      <rdf:Description rdf:about=""
            xmlns:xmp="http://ns.adobe.com/xap/1.0/"
            xmlns:xmpMM="http://ns.adobe.com/xap/1.0/mm/"
            xmlns:stEvt="http://ns.adobe.com/xap/1.0/sType/ResourceEvent#">
         <xmp:Rating>1</xmp:Rating>
         <xmp:MetadataDate>2022-07-25T09:32:26+05:00</xmp:MetadataDate>
         <xmpMM:InstanceID>xmp.iid:303068fd-ba30-694e-9206-5ea6c43d3ff4</xmpMM:InstanceID>
         <xmpMM:DocumentID>xmp.did:303068fd-ba30-694e-9206-5ea6c43d3ff4</xmpMM:DocumentID>
         <xmpMM:OriginalDocumentID>xmp.did:303068fd-ba30-694e-9206-5ea6c43d3ff4</xmpMM:OriginalDocumentID>
         <xmpMM:History>
            <rdf:Seq>
               <rdf:li>
                  <rdf:Description>
                     <stEvt:action>saved</stEvt:action>
                     <stEvt:instanceID>xmp.iid:303068fd-ba30-694e-9206-5ea6c43d3ff4</stEvt:instanceID>
                     <stEvt:when>2022-07-25T09:32:26+05:00</stEvt:when>
                     <stEvt:softwareAgent>Adobe Bridge 2020 (Windows)</stEvt:softwareAgent>
                     <stEvt:changed>/metadata</stEvt:changed>
                  </rdf:Description>
               </rdf:li>
            </rdf:Seq>
         </xmpMM:History>
      </rdf:Description>
   </rdf:RDF>
</x:xmpmeta>
                                                                                                    
                                                                                                    
                                                                                                    
                                                                                                    
                                                                                                    
                                                                                                    
                                                                                                    
                                                                                                    
                                                                                                    
                                                                                                    
                                                                                                    
                                                                                                    
                                                                                                    
                                                                                                    
                                                                                                    
                                                                                                    
                                                                                                    
                                                                                                    
                                                                                                    
                                                                                                    
                           
<?xpacket end="w"?></metadata>
<mask id="mask0_598_238" style="mask-type:alpha" maskUnits="userSpaceOnUse" x="0" y="0" width="480" height="893">
<rect width="480" height="893" fill="#98BEA0"/>
</mask>
<g mask="url(#mask0_598_238)">
<path d="M234.5 576L264.378 593.25V627.75L234.5 645L204.622 627.75V593.25L234.5 576Z" fill="#E5F2E9" fill-opacity="0.27"/>
<g filter="url(#filter0_f_598_238)">
<path d="M167.5 292L193.914 307.25V337.75L167.5 353L141.086 337.75V307.25L167.5 292Z" fill="#E5F2E9" fill-opacity="0.74"/>
</g>
<g filter="url(#filter1_f_598_238)">
<path d="M270.5 201L288.254 211.25V231.75L270.5 242L252.746 231.75V211.25L270.5 201Z" fill="#E5F2E9" fill-opacity="0.46"/>
</g>
<path d="M318 34L333.588 43.5V62.5L318 72L302.412 62.5V43.5L318 34Z" fill="#E5F2E9" fill-opacity="0.51"/>
<g filter="url(#filter2_f_598_238)">
<path d="M428.5 572L472.234 597.25V647.75L428.5 673L384.766 647.75V597.25L428.5 572Z" fill="#E5F2E9" fill-opacity="0.46"/>
</g>
<g filter="url(#filter3_f_598_238)">
<path d="M353.5 449L379.914 464.25V494.75L353.5 510L327.086 494.75V464.25L353.5 449Z" fill="#E5F2E9" fill-opacity="0.74"/>
</g>
<path d="M447.5 288L473.048 301.5V328.5L447.5 342L421.952 328.5V301.5L447.5 288Z" fill="#E5F2E9" fill-opacity="0.5"/>
<path d="M481 316L515.641 334.25V370.75L481 389L446.359 370.75V334.25L481 316Z" fill="#E5F2E9"/>
<path d="M353 355L368.588 363.25V379.75L353 388L337.412 379.75V363.25L353 355Z" fill="#E5F2E9"/>
<path d="M152.375 602.219L235.188 553.781" stroke="#E5F2E9" stroke-width="4"/>
<path d="M233.625 602.219L150.812 553.781" stroke="#E5F2E9" stroke-width="4"/>
<path d="M151.699 554.155L193 530.309L234.301 554.155V601.845L193 625.691L151.699 601.845V554.155Z" stroke="#E5F2E9" stroke-width="4"/>
<path d="M423.156 709.57L495.203 667.43" stroke="#E5F2E9" stroke-width="4"/>
<path d="M493.844 709.57L421.797 667.43" stroke="#E5F2E9" stroke-width="4"/>
<path d="M422.828 667.905L458.5 647.309L494.172 667.905V709.095L458.5 729.691L422.828 709.095V667.905Z" stroke="#E5F2E9" stroke-width="4"/>
<path d="M243.821 309.606L312.5 270.188L381.179 309.606V388.394L312.5 427.812L243.821 388.394V309.606Z" stroke="#E5F2E9" stroke-width="9"/>
<path d="M379.708 268.066L379.709 280.675L316.118 317.39L305.198 311.084L305.197 298.475L368.789 261.761L379.708 268.066Z" stroke="#E5F2E9" stroke-width="5"/>
<path d="M358.781 474.926L358.782 486.829L300.165 520.671L289.857 514.719L289.856 502.816L348.473 468.974L358.781 474.926Z" stroke="#E5F2E9" stroke-width="4"/>
<path d="M355.774 546.579L407.227 519.421" stroke="#E5F2E9" stroke-width="10" stroke-linecap="round"/>
<path d="M376 87L529 1" stroke="#E5F2E9" stroke-opacity="0.53" stroke-width="4" stroke-linecap="round"/>
<path d="M337 124L532 15" stroke="#E5F2E9" stroke-opacity="0.53" stroke-width="4" stroke-linecap="round"/>
<path d="M477 -0.999999L522 -27" stroke="#E5F2E9" stroke-opacity="0.53" stroke-width="4" stroke-linecap="round"/>
<path d="M432 84L508 42" stroke="#E5F2E9" stroke-opacity="0.53" stroke-width="4" stroke-linecap="round"/>
<circle cx="371" cy="89" r="5" stroke="#E5F2E9" stroke-opacity="0.53" stroke-width="4"/>
<circle cx="332" cy="128" r="5" stroke="#E5F2E9" stroke-opacity="0.53" stroke-width="4"/>
<circle cx="485" cy="468" r="5" stroke="#E5F2E9" stroke-width="4"/>
<circle cx="301" cy="636" r="5" stroke="#E5F2E9" stroke-width="4"/>
<circle cx="203" cy="684" r="5" stroke="#E5F2E9" stroke-width="4"/>
<circle cx="427" cy="87" r="5" stroke="#E5F2E9" stroke-opacity="0.53" stroke-width="4"/>
<path d="M168 429L240 389" stroke="#E5F2E9" stroke-width="4" stroke-linecap="round"/>
<path d="M62 582L186 514" stroke="#E5F2E9" stroke-width="4" stroke-linecap="round"/>
<path d="M312 447L266 421" stroke="#E5F2E9" stroke-width="4" stroke-linecap="round"/>
<path d="M294 449L266 433" stroke="#E5F2E9" stroke-width="4" stroke-linecap="round"/>
<path d="M438 349L422 340" stroke="#E5F2E9" stroke-width="4" stroke-linecap="round"/>
<path d="M264 579L245 568" stroke="#E5F2E9" stroke-width="4" stroke-linecap="round"/>
<path d="M312 447L338 432" stroke="#E5F2E9" stroke-width="4" stroke-linecap="round"/>
<path d="M223 359L241 349" stroke="#E5F2E9" stroke-width="4" stroke-linecap="round"/>
<path d="M47 570L168 501" stroke="#E5F2E9" stroke-width="4" stroke-linecap="round"/>
<line x1="168" y1="429" x2="168" y2="501" stroke="#E5F2E9" stroke-width="4" stroke-linecap="round"/>
<line x1="222" y1="361" x2="222" y2="398" stroke="#E5F2E9" stroke-width="4" stroke-linecap="round"/>
<line x1="188" y1="465" x2="188" y2="512" stroke="#E5F2E9" stroke-width="4" stroke-linecap="round"/>
<path d="M125 525L168 502.205V456" stroke="#E5F2E9" stroke-width="10" stroke-linecap="round"/>
<path d="M325 687L368 664.205V618" stroke="#E5F2E9" stroke-width="10" stroke-linecap="round"/>
<path d="M195 458.5C195 461.984 191.975 465 188 465C184.025 465 181 461.984 181 458.5C181 455.016 184.025 452 188 452C191.975 452 195 455.016 195 458.5Z" stroke="#E5F2E9" stroke-width="4"/>
<path fill-rule="evenodd" clip-rule="evenodd" d="M245 168.25L222.5 155L200 168.25V194.75L222.5 208L245 194.75V168.25Z" fill="#E5F2E9" fill-opacity="0.8"/>
<path fill-rule="evenodd" clip-rule="evenodd" d="M222.5 145.931L191.39 163.965V200.035L222.5 218.069L253.61 200.035V163.965L222.5 145.931ZM257 162L222.5 142L188 162V202L222.5 222L257 202V162Z" fill="#E5F2E9" fill-opacity="0.8"/>
<path d="M479.5 112L531.029 141.75V201.25L479.5 231L427.971 201.25V141.75L479.5 112Z" fill="#E5F2E9" fill-opacity="0.47"/>
<path d="M12.5 389L64.0285 418.75V478.25L12.5 508L-39.0285 478.25V418.75L12.5 389Z" fill="#E5F2E9" fill-opacity="0.2"/>
<path d="M55.5 463L84.5118 479.75V513.25L55.5 530L26.4881 513.25V479.75L55.5 463Z" fill="#E5F2E9" fill-opacity="0.35"/>
<path d="M132 660L172.703 683.5V730.5L132 754L91.2968 730.5V683.5L132 660Z" fill="#E5F2E9" fill-opacity="0.47"/>
<path d="M70.5 93L85.6554 101.5V118.5L70.5 127L55.3446 118.5V101.5L70.5 93Z" fill="#E5F2E9" fill-opacity="0.53"/>
<path d="M103 164L122.919 175.5V198.5L103 210L83.0814 198.5V175.5L103 164Z" fill="#E5F2E9" fill-opacity="0.53"/>
<rect x="31" y="81" width="15" height="5" fill="#E5F2E9" fill-opacity="0.57"/>
<rect x="420" y="193" width="25" height="5" fill="#E5F2E9"/>
<rect x="407" y="219" width="20" height="5" fill="#E5F2E9"/>
<rect x="15" y="90" width="15" height="5" fill="#E5F2E9" fill-opacity="0.57"/>
<rect x="391" y="206" width="31" height="5" fill="#E5F2E9"/>
<path d="M368 575L464 523" stroke="#E5F2E9" stroke-width="4" stroke-linecap="round"/>
<path d="M355 564L453 511" stroke="#E5F2E9" stroke-width="4" stroke-linecap="round"/>
<path d="M343 554L441 501" stroke="#E5F2E9" stroke-width="4" stroke-linecap="round"/>
<path d="M211 750L370 664" stroke="#E5F2E9" stroke-width="4" stroke-linecap="round"/>
<path d="M-77 746L60 672" stroke="#E5F2E9" stroke-width="4" stroke-linecap="round"/>
<path d="M173 752L355 654" stroke="#E5F2E9" stroke-width="4" stroke-linecap="round"/>
<path d="M-77 728L47 661" stroke="#E5F2E9" stroke-width="4" stroke-linecap="round"/>
<path d="M58 746L214 663" stroke="#E5F2E9" stroke-width="4" stroke-linecap="round"/>
<path d="M78 750L197 687" stroke="#E5F2E9" stroke-width="4" stroke-linecap="round"/>
<path d="M252 663L297 639" stroke="#E5F2E9" stroke-width="4" stroke-linecap="round"/>
<path d="M464 480L480 471" stroke="#E5F2E9" stroke-width="4" stroke-linecap="round"/>
<path d="M453 466L607 380" stroke="#E5F2E9" stroke-width="4" stroke-linecap="round"/>
<path d="M442 456L595 371" stroke="#E5F2E9" stroke-width="4" stroke-linecap="round"/>
<line x1="464" y1="480" x2="464" y2="522" stroke="#E5F2E9" stroke-width="4" stroke-linecap="round"/>
<line x1="368" y1="576" x2="368" y2="665" stroke="#E5F2E9" stroke-width="4" stroke-linecap="round"/>
<line x1="60" y1="583" x2="60" y2="672" stroke="#E5F2E9" stroke-width="4" stroke-linecap="round"/>
<line x1="355" y1="564" x2="355" y2="654" stroke="#E5F2E9" stroke-width="4" stroke-linecap="round"/>
<line x1="47" y1="571" x2="47" y2="661" stroke="#E5F2E9" stroke-width="4" stroke-linecap="round"/>
<line x1="343" y1="554" x2="343" y2="599" stroke="#E5F2E9" stroke-width="4" stroke-linecap="round"/>
<line x1="34" y1="600" x2="34" y2="645" stroke="#E5F2E9" stroke-width="4" stroke-linecap="round"/>
<line x1="245" y1="530" x2="245" y2="566" stroke="#E5F2E9" stroke-width="4" stroke-linecap="round"/>
<line x1="438" y1="350" x2="438" y2="388" stroke="#E5F2E9" stroke-width="4" stroke-linecap="round"/>
<line x1="453" y1="467" x2="453" y2="510" stroke="#E5F2E9" stroke-width="4" stroke-linecap="round"/>
<line x1="441" y1="457" x2="441" y2="500" stroke="#E5F2E9" stroke-width="4" stroke-linecap="round"/>
<path d="M100 294L138 273" stroke="#E5F2E9" stroke-width="4" stroke-linecap="round"/>
<path d="M39 352L100 319" stroke="#E5F2E9" stroke-width="4" stroke-linecap="round"/>
<path d="M-65 478L39 421" stroke="#E5F2E9" stroke-width="4" stroke-linecap="round"/>
<path d="M-63 459L27 411" stroke="#E5F2E9" stroke-width="4" stroke-linecap="round"/>
<path d="M28 344L89 311" stroke="#E5F2E9" stroke-width="4" stroke-linecap="round"/>
<path d="M-17 356L88 298" stroke="#E5F2E9" stroke-width="4" stroke-linecap="round"/>
<path d="M89 288L123 269" stroke="#E5F2E9" stroke-width="4" stroke-linecap="round"/>
<line x1="89" y1="288" x2="89" y2="311" stroke="#E5F2E9" stroke-width="4" stroke-linecap="round"/>
<line x1="100" y1="296" x2="100" y2="319" stroke="#E5F2E9" stroke-width="4" stroke-linecap="round"/>
<line x1="28" y1="344" x2="28" y2="410" stroke="#E5F2E9" stroke-width="4" stroke-linecap="round"/>
<line x1="39" y1="353" x2="39" y2="420" stroke="#E5F2E9" stroke-width="4" stroke-linecap="round"/>
<circle cx="142" cy="270" r="5" stroke="#E5F2E9" stroke-width="4"/>
<circle cx="40" cy="221" r="5" stroke="#E5F2E9" stroke-width="4"/>
<path d="M-2.98557 472.405L14.5 462.309L31.9856 472.405V492.595L14.5 502.691L-2.98557 492.595V472.405Z" stroke="#E5F2E9" stroke-width="4"/>
<line x1="214" y1="663" x2="251" y2="663" stroke="#E5F2E9" stroke-width="4" stroke-linecap="round"/>
</g>
<mask id="mask1_598_238" style="mask-type:alpha" maskUnits="userSpaceOnUse" x="0" y="525" width="480" height="368">
<path d="M0.000313951 525.001L480 525L480 893H0L0.000313951 525.001Z" fill="#99BFA1"/>
</mask>
<g mask="url(#mask1_598_238)">
<path d="M-59.9995 525.001L708 525L708 893H-60L-59.9995 525.001Z" fill="#99BFA1"/>
<rect x="-60" y="521" width="768" height="372" fill="url(#paint0_linear_598_238)"/>
<path d="M234.5 576L264.378 593.25V627.75L234.5 645L204.622 627.75V593.25L234.5 576Z" fill="#A7CDB0" fill-opacity="0.27"/>
<g filter="url(#filter4_f_598_238)">
<path d="M428.5 572L472.234 597.25V647.75L428.5 673L384.766 647.75V597.25L428.5 572Z" fill="#ABCFB3" fill-opacity="0.46"/>
</g>
<path d="M149.375 617.219L232.188 568.781" stroke="#A7CDB0" stroke-width="4"/>
<path d="M230.625 617.219L147.812 568.781" stroke="#A7CDB0" stroke-width="4"/>
<path d="M148.699 569.155L190 545.309L231.301 569.155V616.845L190 640.691L148.699 616.845V569.155Z" stroke="#A7CDB0" stroke-width="4"/>
<path d="M285.625 774.531L335.313 745.469" stroke="#A7CDB0" stroke-width="4"/>
<path d="M334.375 774.531L284.687 745.469" stroke="#A7CDB0" stroke-width="4"/>
<path d="M286.019 746.155L310 732.309L333.981 746.155V773.845L310 787.691L286.019 773.845V746.155Z" stroke="#A7CDB0" stroke-width="4"/>
<path d="M196.188 874.984L250.844 843.016" stroke="#A7CDB0" stroke-width="4"/>
<path d="M249.812 874.984L195.156 843.016" stroke="#A7CDB0" stroke-width="4"/>
<path d="M196.421 843.655L223 828.309L249.579 843.655V874.345L223 889.691L196.421 874.345V843.655Z" stroke="#A7CDB0" stroke-width="4"/>
<path d="M-38.8438 650.57L33.2031 608.43" stroke="#A7CDB0" stroke-width="4"/>
<path d="M31.8438 650.57L-40.2031 608.43" stroke="#A7CDB0" stroke-width="4"/>
<path d="M-39.1721 608.905L-3.5 588.309L32.1721 608.905V650.095L-3.5 670.691L-39.1721 650.095V608.905Z" stroke="#A7CDB0" stroke-width="4"/>
<path d="M519.673 659.439L519.484 673.605L449.466 714.03L437.103 707.111L437.292 692.945L507.31 652.52L519.673 659.439Z" stroke="#A7CDB0" stroke-width="4"/>
<path d="M461.673 860.439L461.484 874.605L391.466 915.03L379.103 908.111L379.292 893.945L449.31 853.52L461.673 860.439Z" stroke="#A7CDB0" stroke-width="4"/>
<path d="M358.781 474.926L358.782 486.829L300.165 520.671L289.857 514.719L289.856 502.816L348.473 468.974L358.781 474.926Z" stroke="#A7CDB0" stroke-width="4"/>
<path d="M355.774 546.579L407.227 519.421" stroke="#A7CDB0" stroke-width="10" stroke-linecap="round"/>
<circle cx="301" cy="636" r="5" stroke="#A7CDB0" stroke-width="4"/>
<circle cx="203" cy="684" r="5" stroke="#A7CDB0" stroke-width="4"/>
<circle cx="378" cy="862" r="5" stroke="#A7CDB0" stroke-width="4"/>
<path d="M62 582L186 514" stroke="#A7CDB0" stroke-width="4" stroke-linecap="round"/>
<path d="M264 609L245 598" stroke="#A7CDB0" stroke-width="4" stroke-linecap="round"/>
<path d="M245 558L210 539" stroke="#A7CDB0" stroke-width="4" stroke-linecap="round"/>
<path d="M47 570L168 501" stroke="#A7CDB0" stroke-width="4" stroke-linecap="round"/>
<path d="M125 525L168 502.205V456" stroke="#A7CDB0" stroke-width="10" stroke-linecap="round"/>
<path d="M325 687L368 664.205V618" stroke="#A7CDB0" stroke-width="10" stroke-linecap="round"/>
<path d="M369.694 762.405L404.5 742.309L439.306 762.405V802.595L404.5 822.691L369.694 802.595V762.405Z" fill="#A7CDB0" stroke="#A7CDB0" stroke-width="4"/>
<path d="M78.8997 797.905L121.5 773.309L164.1 797.905V847.095L121.5 871.691L78.8997 847.095V797.905Z" fill="#A7CDB0" stroke="#A7CDB0" stroke-width="4"/>
<path d="M460 576L478.187 586.5V607.5L460 618L441.813 607.5V586.5L460 576Z" fill="#A7CDB0" fill-opacity="0.73"/>
<path d="M71 872L89.1865 882.5V903.5L71 914L52.8135 903.5V882.5L71 872Z" fill="#A7CDB0" fill-opacity="0.73"/>
<path d="M305 808L326.651 820.5V845.5L305 858L283.349 845.5V820.5L305 808Z" fill="#A7CDB0" fill-opacity="0.54"/>
<path d="M55.5 463L84.5118 479.75V513.25L55.5 530L26.4881 513.25V479.75L55.5 463Z" fill="#A7CDB0" fill-opacity="0.35"/>
<path d="M132 660L172.703 683.5V730.5L132 754L91.2968 730.5V683.5L132 660Z" fill="#A7CDB0" fill-opacity="0.47"/>
<path d="M368 575L464 523" stroke="#A7CDB0" stroke-width="4" stroke-linecap="round"/>
<path d="M355 564L453 511" stroke="#A7CDB0" stroke-width="4" stroke-linecap="round"/>
<path d="M343 554L441 501" stroke="#A7CDB0" stroke-width="4" stroke-linecap="round"/>
<path d="M-19 875L370 664" stroke="#A7CDB0" stroke-width="4" stroke-linecap="round"/>
<path d="M-77 746L60 672" stroke="#A7CDB0" stroke-width="4" stroke-linecap="round"/>
<path d="M-10 851L355 654" stroke="#A7CDB0" stroke-width="4" stroke-linecap="round"/>
<path d="M-77 728L47 661" stroke="#A7CDB0" stroke-width="4" stroke-linecap="round"/>
<path d="M-70 814L214 663" stroke="#A7CDB0" stroke-width="4" stroke-linecap="round"/>
<path d="M-62 824L197 687" stroke="#A7CDB0" stroke-width="4" stroke-linecap="round"/>
<path d="M283 912L372 865" stroke="#A7CDB0" stroke-width="4" stroke-linecap="round"/>
<path d="M252 916L341 869" stroke="#A7CDB0" stroke-width="4" stroke-linecap="round"/>
<path d="M252 663L297 639" stroke="#A7CDB0" stroke-width="4" stroke-linecap="round"/>
<line x1="368" y1="576" x2="368" y2="665" stroke="#A7CDB0" stroke-width="4" stroke-linecap="round"/>
<line x1="60" y1="583" x2="60" y2="672" stroke="#A7CDB0" stroke-width="4" stroke-linecap="round"/>
<line x1="355" y1="564" x2="355" y2="654" stroke="#A7CDB0" stroke-width="4" stroke-linecap="round"/>
<line x1="47" y1="571" x2="47" y2="661" stroke="#A7CDB0" stroke-width="4" stroke-linecap="round"/>
<line x1="343" y1="554" x2="343" y2="599" stroke="#A7CDB0" stroke-width="4" stroke-linecap="round"/>
<line x1="245" y1="560" x2="245" y2="596" stroke="#A7CDB0" stroke-width="4" stroke-linecap="round"/>
<g filter="url(#filter5_d_598_238)">
<path fill-rule="evenodd" clip-rule="evenodd" d="M438.887 786.619L426 794.059V808.941L438.887 816.381L451.775 808.941V794.059L438.887 786.619ZM455.775 791.75L438.887 782L422 791.75V811.25L438.887 821L455.775 811.25V791.75Z" fill="#A7CDB0"/>
</g>
<line x1="214" y1="663" x2="251" y2="663" stroke="#A7CDB0" stroke-width="4" stroke-linecap="round"/>
</g>
<defs>
<filter id="filter0_f_598_238" x="133.086" y="284" width="68.8281" height="77" filterUnits="userSpaceOnUse" color-interpolation-filters="sRGB">
<feFlood flood-opacity="0" result="BackgroundImageFix"/>
<feBlend mode="normal" in="SourceGraphic" in2="BackgroundImageFix" result="shape"/>
<feGaussianBlur stdDeviation="4" result="effect1_foregroundBlur_598_238"/>
</filter>
<filter id="filter1_f_598_238" x="248.746" y="197" width="43.5078" height="49" filterUnits="userSpaceOnUse" color-interpolation-filters="sRGB">
<feFlood flood-opacity="0" result="BackgroundImageFix"/>
<feBlend mode="normal" in="SourceGraphic" in2="BackgroundImageFix" result="shape"/>
<feGaussianBlur stdDeviation="2" result="effect1_foregroundBlur_598_238"/>
</filter>
<filter id="filter2_f_598_238" x="376.766" y="564" width="103.469" height="117" filterUnits="userSpaceOnUse" color-interpolation-filters="sRGB">
<feFlood flood-opacity="0" result="BackgroundImageFix"/>
<feBlend mode="normal" in="SourceGraphic" in2="BackgroundImageFix" result="shape"/>
<feGaussianBlur stdDeviation="4" result="effect1_foregroundBlur_598_238"/>
</filter>
<filter id="filter3_f_598_238" x="319.086" y="441" width="68.8281" height="77" filterUnits="userSpaceOnUse" color-interpolation-filters="sRGB">
<feFlood flood-opacity="0" result="BackgroundImageFix"/>
<feBlend mode="normal" in="SourceGraphic" in2="BackgroundImageFix" result="shape"/>
<feGaussianBlur stdDeviation="4" result="effect1_foregroundBlur_598_238"/>
</filter>
<filter id="filter4_f_598_238" x="376.766" y="564" width="103.469" height="117" filterUnits="userSpaceOnUse" color-interpolation-filters="sRGB">
<feFlood flood-opacity="0" result="BackgroundImageFix"/>
<feBlend mode="normal" in="SourceGraphic" in2="BackgroundImageFix" result="shape"/>
<feGaussianBlur stdDeviation="4" result="effect1_foregroundBlur_598_238"/>
</filter>
<filter id="filter5_d_598_238" x="411" y="779" width="47.7754" height="53" filterUnits="userSpaceOnUse" color-interpolation-filters="sRGB">
<feFlood flood-opacity="0" result="BackgroundImageFix"/>
<feColorMatrix in="SourceAlpha" type="matrix" values="0 0 0 0 0 0 0 0 0 0 0 0 0 0 0 0 0 0 127 0" result="hardAlpha"/>
<feOffset dx="-4" dy="4"/>
<feGaussianBlur stdDeviation="3.5"/>
<feComposite in2="hardAlpha" operator="out"/>
<feColorMatrix type="matrix" values="0 0 0 0 0 0 0 0 0 0 0 0 0 0 0 0 0 0 0.08 0"/>
<feBlend mode="normal" in2="BackgroundImageFix" result="effect1_dropShadow_598_238"/>
<feBlend mode="normal" in="SourceGraphic" in2="effect1_dropShadow_598_238" result="shape"/>
</filter>
<linearGradient id="paint0_linear_598_238" x1="324.2" y1="521" x2="321.583" y2="892.983" gradientUnits="userSpaceOnUse">
<stop stop-color="#99BFA1"/>
<stop offset="1" stop-color="#83A58A" stop-opacity="0.15"/>
</linearGradient>
</defs>
</svg>
