<svg width="1920" height="564" viewBox="0 0 1920 564" fill="none" xmlns="http://www.w3.org/2000/svg">
<metadata><?xpacket begin="﻿" id="W5M0MpCehiHzreSzNTczkc9d"?>
<x:xmpmeta xmlns:x="adobe:ns:meta/" x:xmptk="Adobe XMP Core 5.6-c148 79.164036, 2019/08/13-01:06:57        ">
   <rdf:RDF xmlns:rdf="http://www.w3.org/1999/02/22-rdf-syntax-ns#">
      <rdf:Description rdf:about=""
            xmlns:xmp="http://ns.adobe.com/xap/1.0/"
            xmlns:xmpMM="http://ns.adobe.com/xap/1.0/mm/"
            xmlns:stEvt="http://ns.adobe.com/xap/1.0/sType/ResourceEvent#">
         <xmp:Rating>1</xmp:Rating>
         <xmp:MetadataDate>2022-07-25T09:32:30+05:00</xmp:MetadataDate>
         <xmpMM:InstanceID>xmp.iid:ac351a41-b35c-cc47-836b-fd4022e6e353</xmpMM:InstanceID>
         <xmpMM:DocumentID>xmp.did:ac351a41-b35c-cc47-836b-fd4022e6e353</xmpMM:DocumentID>
         <xmpMM:OriginalDocumentID>xmp.did:ac351a41-b35c-cc47-836b-fd4022e6e353</xmpMM:OriginalDocumentID>
         <xmpMM:History>
            <rdf:Seq>
               <rdf:li>
                  <rdf:Description>
                     <stEvt:action>saved</stEvt:action>
                     <stEvt:instanceID>xmp.iid:ac351a41-b35c-cc47-836b-fd4022e6e353</stEvt:instanceID>
                     <stEvt:when>2022-07-25T09:32:30+05:00</stEvt:when>
                     <stEvt:softwareAgent>Adobe Bridge 2020 (Windows)</stEvt:softwareAgent>
                     <stEvt:changed>/metadata</stEvt:changed>
                  </rdf:Description>
               </rdf:li>
            </rdf:Seq>
         </xmpMM:History>
      </rdf:Description>
   </rdf:RDF>
</x:xmpmeta>
                                                                                                    
                                                                                                    
                                                                                                    
                                                                                                    
                                                                                                    
                                                                                                    
                                                                                                    
                                                                                                    
                                                                                                    
                                                                                                    
                                                                                                    
                                                                                                    
                                                                                                    
                                                                                                    
                                                                                                    
                                                                                                    
                                                                                                    
                                                                                                    
                                                                                                    
                                                                                                    
                           
<?xpacket end="w"?></metadata>
<mask id="mask0_575_975" style="mask-type:alpha" maskUnits="userSpaceOnUse" x="0" y="138" width="754" height="426">
<rect y="138" width="754" height="426" fill="#BD1111"/>
</mask>
<g mask="url(#mask0_575_975)">
<g filter="url(#filter0_f_575_975)">
<path d="M496 221L530.641 241V281L496 301L461.359 281V241L496 221Z" fill="#E5F2E9" fill-opacity="0.41"/>
</g>
<path d="M683 188L699.454 196.75V214.25L683 223L666.546 214.25V196.75L683 188Z" fill="#E5F2E9" fill-opacity="0.31"/>
<path d="M367.5 153L378.325 158.75V170.25L367.5 176L356.675 170.25V158.75L367.5 153Z" fill="#E5F2E9" fill-opacity="0.55"/>
<path d="M342.5 245L356.789 253V269L342.5 277L328.211 269V253L342.5 245Z" fill="#E5F2E9"/>
<path d="M200.5 141L214.789 149V165L200.5 173L186.211 165V149L200.5 141Z" fill="#E5F2E9"/>
<path d="M281.5 261L300.12 271.25V291.75L281.5 302L262.88 291.75V271.25L281.5 261Z" fill="#E5F2E9"/>
<rect x="643" y="282" width="15" height="5" fill="#E5F2E9"/>
<rect x="75" y="286" width="15" height="5" fill="#E5F2E9"/>
<rect x="627" y="291" width="15" height="5" fill="#E5F2E9"/>
<rect x="59" y="295" width="15" height="5" fill="#E5F2E9"/>
<path d="M120.35 235.012L120.35 245.474L69.8404 274.636L60.7804 269.404L60.7795 258.942L111.29 229.78L120.35 235.012Z" stroke="#E5F2E9" stroke-width="3"/>
<path d="M709.5 171L720.325 176.75V188.25L709.5 194L698.675 188.25V176.75L709.5 171Z" fill="#E5F2E9" fill-opacity="0.31"/>
<g filter="url(#filter1_f_575_975)">
<path d="M112 209L131.919 220.5V243.5L112 255L92.0814 243.5V220.5L112 209Z" fill="#E5F2E9" fill-opacity="0.35"/>
</g>
</g>
<mask id="mask1_575_975" style="mask-type:alpha" maskUnits="userSpaceOnUse" x="687" y="0" width="1231" height="564">
<rect x="687" width="1231" height="564" fill="#E14747"/>
</mask>
<g mask="url(#mask1_575_975)">
<path d="M1870 159L1885.59 168.5V187.5L1870 197L1854.41 187.5V168.5L1870 159Z" fill="#E5F2E9" fill-opacity="0.21"/>
<g filter="url(#filter2_f_575_975)">
<path d="M1793.5 380L1837.23 405.25V455.75L1793.5 481L1749.77 455.75V405.25L1793.5 380Z" fill="#E5F2E9" fill-opacity="0.25"/>
</g>
<g filter="url(#filter3_f_575_975)">
<path d="M1505.5 131L1524.99 142.25V164.75L1505.5 176L1486.01 164.75V142.25L1505.5 131Z" fill="#E5F2E9" fill-opacity="0.51"/>
</g>
<g filter="url(#filter4_f_575_975)">
<path d="M1282 304L1310.58 320.5V353.5L1282 370L1253.42 353.5V320.5L1282 304Z" fill="#E5F2E9" fill-opacity="0.42"/>
</g>
<g filter="url(#filter5_f_575_975)">
<path d="M980.703 292L1009.28 308.5V341.5L980.703 358L952.124 341.5V308.5L980.703 292Z" fill="#E5F2E9" fill-opacity="0.44"/>
</g>
<g filter="url(#filter6_f_575_975)">
<path d="M1300 102L1328.58 118.5V151.5L1300 168L1271.42 151.5V118.5L1300 102Z" fill="#E5F2E9" fill-opacity="0.4"/>
</g>
<g filter="url(#filter7_f_575_975)">
<path d="M1572 121L1600.58 137.5V170.5L1572 187L1543.42 170.5V137.5L1572 121Z" fill="#E5F2E9" fill-opacity="0.48"/>
</g>
<path d="M1403.5 193L1414.33 199.5V212.5L1403.5 219L1392.67 212.5V199.5L1403.5 193Z" fill="#E5F2E9"/>
<path d="M1880.5 326L1903.45 340V368L1880.5 382L1857.55 368V340L1880.5 326Z" fill="#E5F2E9" fill-opacity="0.47"/>
<path d="M1341.66 289.707L1341.66 298.428L1298.58 323.302L1291.03 318.941L1291.03 310.22L1334.11 285.346L1341.66 289.707Z" fill="#E5F2E9" stroke="#E5F2E9" stroke-width="3"/>
<path d="M1448 39L1464.45 47.75V65.25L1448 74L1431.55 65.25V47.75L1448 39Z" fill="#E5F2E9" fill-opacity="0.38"/>
<path d="M1376.5 363L1402.05 376.5V403.5L1376.5 417L1350.95 403.5V376.5L1376.5 363Z" fill="#E5F2E9" fill-opacity="0.53"/>
<path d="M1411 391L1445.64 409.25V445.75L1411 464L1376.36 445.75V409.25L1411 391Z" fill="#E5F2E9"/>
<path d="M1040 214L1056.45 222.75V240.25L1040 249L1023.55 240.25V222.75L1040 214Z" fill="#E5F2E9" fill-opacity="0.67"/>
<rect x="1425" y="57" width="25" height="5" fill="#E5F2E9"/>
<rect x="1675" y="13" width="25" height="5" fill="#E5F2E9"/>
<rect x="1409" y="67" width="15" height="5" fill="#E5F2E9"/>
<rect x="1659" y="23" width="15" height="5" fill="#E5F2E9"/>
<path d="M1866.22 169.398L1903.48 147.602" stroke="#E5F2E9" stroke-width="3"/>
<path d="M1902.78 169.398L1865.52 147.602" stroke="#E5F2E9" stroke-width="3"/>
<path d="M1866.51 148.116L1884.5 137.732L1902.49 148.116V168.884L1884.5 179.268L1866.51 168.884V148.116Z" stroke="#E5F2E9" stroke-width="3"/>
<path d="M1513.53 71.7891L1562.39 43.2109" stroke="#E5F2E9" stroke-width="2"/>
<path d="M1561.47 71.7891L1512.61 43.2109" stroke="#E5F2E9" stroke-width="2"/>
<path d="M1512.95 43.3273L1537.5 29.1547L1562.05 43.3273V71.6726L1537.5 85.8453L1512.95 71.6726V43.3273Z" stroke="#E5F2E9" stroke-width="2"/>
<path d="M1315.11 155.309L1370 123.619L1424.89 155.309V218.691L1370 250.381L1315.11 218.691V155.309Z" stroke="#E5F2E9" stroke-width="8"/>
<g style="mix-blend-mode:lighten">
<path d="M1704 171L1774.15 211.5V292.5L1704 333L1633.85 292.5V211.5L1704 171Z" fill="#E5F2E9" fill-opacity="0.25"/>
</g>
<path d="M1658.88 263.443L1717 229.887L1775.12 263.443V330.557L1717 364.113L1658.88 330.557V263.443Z" stroke="#E5F2E9" stroke-width="5"/>
<path d="M1423.97 121.985L1423.97 131.584L1373.22 160.885L1364.91 156.085L1364.91 146.486L1415.66 117.185L1423.97 121.985Z" stroke="#E5F2E9" stroke-width="5"/>
<path d="M1510.72 151.961L1510.72 158.355L1477.56 177.501L1472.02 174.304L1472.02 167.909L1505.18 148.763L1510.72 151.961Z" stroke="#E5F2E9" stroke-width="3"/>
<path d="M1144 325L1178 307" stroke="#E5F2E9" stroke-width="3" stroke-linecap="round"/>
<path d="M1013 382L1169 297" stroke="#E5F2E9" stroke-width="3" stroke-linecap="round"/>
<path d="M989 382L1143 297" stroke="#E5F2E9" stroke-width="4" stroke-linecap="round"/>
<path d="M1179 242L1227 216" stroke="#E5F2E9" stroke-width="3" stroke-linecap="round"/>
<path d="M1170 237L1201 220" stroke="#E5F2E9" stroke-width="3" stroke-linecap="round"/>
<path d="M1144 281L1210 245" stroke="#E5F2E9" stroke-width="3" stroke-linecap="round"/>
<line x1="1178.5" y1="242.5" x2="1178.5" y2="306.5" stroke="#E5F2E9" stroke-width="3" stroke-linecap="round"/>
<line x1="1143.5" y1="281.5" x2="1143.5" y2="296.5" stroke="#E5F2E9" stroke-width="3" stroke-linecap="round"/>
<line x1="1169.5" y1="237.5" x2="1169.5" y2="296.5" stroke="#E5F2E9" stroke-width="3" stroke-linecap="round"/>
<path d="M1090 326L1118 310" stroke="#E5F2E9" stroke-width="8" stroke-linecap="round"/>
<circle cx="1232" cy="213" r="5.5" stroke="#E5F2E9" stroke-width="3"/>
<circle cx="1215" cy="242" r="5.5" stroke="#E5F2E9" stroke-width="3"/>
<line x1="1142.5" y1="325.5" x2="1118.5" y2="325.5" stroke="#E5F2E9" stroke-width="3" stroke-linecap="round"/>
<path d="M1021 364L1143 297" stroke="#E5F2E9" stroke-width="3" stroke-linecap="round"/>
<path d="M1557 405L1664 346" stroke="#E5F2E9" stroke-width="4" stroke-linecap="round"/>
<path d="M1567 415L1647 371" stroke="#E5F2E9" stroke-width="4" stroke-linecap="round"/>
<path d="M1577 426L1639 392" stroke="#E5F2E9" stroke-width="4" stroke-linecap="round"/>
<path d="M1774 426L1816 403" stroke="#E5F2E9" stroke-width="4" stroke-linecap="round"/>
<path d="M1739 426L1796 394" stroke="#E5F2E9" stroke-width="4" stroke-linecap="round"/>
<path d="M1796 292L1919 223" stroke="#E5F2E9" stroke-width="4" stroke-linecap="round"/>
<path d="M1778 115L1919 36" stroke="#E5F2E9" stroke-width="4" stroke-linecap="round"/>
<path d="M1799 163L1850 135" stroke="#E5F2E9" stroke-width="4" stroke-linecap="round"/>
<path d="M1869 135L1920 107" stroke="#E5F2E9" stroke-width="4" stroke-linecap="round"/>
<path d="M1780 101L1840 67" stroke="#E5F2E9" stroke-width="4" stroke-linecap="round"/>
<path d="M1840 57L1918 13" stroke="#E5F2E9" stroke-width="4" stroke-linecap="round"/>
<path d="M1806 301L1929 232" stroke="#E5F2E9" stroke-width="4" stroke-linecap="round"/>
<path d="M1816 309L1939 240" stroke="#E5F2E9" stroke-width="4" stroke-linecap="round"/>
<line x1="1557" y1="405" x2="1557" y2="424" stroke="#E5F2E9" stroke-width="4" stroke-linecap="round"/>
<line x1="1567" y1="416" x2="1567" y2="434" stroke="#E5F2E9" stroke-width="4" stroke-linecap="round"/>
<line x1="1577" y1="427" x2="1577" y2="440" stroke="#E5F2E9" stroke-width="4" stroke-linecap="round"/>
<line x1="1796" y1="293" x2="1796" y2="394" stroke="#E5F2E9" stroke-width="4" stroke-linecap="round"/>
<line x1="1798" y1="164" x2="1798" y2="191" stroke="#E5F2E9" stroke-width="4" stroke-linecap="round"/>
<line x1="1840" y1="57" x2="1840" y2="67" stroke="#E5F2E9" stroke-width="4" stroke-linecap="round"/>
<line x1="1806" y1="302" x2="1806" y2="407" stroke="#E5F2E9" stroke-width="4" stroke-linecap="round"/>
<line x1="1816" y1="309" x2="1816" y2="402" stroke="#E5F2E9" stroke-width="4" stroke-linecap="round"/>
<path d="M1817 280L1870 250" stroke="#E5F2E9" stroke-width="10" stroke-linecap="round"/>
<path d="M1515 358L1543 342" stroke="#E5F2E9" stroke-width="10" stroke-linecap="round"/>
<circle cx="1652" cy="368" r="5" stroke="#E5F2E9" stroke-width="4"/>
<circle cx="1608" cy="282" r="5" stroke="#E5F2E9" stroke-width="4"/>
<circle cx="1486" cy="375" r="5" stroke="#E5F2E9" stroke-width="4"/>
<line x1="1850" y1="135" x2="1869" y2="135" stroke="#E5F2E9" stroke-width="4" stroke-linecap="round"/>
<line x1="1584" y1="155" x2="1584" y2="214" stroke="#E5F2E9" stroke-width="4" stroke-linecap="round"/>
<line x1="1558" y1="311" x2="1558" y2="333" stroke="#E5F2E9" stroke-width="4" stroke-linecap="round"/>
<line x1="1624" y1="207" x2="1624" y2="259" stroke="#E5F2E9" stroke-width="4" stroke-linecap="round"/>
<line x1="1575" y1="147" x2="1575" y2="205" stroke="#E5F2E9" stroke-width="4" stroke-linecap="round"/>
<line x1="1566" y1="137" x2="1566" y2="197" stroke="#E5F2E9" stroke-width="4" stroke-linecap="round"/>
<line x1="1557" y1="128" x2="1557" y2="187" stroke="#E5F2E9" stroke-width="4" stroke-linecap="round"/>
<path d="M1557 126L1650 74" stroke="#E5F2E9" stroke-width="4" stroke-linecap="round"/>
<path d="M1474 234L1556 188" stroke="#E5F2E9" stroke-width="4" stroke-linecap="round"/>
<path d="M1566 136L1715 52" stroke="#E5F2E9" stroke-width="4" stroke-linecap="round"/>
<path d="M1434 271L1566 197" stroke="#E5F2E9" stroke-width="4" stroke-linecap="round"/>
<path d="M1575 146L1715 66" stroke="#E5F2E9" stroke-width="4" stroke-linecap="round"/>
<path d="M1530 231L1575 206" stroke="#E5F2E9" stroke-width="4" stroke-linecap="round"/>
<path d="M1585 154L1714 81" stroke="#E5F2E9" stroke-width="4" stroke-linecap="round"/>
<path d="M1427 304L1584 215" stroke="#E5F2E9" stroke-width="4" stroke-linecap="round"/>
<path d="M1489 336L1624 259" stroke="#E5F2E9" stroke-width="4" stroke-linecap="round"/>
<path d="M1490 372L1558 333" stroke="#E5F2E9" stroke-width="4" stroke-linecap="round"/>
<path d="M1558 311L1603 285" stroke="#E5F2E9" stroke-width="4" stroke-linecap="round"/>
<path d="M1624 207L1684 172" stroke="#E5F2E9" stroke-width="4" stroke-linecap="round"/>
<circle cx="1469" cy="236" r="5" stroke="#E5F2E9" stroke-width="4"/>
<circle cx="1430" cy="275" r="5" stroke="#E5F2E9" stroke-width="4"/>
<circle cx="1423" cy="307" r="5" stroke="#E5F2E9" stroke-width="4"/>
<circle cx="1525" cy="234" r="5" stroke="#E5F2E9" stroke-width="4"/>
<circle cx="1760" cy="77" r="5" stroke="#E5F2E9" stroke-width="4"/>
<path d="M1254 251L1312 219" stroke="#E5F2E9" stroke-width="4" stroke-linecap="round"/>
<path d="M1154 383L1268 320" stroke="#E5F2E9" stroke-width="4" stroke-linecap="round"/>
<path d="M1370 266L1333 245" stroke="#E5F2E9" stroke-width="4" stroke-linecap="round"/>
<path d="M1704 368L1664 346" stroke="#E5F2E9" stroke-width="4" stroke-linecap="round"/>
<path d="M1778 115L1715 80" stroke="#E5F2E9" stroke-width="4" stroke-linecap="round"/>
<path d="M1779 101L1716 66" stroke="#E5F2E9" stroke-width="4" stroke-linecap="round"/>
<path d="M1755 74L1715 52" stroke="#E5F2E9" stroke-width="4" stroke-linecap="round"/>
<path d="M1370 266L1391 254" stroke="#E5F2E9" stroke-width="4" stroke-linecap="round"/>
<path d="M1298 195L1313 187" stroke="#E5F2E9" stroke-width="4" stroke-linecap="round"/>
<path d="M1120 385L1254 309" stroke="#E5F2E9" stroke-width="4" stroke-linecap="round"/>
<line x1="1254" y1="252" x2="1254" y2="309" stroke="#E5F2E9" stroke-width="4" stroke-linecap="round"/>
<line x1="1298" y1="197" x2="1298" y2="226" stroke="#E5F2E9" stroke-width="4" stroke-linecap="round"/>
<line x1="1270" y1="281" x2="1270" y2="318" stroke="#E5F2E9" stroke-width="4" stroke-linecap="round"/>
<path d="M1219 329L1253.5 310.5V273" stroke="#E5F2E9" stroke-width="10" stroke-linecap="round"/>
<circle cx="1270" cy="276" r="5" stroke="#E5F2E9" stroke-width="4"/>
<path fill-rule="evenodd" clip-rule="evenodd" d="M1098 232.75L1073 218L1048 232.75V262.25L1073 277L1098 262.25V232.75Z" fill="#E5F2E9" fill-opacity="0.34"/>
<path fill-rule="evenodd" clip-rule="evenodd" d="M969.703 322.75L944.703 308L919.703 322.75V352.25L944.703 367L969.703 352.25V322.75Z" fill="#E5F2E9" fill-opacity="0.8"/>
<path fill-rule="evenodd" clip-rule="evenodd" d="M1774.7 145.75L1749.7 131L1724.7 145.75V175.25L1749.7 190L1774.7 175.25V145.75Z" fill="#E5F2E9" fill-opacity="0.8"/>
<path fill-rule="evenodd" clip-rule="evenodd" d="M944.703 295.619L908 316.809V359.191L944.703 380.381L981.406 359.191V316.809L944.703 295.619ZM985.406 314.5L944.703 291L904 314.5V361.5L944.703 385L985.406 361.5V314.5Z" fill="#E5F2E9" fill-opacity="0.8"/>
<path fill-rule="evenodd" clip-rule="evenodd" d="M1749.7 118.619L1713 139.809V182.191L1749.7 203.381L1786.41 182.191V139.809L1749.7 118.619ZM1790.41 137.5L1749.7 114L1709 137.5V184.5L1749.7 208L1790.41 184.5V137.5Z" fill="#E5F2E9" fill-opacity="0.8"/>
</g>
<mask id="mask2_575_975" style="mask-type:alpha" maskUnits="userSpaceOnUse" x="0" y="307" width="1921" height="257">
<path d="M0 307H866.56L957.5 361.617H975.5L1316.5 361.5L1398.5 410H1920.19V564H0V307Z" fill="#99BFA1"/>
</mask>
<g mask="url(#mask2_575_975)">
<path d="M0 307H866.56L957.5 361.617H975.5L1316.5 361.5L1398.5 410H1920.19V564H0V307Z" fill="#99BFA1"/>
<rect y="307" width="1919" height="257" fill="url(#paint0_linear_575_975)"/>
<mask id="mask3_575_975" style="mask-type:alpha" maskUnits="userSpaceOnUse" x="0" y="138" width="754" height="426">
<rect y="138" width="754" height="426" fill="#BD1111"/>
</mask>
<g mask="url(#mask3_575_975)">
<g filter="url(#filter8_f_575_975)">
<path d="M87 364L127.703 387.5V434.5L87 458L46.2968 434.5V387.5L87 364Z" fill="#A8CCB0" fill-opacity="0.35"/>
</g>
<g filter="url(#filter9_f_575_975)">
<path d="M496 221L530.641 241V281L496 301L461.359 281V241L496 221Z" fill="#A8CCB0" fill-opacity="0.51"/>
</g>
<path d="M555.694 480.405L590.5 460.309L625.306 480.405V520.595L590.5 540.691L555.694 520.595V480.405Z" fill="#A7CDB0" stroke="#A7CDB0" stroke-width="4"/>
<path d="M323.5 407L343.852 418.75V442.25L323.5 454L303.148 442.25V418.75L323.5 407Z" fill="#A7CDB0" fill-opacity="0.53"/>
<path d="M361.5 421L388.78 436.75V468.25L361.5 484L334.22 468.25V436.75L361.5 421Z" fill="#A7CDB0" fill-opacity="0.53"/>
<path d="M483.5 330L494.325 336.5V349.5L483.5 356L472.675 349.5V336.5L483.5 330Z" fill="#A7CDB0"/>
<rect x="441" y="325" width="15" height="5" fill="#A7CDB0"/>
<rect x="480" y="539" width="15" height="5" fill="#A7CDB0"/>
<path d="M544 398L662 334" stroke="#A7CDB0" stroke-width="3" stroke-linecap="round"/>
<path d="M304.344 566L564.001 424" stroke="#A7CDB0" stroke-width="4.05714" stroke-linecap="round"/>
<path d="M319 570L350 553" stroke="#A7CDB0" stroke-width="4" stroke-linecap="round"/>
<path d="M358 514L544 412" stroke="#A7CDB0" stroke-width="4" stroke-linecap="round"/>
<path d="M455 447L514 415" stroke="#A7CDB0" stroke-width="4" stroke-linecap="round"/>
<path d="M411 411L455 388" stroke="#A7CDB0" stroke-width="4" stroke-linecap="round"/>
<path d="M564 379L669 321" stroke="#A7CDB0" stroke-width="3" stroke-linecap="round"/>
<path d="M496 552L544 526" stroke="#A7CDB0" stroke-width="4" stroke-linecap="round"/>
<path d="M545 486L589 462" stroke="#A7CDB0" stroke-width="4" stroke-linecap="round"/>
<line x1="564" y1="380" x2="564" y2="423" stroke="#A7CDB0" stroke-width="4" stroke-linecap="round"/>
<line x1="544" y1="399" x2="544" y2="411" stroke="#A7CDB0" stroke-width="4" stroke-linecap="round"/>
<line x1="470" y1="477" x2="470" y2="515" stroke="#A7CDB0" stroke-width="4" stroke-linecap="round"/>
<line x1="455" y1="388" x2="455" y2="446" stroke="#A7CDB0" stroke-width="4" stroke-linecap="round"/>
<line x1="514" y1="415" x2="514" y2="428" stroke="#A7CDB0" stroke-width="4" stroke-linecap="round"/>
<line x1="545" y1="487" x2="545" y2="525" stroke="#A7CDB0" stroke-width="4" stroke-linecap="round"/>
<line x1="407" y1="553" x2="351" y2="553" stroke="#A7CDB0" stroke-width="4" stroke-linecap="round"/>
<line x1="495" y1="553" x2="473" y2="553" stroke="#A7CDB0" stroke-width="4" stroke-linecap="round"/>
<line x1="457.885" y1="523.83" x2="439.831" y2="534.254" stroke="#A7CDB0" stroke-width="10" stroke-linecap="round"/>
<line x1="440.885" y1="394.83" x2="422.831" y2="405.254" stroke="#A7CDB0" stroke-width="10" stroke-linecap="round"/>
<path d="M197.885 512.83L169.5 528" stroke="#A7CDB0" stroke-width="10" stroke-linecap="round"/>
<line x1="470.45" y1="516.043" x2="407.304" y2="552.5" stroke="#A7CDB0" stroke-width="4" stroke-linecap="round"/>
<circle cx="698" cy="321" r="5.5" stroke="#A7CDB0" stroke-width="3"/>
<circle cx="740" cy="333" r="5.5" stroke="#A7CDB0" stroke-width="3"/>
<line x1="734.5" y1="333.5" x2="662.5" y2="333.5" stroke="#A7CDB0" stroke-width="3" stroke-linecap="round"/>
<line x1="691.5" y1="320.5" x2="669.5" y2="320.5" stroke="#A7CDB0" stroke-width="3" stroke-linecap="round"/>
<path d="M442 570L473 553" stroke="#A7CDB0" stroke-width="4" stroke-linecap="round"/>
<path d="M365 343L403 322" stroke="#A7CDB0" stroke-width="4" stroke-linecap="round"/>
<path d="M222 447L365 369" stroke="#A7CDB0" stroke-width="4" stroke-linecap="round"/>
<path d="M88 592L222 519" stroke="#A7CDB0" stroke-width="4" stroke-linecap="round"/>
<path d="M76 580L210 507" stroke="#A7CDB0" stroke-width="4" stroke-linecap="round"/>
<path d="M21 592L152 521" stroke="#A7CDB0" stroke-width="4" stroke-linecap="round"/>
<path d="M211 439L354 361" stroke="#A7CDB0" stroke-width="4" stroke-linecap="round"/>
<path d="M199 433L354 348" stroke="#A7CDB0" stroke-width="4" stroke-linecap="round"/>
<path d="M134 329L149 321" stroke="#A7CDB0" stroke-width="4" stroke-linecap="round"/>
<path d="M152 422L134 412" stroke="#A7CDB0" stroke-width="4" stroke-linecap="round"/>
<path d="M354 337L388 318" stroke="#A7CDB0" stroke-width="4" stroke-linecap="round"/>
<line x1="354" y1="337" x2="354" y2="360" stroke="#A7CDB0" stroke-width="4" stroke-linecap="round"/>
<line x1="365" y1="343" x2="365" y2="366" stroke="#A7CDB0" stroke-width="4" stroke-linecap="round"/>
<path d="M199 433L199 489" stroke="#A7CDB0" stroke-width="4" stroke-linecap="round"/>
<path d="M134 329L134 412" stroke="#A7CDB0" stroke-width="4" stroke-linecap="round"/>
<path d="M152 422L152 520" stroke="#A7CDB0" stroke-width="4" stroke-linecap="round"/>
<line x1="211" y1="440" x2="211" y2="506" stroke="#A7CDB0" stroke-width="4" stroke-linecap="round"/>
<line x1="222" y1="447" x2="222" y2="516" stroke="#A7CDB0" stroke-width="4" stroke-linecap="round"/>
<circle cx="407" cy="319" r="5" stroke="#A7CDB0" stroke-width="4"/>
<circle cx="353" cy="517" r="5" stroke="#A7CDB0" stroke-width="4"/>
<circle cx="154" cy="318" r="5" stroke="#A7CDB0" stroke-width="4"/>
<g filter="url(#filter10_d_575_975)">
<path fill-rule="evenodd" clip-rule="evenodd" d="M624.887 504.619L612 512.059V526.941L624.887 534.381L637.775 526.941V512.059L624.887 504.619ZM641.775 509.75L624.887 500L608 509.75V529.25L624.887 539L641.775 529.25V509.75Z" fill="#AED2B6"/>
</g>
<path d="M33.6562 497.445L118.953 447.555" stroke="#A4C9AD" stroke-width="4"/>
<path d="M117.344 497.445L32.0469 447.555" stroke="#A4C9AD" stroke-width="4"/>
<path d="M32.8997 447.905L75.5 423.309L118.1 447.905V497.095L75.5 521.691L32.8997 497.095V447.905Z" stroke="#A4C9AD" stroke-width="4"/>
<path d="M236.287 494.155L262 479.309L287.713 494.155V523.845L262 538.691L236.287 523.845V494.155Z" stroke="#A7CDB0" stroke-width="4"/>
<path d="M25 317L50.1147 331.5V360.5L25 375L-0.114737 360.5V331.5L25 317Z" fill="#A7CDB0" fill-opacity="0.29"/>
<g filter="url(#filter11_d_575_975)">
<path fill-rule="evenodd" clip-rule="evenodd" d="M209.703 347.75L184.703 333L159.703 347.75V377.25L184.703 392L209.703 377.25V347.75Z" fill="#A7CDB0" fill-opacity="0.8" shape-rendering="crispEdges"/>
</g>
<g filter="url(#filter12_d_575_975)">
<path fill-rule="evenodd" clip-rule="evenodd" d="M184.703 320.619L148 341.809V384.191L184.703 405.381L221.406 384.191V341.809L184.703 320.619ZM225.406 339.5L184.703 316L144 339.5V386.5L184.703 410L225.406 386.5V339.5Z" fill="#A7CDB0" fill-opacity="0.8" shape-rendering="crispEdges"/>
</g>
</g>
<mask id="mask4_575_975" style="mask-type:alpha" maskUnits="userSpaceOnUse" x="687" y="0" width="1231" height="564">
<rect x="687" width="1231" height="564" fill="#E14747"/>
</mask>
<g mask="url(#mask4_575_975)">
<g filter="url(#filter13_f_575_975)">
<path d="M1122.5 451L1166.23 476.25V526.75L1122.5 552L1078.77 526.75V476.25L1122.5 451Z" fill="#ABCFB3" fill-opacity="0.51"/>
</g>
<g filter="url(#filter14_f_575_975)">
<path d="M1793.5 380L1837.23 405.25V455.75L1793.5 481L1749.77 455.75V405.25L1793.5 380Z" fill="#ABCFB3" fill-opacity="0.25"/>
</g>
<g filter="url(#filter15_f_575_975)">
<path d="M864.5 456L908.234 481.25V531.75L864.5 557L820.766 531.75V481.25L864.5 456Z" fill="#A5C9AD" fill-opacity="0.82"/>
</g>
<g filter="url(#filter16_f_575_975)">
<path d="M1282 304L1310.58 320.5V353.5L1282 370L1253.42 353.5V320.5L1282 304Z" fill="#A8CBB0" fill-opacity="0.75"/>
</g>
<g filter="url(#filter17_f_575_975)">
<path d="M980.703 292L1009.28 308.5V341.5L980.703 358L952.124 341.5V308.5L980.703 292Z" fill="#A8CCAE" fill-opacity="0.72"/>
</g>
<path d="M1086 494L1103.32 504.5V525.5L1086 536L1068.68 525.5V504.5L1086 494Z" fill="#A7CDB0"/>
<path d="M1880.5 326L1903.45 340V368L1880.5 382L1857.55 368V340L1880.5 326Z" fill="#A7CDB0" fill-opacity="0.47"/>
<path d="M1341.66 289.707L1341.66 298.428L1298.58 323.302L1291.03 318.941L1291.03 310.22L1334.11 285.346L1341.66 289.707Z" fill="#A7CDB0" stroke="#A7CDB0" stroke-width="3"/>
<path d="M1031 547L1048.32 557.5V578.5L1031 589L1013.68 578.5V557.5L1031 547Z" fill="#A7CDB0"/>
<path d="M1544 517L1560.45 525.75V543.25L1544 552L1527.55 543.25V525.75L1544 517Z" fill="#9FC3A7"/>
<path d="M1376.5 363L1402.05 376.5V403.5L1376.5 417L1350.95 403.5V376.5L1376.5 363Z" fill="#9FC3A7" fill-opacity="0.53"/>
<path d="M1411 391L1445.64 409.25V445.75L1411 464L1376.36 445.75V409.25L1411 391Z" fill="#9FC3A7"/>
<rect x="1245" y="529" width="15" height="5" fill="#A7CDB0"/>
<rect x="1230" y="520" width="15" height="5" fill="#A7CDB0"/>
<path d="M1169.75 570.437L1229.37 535.562" stroke="#A7CDB0" stroke-width="4"/>
<path d="M1228.25 570.437L1168.63 535.562" stroke="#A7CDB0" stroke-width="4"/>
<path d="M1169.82 536.155L1199 519.309L1228.18 536.155V569.845L1199 586.691L1169.82 569.845V536.155Z" stroke="#A7CDB0" stroke-width="4"/>
<path d="M1786.75 506.437L1846.37 471.562" stroke="#A2C8AA" stroke-width="4"/>
<path d="M1845.25 506.437L1785.63 471.562" stroke="#A2C8AA" stroke-width="4"/>
<path d="M1786.82 472.155L1816 455.309L1845.18 472.155V505.845L1816 522.691L1786.82 505.845V472.155Z" stroke="#A2C8AA" stroke-width="4"/>
<path d="M1212.66 456.445L1297.95 406.555" stroke="#A7CDB0" stroke-width="4"/>
<path d="M1296.34 456.445L1211.05 406.555" stroke="#A7CDB0" stroke-width="4"/>
<path d="M1211.9 406.905L1254.5 382.309L1297.1 406.905V456.095L1254.5 480.691L1211.9 456.095V406.905Z" stroke="#A7CDB0" stroke-width="4"/>
<g style="mix-blend-mode:lighten">
<path d="M1704 171L1774.15 211.5V292.5L1704 333L1633.85 292.5V211.5L1704 171Z" fill="#A7CDB0" fill-opacity="0.25"/>
</g>
<path d="M1658.88 263.443L1717 229.887L1775.12 263.443V330.557L1717 364.113L1658.88 330.557V263.443Z" stroke="#A7CDB0" stroke-width="5"/>
<path d="M1241.47 413.518L1241.47 423.694L1190.22 453.285L1181.41 448.196L1181.41 438.02L1232.66 408.43L1241.47 413.518Z" stroke="#A7CDB0" stroke-width="4"/>
<path d="M1144 325L1178 307" stroke="#A7CDB0" stroke-width="3" stroke-linecap="round"/>
<path d="M770 515L1169 297" stroke="#A7CDB0" stroke-width="3" stroke-linecap="round"/>
<path d="M770 515L944 420" stroke="#A7CDB0" stroke-width="4" stroke-linecap="round"/>
<path d="M756 541L944 436" stroke="#A7CDB0" stroke-width="4" stroke-linecap="round"/>
<path d="M806 527L896 478" stroke="#A7CDB0" stroke-width="4" stroke-linecap="round"/>
<path d="M776 499L1143 297" stroke="#A7CDB0" stroke-width="4" stroke-linecap="round"/>
<line x1="1178.5" y1="242.5" x2="1178.5" y2="306.5" stroke="#A7CDB0" stroke-width="3" stroke-linecap="round"/>
<line x1="944" y1="421" x2="944" y2="435" stroke="#A7CDB0" stroke-width="4" stroke-linecap="round"/>
<line x1="896" y1="463" x2="896" y2="477" stroke="#A7CDB0" stroke-width="4" stroke-linecap="round"/>
<path d="M754.47 541.518L754.471 551.694L703.219 581.285L694.406 576.196L694.406 566.02L745.658 536.43L754.47 541.518Z" stroke="#A7CDB0" stroke-width="4"/>
<path d="M1090 326L1118 310" stroke="#A7CDB0" stroke-width="8" stroke-linecap="round"/>
<circle cx="765" cy="518" r="5" stroke="#A7CDB0" stroke-width="4"/>
<line x1="1142.5" y1="325.5" x2="1118.5" y2="325.5" stroke="#A7CDB0" stroke-width="3" stroke-linecap="round"/>
<path d="M1021 364L1143 297" stroke="#A7CDB0" stroke-width="3" stroke-linecap="round"/>
<path d="M1557 405L1664 346" stroke="#A7CDB0" stroke-width="4" stroke-linecap="round"/>
<path d="M1567 415L1647 371" stroke="#A7CDB0" stroke-width="4" stroke-linecap="round"/>
<path d="M1577 426L1639 392" stroke="#A7CDB0" stroke-width="4" stroke-linecap="round"/>
<path d="M1735 447L1816 403" stroke="#A7CDB0" stroke-width="4" stroke-linecap="round"/>
<path d="M1725 434L1796 394" stroke="#A7CDB0" stroke-width="4" stroke-linecap="round"/>
<path d="M1816 309L1939 240" stroke="#A7CDB0" stroke-width="4" stroke-linecap="round"/>
<path d="M1548 589L1735 485" stroke="#A7CDB0" stroke-width="4" stroke-linecap="round"/>
<path d="M1637 522L1725 473" stroke="#A7CDB0" stroke-width="4" stroke-linecap="round"/>
<path d="M1420 522L1557 444" stroke="#A7CDB0" stroke-width="4" stroke-linecap="round"/>
<path d="M1410 544L1567 455" stroke="#A7CDB0" stroke-width="4" stroke-linecap="round"/>
<path d="M1488 518L1576 468" stroke="#A7CDB0" stroke-width="4" stroke-linecap="round"/>
<path d="M1233 589L1345 525" stroke="#A7CDB0" stroke-width="4" stroke-linecap="round"/>
<path d="M1263 591L1345 544" stroke="#A7CDB0" stroke-width="4" stroke-linecap="round"/>
<line x1="1557" y1="405" x2="1557" y2="444" stroke="#A7CDB0" stroke-width="4" stroke-linecap="round"/>
<line x1="1567" y1="416" x2="1567" y2="455" stroke="#A7CDB0" stroke-width="4" stroke-linecap="round"/>
<line x1="1577" y1="427" x2="1577" y2="467" stroke="#A7CDB0" stroke-width="4" stroke-linecap="round"/>
<line x1="1796" y1="293" x2="1796" y2="394" stroke="#A7CDB0" stroke-width="4" stroke-linecap="round"/>
<line x1="1806" y1="302" x2="1806" y2="407" stroke="#A7CDB0" stroke-width="4" stroke-linecap="round"/>
<line x1="1816" y1="309" x2="1816" y2="402" stroke="#A7CDB0" stroke-width="4" stroke-linecap="round"/>
<line x1="1735" y1="447" x2="1735" y2="485" stroke="#A7CDB0" stroke-width="4" stroke-linecap="round"/>
<line x1="1725" y1="434" x2="1725" y2="472" stroke="#A7CDB0" stroke-width="4" stroke-linecap="round"/>
<path d="M1413 525L1509 471" stroke="#A7CDB0" stroke-width="10" stroke-linecap="round"/>
<path d="M1670 522L1723 492" stroke="#A7CDB0" stroke-width="10" stroke-linecap="round"/>
<path d="M1317 541L1345 525" stroke="#A7CDB0" stroke-width="10" stroke-linecap="round"/>
<path d="M1515 358L1543 342" stroke="#A7CDB0" stroke-width="10" stroke-linecap="round"/>
<path d="M1347 523.929L1412.93 524.756" stroke="#A7CDB0" stroke-width="10" stroke-linecap="round"/>
<circle cx="1383" cy="545" r="5" stroke="#A7CDB0" stroke-width="4"/>
<circle cx="1483" cy="521" r="5" stroke="#A7CDB0" stroke-width="4"/>
<circle cx="1652" cy="368" r="5" stroke="#A7CDB0" stroke-width="4"/>
<circle cx="1486" cy="375" r="5" stroke="#A7CDB0" stroke-width="4"/>
<line x1="1409" y1="544" x2="1390" y2="544" stroke="#A7CDB0" stroke-width="4" stroke-linecap="round"/>
<line x1="1358" y1="544" x2="1346" y2="544" stroke="#A7CDB0" stroke-width="4" stroke-linecap="round"/>
<line x1="1558" y1="311" x2="1558" y2="333" stroke="#A7CDB0" stroke-width="4" stroke-linecap="round"/>
<path d="M1489 336L1624 259" stroke="#A7CDB0" stroke-width="4" stroke-linecap="round"/>
<path d="M1490 372L1558 333" stroke="#A7CDB0" stroke-width="4" stroke-linecap="round"/>
<path d="M1558 311L1603 285" stroke="#A7CDB0" stroke-width="4" stroke-linecap="round"/>
<circle cx="1423" cy="307" r="5" stroke="#A7CDB0" stroke-width="4"/>
<path d="M1090 418L1268 320" stroke="#A7CDB0" stroke-width="4" stroke-linecap="round"/>
<path d="M976 520L1073 467" stroke="#A7CDB0" stroke-width="3" stroke-linecap="round"/>
<path d="M1704 368L1664 346" stroke="#A7CDB0" stroke-width="4" stroke-linecap="round"/>
<path d="M1073 412L1254 309" stroke="#A7CDB0" stroke-width="4" stroke-linecap="round"/>
<line x1="1254" y1="252" x2="1254" y2="309" stroke="#A7CDB0" stroke-width="4" stroke-linecap="round"/>
<line x1="1270" y1="281" x2="1270" y2="318" stroke="#A7CDB0" stroke-width="4" stroke-linecap="round"/>
<line x1="1073" y1="412" x2="1073" y2="466" stroke="#A7CDB0" stroke-width="4" stroke-linecap="round"/>
<path d="M1219 329L1253.5 310.5V273" stroke="#A7CDB0" stroke-width="10" stroke-linecap="round"/>
<path d="M1036.66 503.707L1036.66 512.428L993.579 537.302L986.026 532.941L986.026 524.22L1029.11 499.346L1036.66 503.707Z" stroke="#A7CDB0" stroke-width="3"/>
<path d="M896 581L976 537" stroke="#A7CDB0" stroke-width="3" stroke-linecap="round"/>
<path d="M877 581L943 545" stroke="#A7CDB0" stroke-width="3" stroke-linecap="round"/>
<line x1="976.5" y1="521.5" x2="976.5" y2="536.5" stroke="#A7CDB0" stroke-width="3" stroke-linecap="round"/>
<g filter="url(#filter18_d_575_975)">
<path fill-rule="evenodd" clip-rule="evenodd" d="M969.703 322.75L944.703 308L919.703 322.75V352.25L944.703 367L969.703 352.25V322.75Z" fill="#A7CDB0" fill-opacity="0.8" shape-rendering="crispEdges"/>
</g>
<g filter="url(#filter19_d_575_975)">
<path fill-rule="evenodd" clip-rule="evenodd" d="M944.703 295.619L908 316.809V359.191L944.703 380.381L981.406 359.191V316.809L944.703 295.619ZM985.406 314.5L944.703 291L904 314.5V361.5L944.703 385L985.406 361.5V314.5Z" fill="#A7CDB0" fill-opacity="0.8" shape-rendering="crispEdges"/>
</g>
</g>
</g>
<defs>
<filter id="filter0_f_575_975" x="453.359" y="213" width="85.2812" height="96" filterUnits="userSpaceOnUse" color-interpolation-filters="sRGB">
<feFlood flood-opacity="0" result="BackgroundImageFix"/>
<feBlend mode="normal" in="SourceGraphic" in2="BackgroundImageFix" result="shape"/>
<feGaussianBlur stdDeviation="4" result="effect1_foregroundBlur_575_975"/>
</filter>
<filter id="filter1_f_575_975" x="84.082" y="201" width="55.8359" height="62" filterUnits="userSpaceOnUse" color-interpolation-filters="sRGB">
<feFlood flood-opacity="0" result="BackgroundImageFix"/>
<feBlend mode="normal" in="SourceGraphic" in2="BackgroundImageFix" result="shape"/>
<feGaussianBlur stdDeviation="4" result="effect1_foregroundBlur_575_975"/>
</filter>
<filter id="filter2_f_575_975" x="1741.77" y="372" width="103.469" height="117" filterUnits="userSpaceOnUse" color-interpolation-filters="sRGB">
<feFlood flood-opacity="0" result="BackgroundImageFix"/>
<feBlend mode="normal" in="SourceGraphic" in2="BackgroundImageFix" result="shape"/>
<feGaussianBlur stdDeviation="4" result="effect1_foregroundBlur_575_975"/>
</filter>
<filter id="filter3_f_575_975" x="1478.01" y="123" width="54.9727" height="61" filterUnits="userSpaceOnUse" color-interpolation-filters="sRGB">
<feFlood flood-opacity="0" result="BackgroundImageFix"/>
<feBlend mode="normal" in="SourceGraphic" in2="BackgroundImageFix" result="shape"/>
<feGaussianBlur stdDeviation="4" result="effect1_foregroundBlur_575_975"/>
</filter>
<filter id="filter4_f_575_975" x="1247.42" y="298" width="69.1562" height="78" filterUnits="userSpaceOnUse" color-interpolation-filters="sRGB">
<feFlood flood-opacity="0" result="BackgroundImageFix"/>
<feBlend mode="normal" in="SourceGraphic" in2="BackgroundImageFix" result="shape"/>
<feGaussianBlur stdDeviation="3" result="effect1_foregroundBlur_575_975"/>
</filter>
<filter id="filter5_f_575_975" x="946.125" y="286" width="69.1562" height="78" filterUnits="userSpaceOnUse" color-interpolation-filters="sRGB">
<feFlood flood-opacity="0" result="BackgroundImageFix"/>
<feBlend mode="normal" in="SourceGraphic" in2="BackgroundImageFix" result="shape"/>
<feGaussianBlur stdDeviation="3" result="effect1_foregroundBlur_575_975"/>
</filter>
<filter id="filter6_f_575_975" x="1265.42" y="96" width="69.1562" height="78" filterUnits="userSpaceOnUse" color-interpolation-filters="sRGB">
<feFlood flood-opacity="0" result="BackgroundImageFix"/>
<feBlend mode="normal" in="SourceGraphic" in2="BackgroundImageFix" result="shape"/>
<feGaussianBlur stdDeviation="3" result="effect1_foregroundBlur_575_975"/>
</filter>
<filter id="filter7_f_575_975" x="1537.42" y="115" width="69.1562" height="78" filterUnits="userSpaceOnUse" color-interpolation-filters="sRGB">
<feFlood flood-opacity="0" result="BackgroundImageFix"/>
<feBlend mode="normal" in="SourceGraphic" in2="BackgroundImageFix" result="shape"/>
<feGaussianBlur stdDeviation="3" result="effect1_foregroundBlur_575_975"/>
</filter>
<filter id="filter8_f_575_975" x="38.2969" y="356" width="97.4062" height="110" filterUnits="userSpaceOnUse" color-interpolation-filters="sRGB">
<feFlood flood-opacity="0" result="BackgroundImageFix"/>
<feBlend mode="normal" in="SourceGraphic" in2="BackgroundImageFix" result="shape"/>
<feGaussianBlur stdDeviation="4" result="effect1_foregroundBlur_575_975"/>
</filter>
<filter id="filter9_f_575_975" x="453.359" y="213" width="85.2812" height="96" filterUnits="userSpaceOnUse" color-interpolation-filters="sRGB">
<feFlood flood-opacity="0" result="BackgroundImageFix"/>
<feBlend mode="normal" in="SourceGraphic" in2="BackgroundImageFix" result="shape"/>
<feGaussianBlur stdDeviation="4" result="effect1_foregroundBlur_575_975"/>
</filter>
<filter id="filter10_d_575_975" x="597" y="497" width="47.7754" height="53" filterUnits="userSpaceOnUse" color-interpolation-filters="sRGB">
<feFlood flood-opacity="0" result="BackgroundImageFix"/>
<feColorMatrix in="SourceAlpha" type="matrix" values="0 0 0 0 0 0 0 0 0 0 0 0 0 0 0 0 0 0 127 0" result="hardAlpha"/>
<feOffset dx="-4" dy="4"/>
<feGaussianBlur stdDeviation="3.5"/>
<feComposite in2="hardAlpha" operator="out"/>
<feColorMatrix type="matrix" values="0 0 0 0 0 0 0 0 0 0 0 0 0 0 0 0 0 0 0.08 0"/>
<feBlend mode="normal" in2="BackgroundImageFix" result="effect1_dropShadow_575_975"/>
<feBlend mode="normal" in="SourceGraphic" in2="effect1_dropShadow_575_975" result="shape"/>
</filter>
<filter id="filter11_d_575_975" x="147.703" y="321" width="66" height="75" filterUnits="userSpaceOnUse" color-interpolation-filters="sRGB">
<feFlood flood-opacity="0" result="BackgroundImageFix"/>
<feColorMatrix in="SourceAlpha" type="matrix" values="0 0 0 0 0 0 0 0 0 0 0 0 0 0 0 0 0 0 127 0" result="hardAlpha"/>
<feOffset dx="-4" dy="-4"/>
<feGaussianBlur stdDeviation="4"/>
<feComposite in2="hardAlpha" operator="out"/>
<feColorMatrix type="matrix" values="0 0 0 0 0 0 0 0 0 0 0 0 0 0 0 0 0 0 0.07 0"/>
<feBlend mode="normal" in2="BackgroundImageFix" result="effect1_dropShadow_575_975"/>
<feBlend mode="normal" in="SourceGraphic" in2="effect1_dropShadow_575_975" result="shape"/>
</filter>
<filter id="filter12_d_575_975" x="132" y="312" width="97.4062" height="110" filterUnits="userSpaceOnUse" color-interpolation-filters="sRGB">
<feFlood flood-opacity="0" result="BackgroundImageFix"/>
<feColorMatrix in="SourceAlpha" type="matrix" values="0 0 0 0 0 0 0 0 0 0 0 0 0 0 0 0 0 0 127 0" result="hardAlpha"/>
<feOffset dx="-4" dy="4"/>
<feGaussianBlur stdDeviation="4"/>
<feComposite in2="hardAlpha" operator="out"/>
<feColorMatrix type="matrix" values="0 0 0 0 0 0 0 0 0 0 0 0 0 0 0 0 0 0 0.07 0"/>
<feBlend mode="normal" in2="BackgroundImageFix" result="effect1_dropShadow_575_975"/>
<feBlend mode="normal" in="SourceGraphic" in2="effect1_dropShadow_575_975" result="shape"/>
</filter>
<filter id="filter13_f_575_975" x="1070.77" y="443" width="103.469" height="117" filterUnits="userSpaceOnUse" color-interpolation-filters="sRGB">
<feFlood flood-opacity="0" result="BackgroundImageFix"/>
<feBlend mode="normal" in="SourceGraphic" in2="BackgroundImageFix" result="shape"/>
<feGaussianBlur stdDeviation="4" result="effect1_foregroundBlur_575_975"/>
</filter>
<filter id="filter14_f_575_975" x="1741.77" y="372" width="103.469" height="117" filterUnits="userSpaceOnUse" color-interpolation-filters="sRGB">
<feFlood flood-opacity="0" result="BackgroundImageFix"/>
<feBlend mode="normal" in="SourceGraphic" in2="BackgroundImageFix" result="shape"/>
<feGaussianBlur stdDeviation="4" result="effect1_foregroundBlur_575_975"/>
</filter>
<filter id="filter15_f_575_975" x="812.766" y="448" width="103.469" height="117" filterUnits="userSpaceOnUse" color-interpolation-filters="sRGB">
<feFlood flood-opacity="0" result="BackgroundImageFix"/>
<feBlend mode="normal" in="SourceGraphic" in2="BackgroundImageFix" result="shape"/>
<feGaussianBlur stdDeviation="4" result="effect1_foregroundBlur_575_975"/>
</filter>
<filter id="filter16_f_575_975" x="1247.42" y="298" width="69.1562" height="78" filterUnits="userSpaceOnUse" color-interpolation-filters="sRGB">
<feFlood flood-opacity="0" result="BackgroundImageFix"/>
<feBlend mode="normal" in="SourceGraphic" in2="BackgroundImageFix" result="shape"/>
<feGaussianBlur stdDeviation="3" result="effect1_foregroundBlur_575_975"/>
</filter>
<filter id="filter17_f_575_975" x="946.125" y="286" width="69.1562" height="78" filterUnits="userSpaceOnUse" color-interpolation-filters="sRGB">
<feFlood flood-opacity="0" result="BackgroundImageFix"/>
<feBlend mode="normal" in="SourceGraphic" in2="BackgroundImageFix" result="shape"/>
<feGaussianBlur stdDeviation="3" result="effect1_foregroundBlur_575_975"/>
</filter>
<filter id="filter18_d_575_975" x="907.703" y="296" width="66" height="75" filterUnits="userSpaceOnUse" color-interpolation-filters="sRGB">
<feFlood flood-opacity="0" result="BackgroundImageFix"/>
<feColorMatrix in="SourceAlpha" type="matrix" values="0 0 0 0 0 0 0 0 0 0 0 0 0 0 0 0 0 0 127 0" result="hardAlpha"/>
<feOffset dx="-4" dy="-4"/>
<feGaussianBlur stdDeviation="4"/>
<feComposite in2="hardAlpha" operator="out"/>
<feColorMatrix type="matrix" values="0 0 0 0 0 0 0 0 0 0 0 0 0 0 0 0 0 0 0.07 0"/>
<feBlend mode="normal" in2="BackgroundImageFix" result="effect1_dropShadow_575_975"/>
<feBlend mode="normal" in="SourceGraphic" in2="effect1_dropShadow_575_975" result="shape"/>
</filter>
<filter id="filter19_d_575_975" x="892" y="287" width="97.4062" height="110" filterUnits="userSpaceOnUse" color-interpolation-filters="sRGB">
<feFlood flood-opacity="0" result="BackgroundImageFix"/>
<feColorMatrix in="SourceAlpha" type="matrix" values="0 0 0 0 0 0 0 0 0 0 0 0 0 0 0 0 0 0 127 0" result="hardAlpha"/>
<feOffset dx="-4" dy="4"/>
<feGaussianBlur stdDeviation="4"/>
<feComposite in2="hardAlpha" operator="out"/>
<feColorMatrix type="matrix" values="0 0 0 0 0 0 0 0 0 0 0 0 0 0 0 0 0 0 0.07 0"/>
<feBlend mode="normal" in2="BackgroundImageFix" result="effect1_dropShadow_575_975"/>
<feBlend mode="normal" in="SourceGraphic" in2="effect1_dropShadow_575_975" result="shape"/>
</filter>
<linearGradient id="paint0_linear_575_975" x1="960" y1="307" x2="959.5" y2="564" gradientUnits="userSpaceOnUse">
<stop stop-color="#99BFA1"/>
<stop offset="1" stop-color="#83A58A" stop-opacity="0.15"/>
</linearGradient>
</defs>
</svg>
