<svg width="754" height="426" viewBox="0 0 754 426" fill="none" xmlns="http://www.w3.org/2000/svg">
<metadata><?xpacket begin="﻿" id="W5M0MpCehiHzreSzNTczkc9d"?>
<x:xmpmeta xmlns:x="adobe:ns:meta/" x:xmptk="Adobe XMP Core 5.6-c148 79.164036, 2019/08/13-01:06:57        ">
   <rdf:RDF xmlns:rdf="http://www.w3.org/1999/02/22-rdf-syntax-ns#">
      <rdf:Description rdf:about=""
            xmlns:xmp="http://ns.adobe.com/xap/1.0/"
            xmlns:xmpMM="http://ns.adobe.com/xap/1.0/mm/"
            xmlns:stEvt="http://ns.adobe.com/xap/1.0/sType/ResourceEvent#">
         <xmp:Rating>1</xmp:Rating>
         <xmp:MetadataDate>2022-07-25T09:32:21+05:00</xmp:MetadataDate>
         <xmpMM:InstanceID>xmp.iid:6d55a7ae-7479-da45-b965-69a05daae8c6</xmpMM:InstanceID>
         <xmpMM:DocumentID>xmp.did:6d55a7ae-7479-da45-b965-69a05daae8c6</xmpMM:DocumentID>
         <xmpMM:OriginalDocumentID>xmp.did:6d55a7ae-7479-da45-b965-69a05daae8c6</xmpMM:OriginalDocumentID>
         <xmpMM:History>
            <rdf:Seq>
               <rdf:li>
                  <rdf:Description>
                     <stEvt:action>saved</stEvt:action>
                     <stEvt:instanceID>xmp.iid:6d55a7ae-7479-da45-b965-69a05daae8c6</stEvt:instanceID>
                     <stEvt:when>2022-07-25T09:32:21+05:00</stEvt:when>
                     <stEvt:softwareAgent>Adobe Bridge 2020 (Windows)</stEvt:softwareAgent>
                     <stEvt:changed>/metadata</stEvt:changed>
                  </rdf:Description>
               </rdf:li>
            </rdf:Seq>
         </xmpMM:History>
      </rdf:Description>
   </rdf:RDF>
</x:xmpmeta>
                                                                                                    
                                                                                                    
                                                                                                    
                                                                                                    
                                                                                                    
                                                                                                    
                                                                                                    
                                                                                                    
                                                                                                    
                                                                                                    
                                                                                                    
                                                                                                    
                                                                                                    
                                                                                                    
                                                                                                    
                                                                                                    
                                                                                                    
                                                                                                    
                                                                                                    
                                                                                                    
                           
<?xpacket end="w"?></metadata>
<mask id="mask0_514_83" style="mask-type:alpha" maskUnits="userSpaceOnUse" x="0" y="0" width="754" height="426">
<rect width="754" height="426" fill="#BD1111"/>
</mask>
<g mask="url(#mask0_514_83)">
<g filter="url(#filter0_f_514_83)">
<path d="M87 226L127.703 249.5V296.5L87 320L46.2968 296.5V249.5L87 226Z" fill="#A8CCB0" fill-opacity="0.35"/>
</g>
<g filter="url(#filter1_f_514_83)">
<path d="M112 71L131.919 82.5V105.5L112 117L92.0814 105.5V82.5L112 71Z" fill="#A8CCB0" fill-opacity="0.35"/>
</g>
<g filter="url(#filter2_f_514_83)">
<path d="M520 161L554.641 181V221L520 241L485.359 221V181L520 161Z" fill="#A8CCB0" fill-opacity="0.51"/>
</g>
<path d="M555.694 342.405L590.5 322.309L625.306 342.405V382.595L590.5 402.691L555.694 382.595V342.405Z" fill="#A7CDB0" stroke="#A7CDB0" stroke-width="4"/>
<path d="M323.5 269L343.852 280.75V304.25L323.5 316L303.148 304.25V280.75L323.5 269Z" fill="#A7CDB0" fill-opacity="0.53"/>
<path d="M361.5 283L388.78 298.75V330.25L361.5 346L334.22 330.25V298.75L361.5 283Z" fill="#A7CDB0" fill-opacity="0.53"/>
<path d="M483.5 192L494.325 198.5V211.5L483.5 218L472.675 211.5V198.5L483.5 192Z" fill="#A7CDB0"/>
<path d="M683 50L699.454 58.75V76.25L683 85L666.546 76.25V58.75L683 50Z" fill="#A0C5A8" fill-opacity="0.81"/>
<path d="M709.5 33L720.325 38.75V50.25L709.5 56L698.675 50.25V38.75L709.5 33Z" fill="#A0C5A8" fill-opacity="0.81"/>
<path d="M367.5 15L378.325 20.75V32.25L367.5 38L356.675 32.25V20.75L367.5 15Z" fill="#9FC4A6"/>
<path d="M342.5 107L356.789 115V131L342.5 139L328.211 131V115L342.5 107Z" fill="#9FC4A6"/>
<path d="M200.5 3L214.789 11V27L200.5 35L186.211 27V11L200.5 3Z" fill="#9FC4A6"/>
<path d="M281.5 144L300.12 154.25V174.75L281.5 185L262.88 174.75V154.25L281.5 144Z" fill="#9FC4A6"/>
<rect x="441" y="187" width="15" height="5" fill="#A7CDB0"/>
<rect x="643" y="164" width="15" height="5" fill="#A7CDB0"/>
<rect x="76" y="153" width="15" height="5" fill="#A7CDB0"/>
<rect x="627" y="173" width="15" height="5" fill="#A7CDB0"/>
<rect x="60" y="162" width="15" height="5" fill="#A7CDB0"/>
<rect x="480" y="401" width="15" height="5" fill="#A7CDB0"/>
<path d="M544 260L662 196" stroke="#A7CDB0" stroke-width="3" stroke-linecap="round"/>
<path d="M304.344 428L564.001 286" stroke="#A7CDB0" stroke-width="4.05714" stroke-linecap="round"/>
<path d="M319 432L350 415" stroke="#A7CDB0" stroke-width="4" stroke-linecap="round"/>
<path d="M358 376L544 274" stroke="#A7CDB0" stroke-width="4" stroke-linecap="round"/>
<path d="M455 309L514 277" stroke="#A7CDB0" stroke-width="4" stroke-linecap="round"/>
<path d="M411 273L455 250" stroke="#A7CDB0" stroke-width="4" stroke-linecap="round"/>
<path d="M564 241L669 183" stroke="#A7CDB0" stroke-width="3" stroke-linecap="round"/>
<path d="M496 414L544 388" stroke="#A7CDB0" stroke-width="4" stroke-linecap="round"/>
<path d="M545 348L589 324" stroke="#A7CDB0" stroke-width="4" stroke-linecap="round"/>
<line x1="564" y1="242" x2="564" y2="285" stroke="#A7CDB0" stroke-width="4" stroke-linecap="round"/>
<line x1="544" y1="261" x2="544" y2="273" stroke="#A7CDB0" stroke-width="4" stroke-linecap="round"/>
<line x1="470" y1="339" x2="470" y2="377" stroke="#A7CDB0" stroke-width="4" stroke-linecap="round"/>
<line x1="455" y1="250" x2="455" y2="308" stroke="#A7CDB0" stroke-width="4" stroke-linecap="round"/>
<line x1="514" y1="277" x2="514" y2="290" stroke="#A7CDB0" stroke-width="4" stroke-linecap="round"/>
<line x1="545" y1="349" x2="545" y2="387" stroke="#A7CDB0" stroke-width="4" stroke-linecap="round"/>
<line x1="407" y1="415" x2="351" y2="415" stroke="#A7CDB0" stroke-width="4" stroke-linecap="round"/>
<line x1="495" y1="415" x2="473" y2="415" stroke="#A7CDB0" stroke-width="4" stroke-linecap="round"/>
<line x1="457.885" y1="385.83" x2="439.831" y2="396.254" stroke="#A7CDB0" stroke-width="10" stroke-linecap="round"/>
<line x1="440.885" y1="256.83" x2="422.831" y2="267.254" stroke="#A7CDB0" stroke-width="10" stroke-linecap="round"/>
<path d="M197.885 356.83L169.5 372" stroke="#A7CDB0" stroke-width="10" stroke-linecap="round"/>
<line x1="470.45" y1="378.043" x2="407.304" y2="414.5" stroke="#A7CDB0" stroke-width="4" stroke-linecap="round"/>
<circle cx="698" cy="183" r="5.5" stroke="#A7CDB0" stroke-width="3"/>
<circle cx="740" cy="195" r="5.5" stroke="#A7CDB0" stroke-width="3"/>
<line x1="734.5" y1="195.5" x2="662.5" y2="195.5" stroke="#A7CDB0" stroke-width="3" stroke-linecap="round"/>
<line x1="691.5" y1="182.5" x2="669.5" y2="182.5" stroke="#A7CDB0" stroke-width="3" stroke-linecap="round"/>
<path d="M442 432L473 415" stroke="#A7CDB0" stroke-width="4" stroke-linecap="round"/>
<path d="M365 186L403 165" stroke="#A7CDB0" stroke-width="4" stroke-linecap="round"/>
<path d="M222 290L365 212" stroke="#A7CDB0" stroke-width="4" stroke-linecap="round"/>
<path d="M88 435L222 362" stroke="#A7CDB0" stroke-width="4" stroke-linecap="round"/>
<path d="M76 423L210 350" stroke="#A7CDB0" stroke-width="4" stroke-linecap="round"/>
<path d="M21 437L152 366" stroke="#A7CDB0" stroke-width="4" stroke-linecap="round"/>
<path d="M211 282L354 204" stroke="#A7CDB0" stroke-width="4" stroke-linecap="round"/>
<path d="M199 276L354 191" stroke="#A7CDB0" stroke-width="4" stroke-linecap="round"/>
<path d="M134 161L191 130" stroke="#A7CDB0" stroke-width="4" stroke-linecap="round"/>
<path d="M152 254L134 244" stroke="#A7CDB0" stroke-width="4" stroke-linecap="round"/>
<path d="M354 180L388 161" stroke="#A7CDB0" stroke-width="4" stroke-linecap="round"/>
<line x1="354" y1="180" x2="354" y2="203" stroke="#A7CDB0" stroke-width="4" stroke-linecap="round"/>
<line x1="365" y1="188" x2="365" y2="211" stroke="#A7CDB0" stroke-width="4" stroke-linecap="round"/>
<path d="M199 276L199 332" stroke="#A7CDB0" stroke-width="4" stroke-linecap="round"/>
<path d="M134 161L134 244" stroke="#A7CDB0" stroke-width="4" stroke-linecap="round"/>
<path d="M152 254L152 366" stroke="#A7CDB0" stroke-width="4" stroke-linecap="round"/>
<line x1="211" y1="283" x2="211" y2="349" stroke="#A7CDB0" stroke-width="4" stroke-linecap="round"/>
<line x1="222" y1="292" x2="222" y2="361" stroke="#A7CDB0" stroke-width="4" stroke-linecap="round"/>
<circle cx="407" cy="162" r="5" stroke="#A7CDB0" stroke-width="4"/>
<circle cx="353" cy="379" r="5" stroke="#A7CDB0" stroke-width="4"/>
<circle cx="196" cy="127" r="5" stroke="#A7CDB0" stroke-width="4"/>
<g filter="url(#filter3_d_514_83)">
<path fill-rule="evenodd" clip-rule="evenodd" d="M624.887 366.619L612 374.059V388.941L624.887 396.381L637.775 388.941V374.059L624.887 366.619ZM641.775 371.75L624.887 362L608 371.75V391.25L624.887 401L641.775 391.25V371.75Z" fill="#AED2B6"/>
</g>
<path d="M33.6562 359.445L118.953 309.555" stroke="#A4C9AD" stroke-width="4"/>
<path d="M117.344 359.445L32.0469 309.555" stroke="#A4C9AD" stroke-width="4"/>
<path d="M32.8997 309.905L75.5 285.309L118.1 309.905V359.095L75.5 383.691L32.8997 359.095V309.905Z" stroke="#A4C9AD" stroke-width="4"/>
<path d="M236.287 356.155L262 341.309L287.713 356.155V385.845L262 400.691L236.287 385.845V356.155Z" stroke="#A7CDB0" stroke-width="4"/>
<path d="M25 179L50.1147 193.5V222.5L25 237L-0.114737 222.5V193.5L25 179Z" fill="#A7CDB0" fill-opacity="0.29"/>
<path d="M120.35 97.0118L120.35 107.474L69.8404 136.636L60.7804 131.404L60.7795 120.942L111.29 91.7799L120.35 97.0118Z" stroke="#A7CDB0" stroke-width="3"/>
<g filter="url(#filter4_d_514_83)">
<path fill-rule="evenodd" clip-rule="evenodd" d="M209.703 179.75L184.703 165L159.703 179.75V209.25L184.703 224L209.703 209.25V179.75Z" fill="#A7CDB0" fill-opacity="0.8" shape-rendering="crispEdges"/>
</g>
<g filter="url(#filter5_d_514_83)">
<path fill-rule="evenodd" clip-rule="evenodd" d="M184.703 152.619L148 173.809V216.191L184.703 237.381L221.406 216.191V173.809L184.703 152.619ZM225.406 171.5L184.703 148L144 171.5V218.5L184.703 242L225.406 218.5V171.5Z" fill="#A7CDB0" fill-opacity="0.8" shape-rendering="crispEdges"/>
</g>
</g>
<defs>
<filter id="filter0_f_514_83" x="38.2969" y="218" width="97.4062" height="110" filterUnits="userSpaceOnUse" color-interpolation-filters="sRGB">
<feFlood flood-opacity="0" result="BackgroundImageFix"/>
<feBlend mode="normal" in="SourceGraphic" in2="BackgroundImageFix" result="shape"/>
<feGaussianBlur stdDeviation="4" result="effect1_foregroundBlur_514_83"/>
</filter>
<filter id="filter1_f_514_83" x="84.082" y="63" width="55.8359" height="62" filterUnits="userSpaceOnUse" color-interpolation-filters="sRGB">
<feFlood flood-opacity="0" result="BackgroundImageFix"/>
<feBlend mode="normal" in="SourceGraphic" in2="BackgroundImageFix" result="shape"/>
<feGaussianBlur stdDeviation="4" result="effect1_foregroundBlur_514_83"/>
</filter>
<filter id="filter2_f_514_83" x="477.359" y="153" width="85.2812" height="96" filterUnits="userSpaceOnUse" color-interpolation-filters="sRGB">
<feFlood flood-opacity="0" result="BackgroundImageFix"/>
<feBlend mode="normal" in="SourceGraphic" in2="BackgroundImageFix" result="shape"/>
<feGaussianBlur stdDeviation="4" result="effect1_foregroundBlur_514_83"/>
</filter>
<filter id="filter3_d_514_83" x="597" y="359" width="47.7754" height="53" filterUnits="userSpaceOnUse" color-interpolation-filters="sRGB">
<feFlood flood-opacity="0" result="BackgroundImageFix"/>
<feColorMatrix in="SourceAlpha" type="matrix" values="0 0 0 0 0 0 0 0 0 0 0 0 0 0 0 0 0 0 127 0" result="hardAlpha"/>
<feOffset dx="-4" dy="4"/>
<feGaussianBlur stdDeviation="3.5"/>
<feComposite in2="hardAlpha" operator="out"/>
<feColorMatrix type="matrix" values="0 0 0 0 0 0 0 0 0 0 0 0 0 0 0 0 0 0 0.08 0"/>
<feBlend mode="normal" in2="BackgroundImageFix" result="effect1_dropShadow_514_83"/>
<feBlend mode="normal" in="SourceGraphic" in2="effect1_dropShadow_514_83" result="shape"/>
</filter>
<filter id="filter4_d_514_83" x="147.703" y="153" width="66" height="75" filterUnits="userSpaceOnUse" color-interpolation-filters="sRGB">
<feFlood flood-opacity="0" result="BackgroundImageFix"/>
<feColorMatrix in="SourceAlpha" type="matrix" values="0 0 0 0 0 0 0 0 0 0 0 0 0 0 0 0 0 0 127 0" result="hardAlpha"/>
<feOffset dx="-4" dy="-4"/>
<feGaussianBlur stdDeviation="4"/>
<feComposite in2="hardAlpha" operator="out"/>
<feColorMatrix type="matrix" values="0 0 0 0 0 0 0 0 0 0 0 0 0 0 0 0 0 0 0.07 0"/>
<feBlend mode="normal" in2="BackgroundImageFix" result="effect1_dropShadow_514_83"/>
<feBlend mode="normal" in="SourceGraphic" in2="effect1_dropShadow_514_83" result="shape"/>
</filter>
<filter id="filter5_d_514_83" x="132" y="144" width="97.4062" height="110" filterUnits="userSpaceOnUse" color-interpolation-filters="sRGB">
<feFlood flood-opacity="0" result="BackgroundImageFix"/>
<feColorMatrix in="SourceAlpha" type="matrix" values="0 0 0 0 0 0 0 0 0 0 0 0 0 0 0 0 0 0 127 0" result="hardAlpha"/>
<feOffset dx="-4" dy="4"/>
<feGaussianBlur stdDeviation="4"/>
<feComposite in2="hardAlpha" operator="out"/>
<feColorMatrix type="matrix" values="0 0 0 0 0 0 0 0 0 0 0 0 0 0 0 0 0 0 0.07 0"/>
<feBlend mode="normal" in2="BackgroundImageFix" result="effect1_dropShadow_514_83"/>
<feBlend mode="normal" in="SourceGraphic" in2="effect1_dropShadow_514_83" result="shape"/>
</filter>
</defs>
</svg>
