<svg width="280" height="76" viewBox="0 0 280 76" fill="none" xmlns="http://www.w3.org/2000/svg">
<g clip-path="url(#clip0_352_309)">
<path fill-rule="evenodd" clip-rule="evenodd" d="M69.8136 18.9603V57.0565L34.9038 75.9992L0 57.0565V18.9603L34.9038 -0.000488281L69.8136 18.9603Z" fill="white"/>
<path d="M34.9038 4.81648L65.5876 21.4832V54.5155L34.9038 71.1702L4.22605 54.5155V21.5012L34.9038 4.81648ZM34.9038 -0.000488281L0 18.9603V57.0565L34.9038 75.9992L69.8136 57.0565V18.9603L34.9038 -0.000488281Z" fill="#850E1C"/>
<path fill-rule="evenodd" clip-rule="evenodd" d="M28.5465 26.1194V25.5956H28.0915L28.5465 26.1194ZM28.5944 29.6298L28.5525 26.7758L27.7683 25.8906L26.9842 30.9906L28.5944 29.6298ZM28.6363 32.8692L28.6003 30.1777L27.0081 31.5205L28.6363 32.8692ZM28.732 40.4318L28.6842 37.2045L25.9366 38.9386L28.732 40.4318ZM29.0852 33.8085L29.1211 36.4458L30.9169 35.3198L29.0852 33.8085ZM29.0313 29.8165L29.0792 33.2546L30.9648 34.8201L30.1447 28.9012L29.0313 29.8165ZM28.9954 27.3056V29.2685L29.9651 28.4436L28.9954 27.3056ZM28.9954 25.6076V26.6433L29.9891 27.7753L29.6898 25.6076H28.9954ZM28.2352 40.6607H27.9898C27.1405 40.6601 26.2943 40.7632 25.4697 40.9677L25.7391 39.2818L28.2352 40.6607ZM31.9106 41.4374C31.0604 41.0827 30.1663 40.8458 29.2528 40.7329H29.2049L29.1511 36.9817L31.1084 35.7775L31.9106 41.4374ZM20.8247 24.1445V25.0898L21.2556 24.6141L20.8247 24.1445ZM21.3215 24.0481V23.7772H21.0761L21.3215 24.0481ZM20.8247 27.1491L21.2556 26.6734L20.8247 26.2098V27.1491ZM20.8247 29.2143L21.2556 28.7507L20.8247 28.2991V29.2143ZM21.3215 27.2394L20.8905 27.697L21.3215 28.1667V27.2394ZM20.8965 25.6498L21.3215 26.1134V25.1801L20.8965 25.6498ZM28.9655 24.3311H29.5102L29.6299 25.1862H28.9775L28.9655 24.3311ZM28.0077 24.3311H28.5225V25.1862H27.8641L28.0077 24.3311ZM20.7349 21.5795L13.1268 23.2052H20.3817L20.7349 21.5795ZM24.6975 23.2052L21.3634 21.6758L21.6926 23.2112L24.6975 23.2052ZM25.4099 38.3365V23.6146H21.7644V29.3348H25.0806V35.2536H24.8711V40.1609V40.5583V41.0882H24.9789L25.4099 38.3365ZM25.8528 38.3365V38.4268V38.5051L28.7141 36.6987L28.6722 33.4111L26.8764 31.9179L25.8528 38.3365ZM11.9176 31.6349C11.913 31.7605 11.866 31.8807 11.7844 31.9759C11.7028 32.0711 11.5915 32.1356 11.4687 32.1587V32.4718C11.695 32.4777 11.9106 32.57 12.0717 32.7299C12.2329 32.8898 12.3276 33.1053 12.3366 33.3328C12.2528 33.935 11.8099 34.1276 11.2532 34.1638C10.6965 34.1999 10.0859 33.8627 10.0859 33.2666H10.6187C10.6187 33.5797 10.9479 33.658 11.2173 33.67C11.5525 33.67 11.8159 33.5677 11.8159 33.3027C11.8159 32.9294 11.1814 32.8933 10.9479 32.8933V32.1527C10.8246 32.1252 10.7148 32.055 10.6377 31.9544C10.5607 31.8538 10.5212 31.7291 10.5262 31.6022C10.5311 31.4753 10.5803 31.3541 10.6651 31.26C10.7498 31.1658 10.8647 31.1045 10.9898 31.0869V23.2594L11.1634 23.2232L21.0162 21.1158H21.1659L25.7391 23.2293L25.8588 23.2895V35.4282L27.5349 24.3311H27.2954V20.7184H27.7144V18.1715H27.7504C27.6737 18.0262 27.6134 17.8727 27.5708 17.7138C27.4212 16.9381 27.3969 16.1431 27.4989 15.3596C27.5349 15.0043 27.5768 14.643 27.6246 14.2818L28.1095 14.3239C28.2053 14.1768 28.2743 14.0137 28.313 13.8422C28.4385 13.326 28.5226 12.8004 28.5644 12.2707C28.6363 11.3615 28.6363 11.0664 28.6842 10.1753C29.1078 10.333 29.4677 10.6273 29.7077 11.0122L29.8514 11.3735C30.049 12.1615 30.1575 12.9695 30.1746 13.782V14.4383C30.1887 15.2855 30.1426 16.1326 30.037 16.9732L29.9352 17.5091C29.8794 17.7376 29.8054 17.9611 29.7137 18.1775H29.9292V20.7365H30.3662V24.3492H29.9771L30.1208 25.3788L32.3954 41.6361C32.569 41.7204 32.7366 41.8047 32.9042 41.901L33.413 32.6163L34.1792 18.5568L34.4366 13.9385H38.3095L38.6806 18.0631C39.6623 28.0021 40.642 37.9431 41.6197 47.8861L42.5116 56.9179H31.8687L32.0063 54.943C30.8887 55.4225 29.6945 55.6957 28.4806 55.7498L28.1334 56.6349H27.6366L27.2535 55.7137C26.3342 55.6493 25.4279 55.4589 24.5599 55.1477C23.3088 56.5988 20.274 56.8095 18.4722 56.8998C16.3053 56.8998 14.2821 56.7072 12.3606 55.7378C12.1098 55.6065 11.8878 55.4259 11.7078 55.2066C11.5278 54.9873 11.3936 54.7338 11.313 54.4613C11.313 47.7697 11.325 41.0801 11.349 34.3926H17.7718V29.3348H20.3817V23.6146H11.4028V31.0809C11.5421 31.0915 11.6723 31.1543 11.7676 31.2569C11.863 31.3595 11.9165 31.4944 11.9176 31.6349ZM11.4028 31.6349C11.4028 31.5686 11.2652 31.5566 11.2053 31.5566C11.1454 31.5566 11.0557 31.5566 11.0557 31.6349C11.0557 31.7131 11.1634 31.7252 11.2173 31.7252C11.2711 31.7252 11.3729 31.6891 11.4028 31.6168V31.6349ZM21.2377 23.2052L21.0401 22.2779L20.8366 23.2052H21.2377Z" fill="black"/>
<path fill-rule="evenodd" clip-rule="evenodd" d="M27.0139 55.2019C25.3263 55.0484 23.7152 54.4227 22.3629 53.3956L24.9428 50.1983L27.0139 55.2019ZM33.5565 53.4377C32.1396 54.5001 30.4474 55.1274 28.684 55.2441L30.809 50.0598L33.5565 53.4377ZM27.9777 41.1123C32.5808 41.1123 36.3579 44.2855 36.3579 48.1812C36.357 48.627 36.3068 49.0712 36.2083 49.5059C35.864 50.9063 35.0838 52.1595 33.9815 53.0825L30.9467 49.3734L30.6594 49.0121L30.4858 49.4336L28.0914 55.232H27.5826L25.2481 49.6082L25.0745 49.1928L24.7872 49.554L21.9678 53.0885C21.2433 52.4899 20.657 51.7397 20.2498 50.8902C19.8425 50.0407 19.624 49.1122 19.6094 48.1692C19.6094 44.2855 23.3446 41.1123 27.9777 41.1123Z" fill="#828282"/>
<path fill-rule="evenodd" clip-rule="evenodd" d="M18.1253 39.1376C16.5945 39.1223 15.065 39.2331 13.5521 39.4688C13.5162 39.4688 11.8162 39.7518 11.8461 40.0709C11.876 40.39 13.2049 40.5767 13.5102 40.6309C15.2384 40.9006 16.9877 41.0094 18.7359 40.956C19.4123 40.956 24.3686 40.7935 24.3746 40.0288C24.2968 39.7759 23.6683 39.6615 22.6806 39.4869C21.1741 39.246 19.6507 39.1292 18.1253 39.1376Z" fill="#828282"/>
<path fill-rule="evenodd" clip-rule="evenodd" d="M21.6453 53.4856C20.8619 52.8188 20.2205 51.9996 19.7598 51.0771V55.8339L21.6453 53.4856Z" fill="#BEC3C2"/>
<path fill-rule="evenodd" clip-rule="evenodd" d="M20.0469 56.2918H20.3342L20.6095 56.2436H20.8849L21.1543 56.1774L21.4176 56.1292L21.6571 56.069L21.9085 56.0028L22.1659 55.9365L22.3874 55.8763L22.5909 55.798L22.8064 55.7137L23.0039 55.6355L23.1895 55.5572L23.3451 55.3946L23.5067 55.2923L23.6683 55.1959L23.8 55.1056L23.9198 55.0153L24.0095 54.931C23.304 54.6372 22.6383 54.2548 22.0282 53.793L20.0469 56.2918Z" fill="#BEC3C2"/>
<path fill-rule="evenodd" clip-rule="evenodd" d="M24.2845 40.7031C23.8073 40.9113 23.3069 41.0609 22.7941 41.1487C18.6937 41.7508 14.7849 41.6183 11.8398 40.679V54.4014C12.193 55.5394 14.1444 55.9849 15.2758 56.2077L15.5511 56.2559C16.7685 56.402 17.9956 56.4483 19.2205 56.3944V49.6205C19.117 49.144 19.0688 48.6571 19.0768 48.1694C19.0768 45.1046 21.2437 42.4493 24.3504 41.2691V40.667L24.2845 40.7031Z" fill="#BEC3C2"/>
<path d="M37.7888 14.4082H34.9275L34.718 18.0631H38.136L37.7828 14.4504L37.7888 14.4082ZM38.1958 18.5327H34.718L34.5624 21.0737H38.4412L38.1958 18.5689V18.5327ZM38.4891 21.5433H34.5384L34.3469 24.9634H36.7951V25.4571H35.55V26.1917H37.7708V26.6794H36.861V27.414H37.1483V27.9017H35.55V28.6002H35.0173V27.8897H34.6402V27.402H36.3222V26.6674H34.2571L33.9279 32.5983H39.5786L38.4891 21.5313V21.5433ZM35.0173 25.4571H34.3229L34.281 26.1917H35.0173V25.4451V25.4571ZM39.6264 33.1161H33.9039L33.7363 36.1267H39.9257L39.6264 33.1161ZM39.9736 36.6566H33.7064L33.4011 42.2262C34.4262 42.8474 35.2807 43.7165 35.887 44.7543C36.4933 45.7922 36.8322 46.966 36.8729 48.1691C36.8731 48.6471 36.8209 49.1236 36.7173 49.5901V56.3098H41.8592L41.2067 49.1445L40.5782 42.75H38.5849V43.4123H38.0462V42.75H36.7173V42.2623H37.0585V41.2808H34.5384V40.7931H35.6219V39.8779H35.143V39.3902H36.7652V38.7098H37.3039V39.3902H39.0638V38.3425H39.5965V39.3902H40.249L39.9736 36.6265V36.6566ZM40.2969 39.908H38.5011V40.8232H39.5067V41.3109H37.5972V42.2623H40.5303L40.2969 39.908ZM37.9444 39.908H36.1486V40.8232H37.9444V39.8779V39.908ZM36.1846 51.0954C35.7181 52.0209 35.0682 52.8405 34.275 53.5039L36.1846 55.8642V51.0954ZM33.874 53.829C33.461 54.1409 33.0225 54.4168 32.5631 54.6539L32.4434 56.4061H35.9631L33.874 53.817V53.829Z" fill="#850E1C"/>
<path fill-rule="evenodd" clip-rule="evenodd" d="M28.247 20.7248H29.3783V18.6655H28.247V20.7248ZM27.834 23.8438H29.8093V21.2185H27.834V23.8438Z" fill="#878A8B"/>
<path fill-rule="evenodd" clip-rule="evenodd" d="M19.5625 33.7785H20.3826V30.9907H19.5625V33.7785ZM21.0949 30.9907H20.8255V31.3098L21.0949 30.9907ZM21.3224 31.3761L20.8914 31.8518L21.3224 32.3214V31.3761ZM20.8255 32.4177V33.351V32.4177ZM21.0171 33.7785H21.3224V33.4474L21.0171 33.7785ZM21.7653 33.7785H23.3456V30.9907H21.7893L21.7653 33.7785Z" fill="#B78B69"/>
<path fill-rule="evenodd" clip-rule="evenodd" d="M18.3105 34.7662H20.3817V34.2724H19.0289V30.5032H20.3817V29.8468H18.3105V34.7662ZM21.7644 34.7662H24.5419V29.8228H21.7644V30.5032H23.8535V34.2724H21.7644V34.7662ZM21.3215 29.8228H20.9503L21.3334 30.2442L21.3215 29.8228ZM20.8246 30.5032H20.9503L20.8007 30.3406L20.8246 30.5032ZM21.3215 34.2724H21.2197L21.3215 34.3808V34.2724ZM20.8246 34.7662H21.088L20.8246 34.4771V34.7662Z" fill="#F5CFB3"/>
<path fill-rule="evenodd" clip-rule="evenodd" d="M29.0975 11.1504C29.6482 11.8067 29.8996 16.8886 29.1753 18.1651H28.3134C27.9662 17.6473 27.8884 16.437 28.0979 14.8113C28.8102 14.9197 28.9958 13.3421 29.0975 11.1504Z" fill="#F16914"/>
<path fill-rule="evenodd" clip-rule="evenodd" d="M18.1804 38.6622V34.8809H11.8652V39.3968C12.0477 39.329 12.2335 39.2707 12.4219 39.2221V35.5251H17.474V38.6802H18.1804V38.6622ZM12.9607 39.0596H13.254L13.5652 38.9994C14.6827 38.8236 15.8105 38.7231 16.9413 38.6983V36.0008H12.9607V39.0596Z" fill="#F5CFB3"/>
<path fill-rule="evenodd" clip-rule="evenodd" d="M12.959 39.1009L13.2523 39.0407L13.5636 38.9805C14.681 38.8048 15.8089 38.7042 16.9396 38.6794V36H12.959V39.1009Z" fill="#B78B69"/>
<path fill-rule="evenodd" clip-rule="evenodd" d="M20.8242 37.4818L21.2552 37.0061L20.8242 36.5364V37.4818ZM21.321 37.5721L20.8901 38.0477L21.321 38.5174V37.5721ZM21.321 35.5068L20.896 35.9704L21.321 36.4401V35.5068ZM20.9499 38.7703H20.8063V38.6258L20.9499 38.7703ZM18.6992 38.6619V35.2539H20.3633V38.7281C19.8246 38.692 19.2679 38.6739 18.7172 38.6619H18.6992ZM24.3858 35.2539H21.764V38.8666C22.2369 38.9208 22.6978 38.9931 23.1587 39.0834C23.5058 39.1441 23.848 39.2306 24.1823 39.3423L24.4038 39.4326L24.3858 35.2539Z" fill="#B78B69"/>
<path fill-rule="evenodd" clip-rule="evenodd" d="M41.332 56.5987C41.6074 54.5636 43.0081 44.0746 43.3313 40.3415C43.6426 36.7288 44.0257 26.4927 44.0975 24.6201H53.3338C53.3996 26.4927 53.7827 36.7288 54.1 40.3415C54.4172 44.0566 55.8239 54.5455 56.0933 56.5987H41.332Z" fill="#BEC3C2"/>
<path d="M53.0418 24.939C53.1316 27.4017 53.4967 36.9273 53.796 40.3894C54.0953 43.8516 55.3943 53.6361 55.7534 56.2975H41.6806C42.0397 53.6241 43.3267 43.9359 43.632 40.3894C43.9373 36.843 44.2964 27.4017 44.3922 24.939H53.0418ZM53.6404 24.3369H43.8056C43.8056 24.3369 43.3806 36.3312 43.0334 40.3413C42.6742 44.4839 40.9922 56.9116 40.9922 56.9116H56.4418C56.4418 56.9116 54.7598 44.4778 54.4006 40.3413C54.0534 36.3372 53.6225 24.3369 53.6225 24.3369H53.6404Z" fill="black"/>
<path d="M43.8711 31.4663H53.67" stroke="black" stroke-width="0.706974" stroke-miterlimit="10"/>
<path d="M43.8711 33.4595H53.67" stroke="black" stroke-width="0.706974" stroke-miterlimit="10"/>
<path d="M43.0098 44.3398H54.4488" stroke="black" stroke-width="0.706974" stroke-miterlimit="10"/>
<path d="M42.5117 46.6338H54.8666" stroke="black" stroke-width="0.706974" stroke-miterlimit="10"/>
<path d="M54.9801 48.9282H42.4336" stroke="black" stroke-width="0.706974" stroke-miterlimit="10"/>
</g>
<path d="M90.7883 28.2924V24.7299C90.7883 24.4629 90.7399 24.2328 90.6433 24.0395C90.5466 23.8461 90.3993 23.6966 90.2014 23.5907C90.0081 23.4848 89.7642 23.4319 89.4696 23.4319C89.198 23.4319 88.9633 23.4779 88.7654 23.57C88.5675 23.662 88.4133 23.7863 88.3028 23.9428C88.1923 24.0993 88.1371 24.2765 88.1371 24.4744H86.4801C86.4801 24.1798 86.5515 23.8945 86.6942 23.6183C86.8369 23.3422 87.044 23.0959 87.3155 22.8796C87.5871 22.6633 87.9116 22.493 88.289 22.3687C88.6664 22.2444 89.0899 22.1823 89.5593 22.1823C90.1209 22.1823 90.618 22.2766 91.0506 22.4653C91.4879 22.6541 91.8308 22.9394 92.0793 23.3214C92.3325 23.6989 92.459 24.1729 92.459 24.7437V28.0645C92.459 28.4051 92.4821 28.7112 92.5281 28.9828C92.5787 29.2497 92.6501 29.4821 92.7421 29.6801V29.7905H91.0368C90.9586 29.611 90.8964 29.3832 90.8504 29.107C90.809 28.8263 90.7883 28.5547 90.7883 28.2924ZM91.0299 25.2477L91.0437 26.2764H89.8493C89.5409 26.2764 89.2694 26.3063 89.0346 26.3661C88.7999 26.4214 88.6043 26.5042 88.4478 26.6147C88.2913 26.7251 88.1739 26.8586 88.0957 27.0151C88.0174 27.1716 87.9783 27.3488 87.9783 27.5467C87.9783 27.7446 88.0244 27.9264 88.1164 28.0921C88.2085 28.2532 88.3419 28.3798 88.5168 28.4719C88.6963 28.5639 88.9127 28.6099 89.1658 28.6099C89.5064 28.6099 89.8033 28.5409 90.0564 28.4028C90.3142 28.2601 90.5167 28.0875 90.664 27.885C90.8113 27.6779 90.8895 27.4823 90.8987 27.2982L91.4372 28.0369C91.382 28.2256 91.2877 28.4281 91.1542 28.6445C91.0207 28.8608 90.8458 29.0679 90.6295 29.2658C90.4178 29.4591 90.1623 29.6179 89.8631 29.7422C89.5686 29.8665 89.228 29.9286 88.8413 29.9286C88.3534 29.9286 87.9185 29.832 87.5365 29.6386C87.1544 29.4407 86.8553 29.1761 86.6389 28.8447C86.4226 28.5087 86.3145 28.129 86.3145 27.7055C86.3145 27.3097 86.3881 26.9599 86.5354 26.6561C86.6873 26.3477 86.9082 26.09 87.1982 25.8828C87.4927 25.6757 87.8517 25.5192 88.2752 25.4134C88.6986 25.3029 89.1819 25.2477 89.725 25.2477H91.0299ZM97.5542 22.3204V29.7905H95.8834V22.3204H97.5542ZM100.005 22.3204V23.6321H93.4739V22.3204H100.005ZM104.583 22.3204V29.7905H102.912V22.3204H104.583ZM107.033 22.3204V23.6321H100.502V22.3204H107.033ZM110.927 29.9286C110.375 29.9286 109.876 29.8389 109.429 29.6594C108.987 29.4752 108.61 29.2198 108.297 28.893C107.989 28.5662 107.751 28.1819 107.586 27.74C107.42 27.2982 107.337 26.8218 107.337 26.3109V26.0347C107.337 25.4502 107.422 24.9209 107.593 24.4468C107.763 23.9727 108 23.5677 108.304 23.2317C108.608 22.8911 108.967 22.631 109.381 22.4515C109.795 22.272 110.244 22.1823 110.727 22.1823C111.261 22.1823 111.728 22.272 112.129 22.4515C112.529 22.631 112.86 22.8842 113.123 23.211C113.39 23.5332 113.588 23.9175 113.717 24.364C113.85 24.8104 113.917 25.3029 113.917 25.8414V26.5525H108.145V25.3581H112.274V25.227C112.264 24.9278 112.205 24.647 112.094 24.3847C111.988 24.1223 111.825 23.9106 111.604 23.7495C111.383 23.5884 111.088 23.5079 110.72 23.5079C110.444 23.5079 110.198 23.5677 109.981 23.6874C109.77 23.8024 109.593 23.9704 109.45 24.1914C109.307 24.4123 109.197 24.6792 109.118 24.9922C109.045 25.3006 109.008 25.6481 109.008 26.0347V26.3109C109.008 26.6377 109.052 26.9415 109.139 27.2222C109.231 27.4984 109.365 27.74 109.54 27.9471C109.715 28.1543 109.926 28.3177 110.175 28.4373C110.423 28.5524 110.706 28.6099 111.024 28.6099C111.424 28.6099 111.781 28.5294 112.094 28.3683C112.407 28.2072 112.679 27.9794 112.909 27.6848L113.786 28.534C113.625 28.7687 113.415 28.9943 113.157 29.2106C112.9 29.4223 112.584 29.5949 112.212 29.7284C111.843 29.8619 111.415 29.9286 110.927 29.9286ZM118.266 28.603C118.538 28.603 118.782 28.5501 118.998 28.4442C119.219 28.3338 119.396 28.1819 119.53 27.9886C119.668 27.7953 119.744 27.572 119.758 27.3189H121.325C121.316 27.8022 121.173 28.2417 120.897 28.6376C120.621 29.0334 120.255 29.3487 119.799 29.5834C119.343 29.8135 118.839 29.9286 118.287 29.9286C117.716 29.9286 117.219 29.832 116.796 29.6386C116.372 29.4407 116.02 29.1692 115.739 28.824C115.459 28.4788 115.247 28.0806 115.104 27.6296C114.966 27.1785 114.897 26.6952 114.897 26.1797V25.9381C114.897 25.4226 114.966 24.9393 115.104 24.4882C115.247 24.0326 115.459 23.6321 115.739 23.2869C116.02 22.9417 116.372 22.6725 116.796 22.4791C117.219 22.2812 117.714 22.1823 118.28 22.1823C118.879 22.1823 119.403 22.3019 119.854 22.5413C120.305 22.776 120.66 23.1051 120.917 23.5286C121.18 23.9474 121.316 24.4353 121.325 24.9922H119.758C119.744 24.7161 119.675 24.4675 119.55 24.2466C119.431 24.0211 119.261 23.8415 119.04 23.7081C118.823 23.5746 118.563 23.5079 118.259 23.5079C117.923 23.5079 117.645 23.5769 117.424 23.715C117.203 23.8485 117.031 24.0326 116.906 24.2673C116.782 24.4974 116.692 24.7575 116.637 25.0475C116.586 25.3328 116.561 25.6297 116.561 25.9381V26.1797C116.561 26.4881 116.586 26.7873 116.637 27.0772C116.688 27.3672 116.775 27.6273 116.899 27.8574C117.028 28.0829 117.203 28.2647 117.424 28.4028C117.645 28.5363 117.926 28.603 118.266 28.603ZM126.068 22.3204V29.7905H124.397V22.3204H126.068ZM128.519 22.3204V23.6321H121.988V22.3204H128.519ZM133.731 28.2924V24.7299C133.731 24.4629 133.683 24.2328 133.586 24.0395C133.49 23.8461 133.342 23.6966 133.145 23.5907C132.951 23.4848 132.707 23.4319 132.413 23.4319C132.141 23.4319 131.906 23.4779 131.709 23.57C131.511 23.662 131.356 23.7863 131.246 23.9428C131.135 24.0993 131.08 24.2765 131.08 24.4744H129.423C129.423 24.1798 129.495 23.8945 129.637 23.6183C129.78 23.3422 129.987 23.0959 130.259 22.8796C130.53 22.6633 130.855 22.493 131.232 22.3687C131.61 22.2444 132.033 22.1823 132.502 22.1823C133.064 22.1823 133.561 22.2766 133.994 22.4653C134.431 22.6541 134.774 22.9394 135.022 23.3214C135.276 23.6989 135.402 24.1729 135.402 24.7437V28.0645C135.402 28.4051 135.425 28.7112 135.471 28.9828C135.522 29.2497 135.593 29.4821 135.685 29.6801V29.7905H133.98C133.902 29.611 133.84 29.3832 133.794 29.107C133.752 28.8263 133.731 28.5547 133.731 28.2924ZM133.973 25.2477L133.987 26.2764H132.792C132.484 26.2764 132.213 26.3063 131.978 26.3661C131.743 26.4214 131.547 26.5042 131.391 26.6147C131.234 26.7251 131.117 26.8586 131.039 27.0151C130.961 27.1716 130.921 27.3488 130.921 27.5467C130.921 27.7446 130.967 27.9264 131.06 28.0921C131.152 28.2532 131.285 28.3798 131.46 28.4719C131.639 28.5639 131.856 28.6099 132.109 28.6099C132.45 28.6099 132.746 28.5409 133 28.4028C133.257 28.2601 133.46 28.0875 133.607 27.885C133.754 27.6779 133.833 27.4823 133.842 27.2982L134.38 28.0369C134.325 28.2256 134.231 28.4281 134.097 28.6445C133.964 28.8608 133.789 29.0679 133.573 29.2658C133.361 29.4591 133.105 29.6179 132.806 29.7422C132.512 29.8665 132.171 29.9286 131.784 29.9286C131.297 29.9286 130.862 29.832 130.48 29.6386C130.098 29.4407 129.798 29.1761 129.582 28.8447C129.366 28.5087 129.258 28.129 129.258 27.7055C129.258 27.3097 129.331 26.9599 129.479 26.6561C129.63 26.3477 129.851 26.09 130.141 25.8828C130.436 25.6757 130.795 25.5192 131.218 25.4134C131.642 25.3029 132.125 25.2477 132.668 25.2477H133.973ZM137.197 29.7905V22.3204H138.861V28.465H141.788V22.3204H143.459V29.7905H137.197ZM144.474 28.4719L144.343 32.0067H142.817V29.7905H141.92V28.4719H144.474ZM147.367 27.3603L150.301 22.3204H151.965V29.7905H150.301V24.7437L147.367 29.7905H145.703V22.3204H147.367V27.3603ZM153.408 26.1383V25.9795C153.408 25.441 153.486 24.9416 153.643 24.4813C153.799 24.0164 154.025 23.6137 154.319 23.2731C154.618 22.9279 154.982 22.661 155.41 22.4722C155.843 22.2789 156.331 22.1823 156.874 22.1823C157.421 22.1823 157.909 22.2789 158.337 22.4722C158.77 22.661 159.136 22.9279 159.435 23.2731C159.734 23.6137 159.962 24.0164 160.119 24.4813C160.275 24.9416 160.353 25.441 160.353 25.9795V26.1383C160.353 26.6768 160.275 27.1762 160.119 27.6365C159.962 28.0967 159.734 28.4995 159.435 28.8447C159.136 29.1853 158.772 29.4522 158.344 29.6455C157.916 29.8343 157.431 29.9286 156.888 29.9286C156.34 29.9286 155.85 29.8343 155.417 29.6455C154.989 29.4522 154.625 29.1853 154.326 28.8447C154.027 28.4995 153.799 28.0967 153.643 27.6365C153.486 27.1762 153.408 26.6768 153.408 26.1383ZM155.072 25.9795V26.1383C155.072 26.4743 155.106 26.7919 155.175 27.091C155.244 27.3902 155.353 27.6526 155.5 27.8781C155.647 28.1036 155.836 28.2808 156.066 28.4097C156.296 28.5386 156.57 28.603 156.888 28.603C157.196 28.603 157.463 28.5386 157.688 28.4097C157.919 28.2808 158.107 28.1036 158.255 27.8781C158.402 27.6526 158.51 27.3902 158.579 27.091C158.653 26.7919 158.689 26.4743 158.689 26.1383V25.9795C158.689 25.6481 158.653 25.3351 158.579 25.0405C158.51 24.7414 158.4 24.4767 158.248 24.2466C158.1 24.0164 157.912 23.8369 157.681 23.7081C157.456 23.5746 157.187 23.5079 156.874 23.5079C156.561 23.5079 156.289 23.5746 156.059 23.7081C155.834 23.8369 155.647 24.0164 155.5 24.2466C155.353 24.4767 155.244 24.7414 155.175 25.0405C155.106 25.3351 155.072 25.6481 155.072 25.9795ZM166.85 25.441V26.7528H162.984V25.441H166.85ZM163.467 22.3204V29.7905H161.803V22.3204H163.467ZM168.051 22.3204V29.7905H166.387V22.3204H168.051ZM174.928 25.441V26.7528H171.062V25.441H174.928ZM171.545 22.3204V29.7905H169.881V22.3204H171.545ZM176.129 22.3204V29.7905H174.465V22.3204H176.129ZM179.139 24.6953H181.342C181.986 24.6953 182.534 24.8035 182.985 25.0198C183.436 25.2362 183.779 25.5376 184.014 25.9243C184.253 26.3063 184.373 26.7435 184.373 27.236C184.373 27.5996 184.306 27.9379 184.172 28.2509C184.039 28.5593 183.841 28.8286 183.579 29.0587C183.321 29.2888 183.003 29.4683 182.626 29.5972C182.253 29.7261 181.825 29.7905 181.342 29.7905H178.035V22.3204H179.705V28.4719H181.342C181.673 28.4719 181.938 28.4143 182.136 28.2993C182.334 28.1842 182.476 28.0346 182.564 27.8505C182.656 27.6664 182.702 27.4708 182.702 27.2636C182.702 27.0519 182.656 26.8517 182.564 26.663C182.476 26.4743 182.334 26.3201 182.136 26.2004C181.938 26.0808 181.673 26.0209 181.342 26.0209H179.139V24.6953ZM187.314 22.3204V29.7905H185.65V22.3204H187.314ZM191 27.3603L193.935 22.3204H195.598V29.7905H193.935V24.7437L191 29.7905H189.337V22.3204H191V27.3603ZM193.493 19.4483H194.729C194.729 19.8303 194.637 20.1686 194.452 20.4632C194.273 20.7531 194.015 20.981 193.679 21.1467C193.348 21.3124 192.952 21.3952 192.492 21.3952C191.797 21.3952 191.247 21.2157 190.842 20.8567C190.441 20.4931 190.241 20.0236 190.241 19.4483H191.477C191.477 19.706 191.553 19.9339 191.705 20.1318C191.861 20.3251 192.123 20.4217 192.492 20.4217C192.855 20.4217 193.113 20.3251 193.265 20.1318C193.417 19.9339 193.493 19.706 193.493 19.4483ZM200.935 29.7905V22.3204H202.599V28.465H205.526V22.3204H207.197V29.7905H200.935ZM208.212 28.4719L208.081 32.0067H206.555V29.7905H205.658V28.4719H208.212ZM212.679 29.9286C212.127 29.9286 211.627 29.8389 211.181 29.6594C210.739 29.4752 210.362 29.2198 210.049 28.893C209.74 28.5662 209.503 28.1819 209.338 27.74C209.172 27.2982 209.089 26.8218 209.089 26.3109V26.0347C209.089 25.4502 209.174 24.9209 209.344 24.4468C209.515 23.9727 209.752 23.5677 210.056 23.2317C210.359 22.8911 210.718 22.631 211.133 22.4515C211.547 22.272 211.996 22.1823 212.479 22.1823C213.013 22.1823 213.48 22.272 213.88 22.4515C214.281 22.631 214.612 22.8842 214.875 23.211C215.142 23.5332 215.339 23.9175 215.468 24.364C215.602 24.8104 215.669 25.3029 215.669 25.8414V26.5525H209.897V25.3581H214.025V25.227C214.016 24.9278 213.956 24.647 213.846 24.3847C213.74 24.1223 213.577 23.9106 213.356 23.7495C213.135 23.5884 212.84 23.5079 212.472 23.5079C212.196 23.5079 211.95 23.5677 211.733 23.6874C211.521 23.8024 211.344 23.9704 211.202 24.1914C211.059 24.4123 210.948 24.6792 210.87 24.9922C210.797 25.3006 210.76 25.6481 210.76 26.0347V26.3109C210.76 26.6377 210.803 26.9415 210.891 27.2222C210.983 27.4984 211.116 27.74 211.291 27.9471C211.466 28.1543 211.678 28.3177 211.927 28.4373C212.175 28.5524 212.458 28.6099 212.776 28.6099C213.176 28.6099 213.533 28.5294 213.846 28.3683C214.159 28.2072 214.43 27.9794 214.661 27.6848L215.537 28.534C215.376 28.7687 215.167 28.9943 214.909 29.2106C214.651 29.4223 214.336 29.5949 213.963 29.7284C213.595 29.8619 213.167 29.9286 212.679 29.9286ZM222.069 25.441V26.7528H218.202V25.441H222.069ZM218.686 22.3204V29.7905H217.022V22.3204H218.686ZM223.27 22.3204V29.7905H221.606V22.3204H223.27ZM228.51 22.3204V29.7905H226.839V22.3204H228.51ZM230.961 22.3204V23.6321H224.43V22.3204H230.961ZM233.743 23.7564V32.6626H232.079V22.3204H233.612L233.743 23.7564ZM238.611 25.9864V26.1314C238.611 26.6745 238.546 27.1785 238.417 27.6434C238.293 28.1036 238.107 28.5064 237.858 28.8516C237.614 29.1922 237.313 29.4568 236.954 29.6455C236.595 29.8343 236.18 29.9286 235.711 29.9286C235.246 29.9286 234.839 29.8435 234.489 29.6732C234.144 29.4983 233.851 29.252 233.612 28.9344C233.373 28.6168 233.179 28.244 233.032 27.816C232.889 27.3833 232.788 26.9092 232.728 26.3937V25.8345C232.788 25.2868 232.889 24.7897 233.032 24.3432C233.179 23.8968 233.373 23.5125 233.612 23.1903C233.851 22.8681 234.144 22.6195 234.489 22.4446C234.834 22.2697 235.237 22.1823 235.697 22.1823C236.167 22.1823 236.583 22.2743 236.947 22.4584C237.31 22.6379 237.616 22.8957 237.865 23.2317C238.114 23.5631 238.3 23.9635 238.424 24.433C238.549 24.8979 238.611 25.4157 238.611 25.9864ZM236.947 26.1314V25.9864C236.947 25.6412 236.915 25.3213 236.85 25.0267C236.786 24.7276 236.684 24.4652 236.546 24.2397C236.408 24.0141 236.231 23.8392 236.015 23.715C235.803 23.5861 235.548 23.5217 235.248 23.5217C234.954 23.5217 234.701 23.5723 234.489 23.6735C234.277 23.7702 234.1 23.906 233.957 24.0809C233.815 24.2558 233.704 24.4606 233.626 24.6953C233.548 24.9255 233.492 25.1763 233.46 25.4479V26.7873C233.515 27.1187 233.61 27.4224 233.743 27.6986C233.877 27.9748 234.065 28.1957 234.309 28.3614C234.558 28.5225 234.876 28.603 235.262 28.603C235.561 28.603 235.817 28.5386 236.029 28.4097C236.24 28.2808 236.413 28.1036 236.546 27.8781C236.684 27.648 236.786 27.3833 236.85 27.0841C236.915 26.785 236.947 26.4674 236.947 26.1314Z" fill="#1D1D1D"/>
<path d="M99.0989 37.734V54.6973H96.1862V40.0642H88.6483V54.6973H85.7357V37.734H99.0989ZM109.06 48.371H104.645V46.0525H109.06C109.829 46.0525 110.45 45.9283 110.924 45.6797C111.398 45.4312 111.744 45.0894 111.961 44.6545C112.186 44.2118 112.299 43.7069 112.299 43.1399C112.299 42.604 112.186 42.103 111.961 41.637C111.744 41.1632 111.398 40.7826 110.924 40.4952C110.45 40.2078 109.829 40.0642 109.06 40.0642H105.542V54.6973H102.617V37.734H109.06C110.373 37.734 111.487 37.9671 112.404 38.4331C113.328 38.8913 114.031 39.5282 114.513 40.3438C114.994 41.1515 115.235 42.0758 115.235 43.1166C115.235 44.2118 114.994 45.1516 114.513 45.936C114.031 46.7205 113.328 47.3225 112.404 47.7419C111.487 48.1613 110.373 48.371 109.06 48.371ZM131.383 45.7496V46.6817C131.383 47.9632 131.216 49.1128 130.882 50.1302C130.548 51.1477 130.07 52.0138 129.449 52.7283C128.835 53.4429 128.097 53.9905 127.235 54.371C126.373 54.7439 125.417 54.9303 124.369 54.9303C123.328 54.9303 122.377 54.7439 121.515 54.371C120.66 53.9905 119.918 53.4429 119.289 52.7283C118.66 52.0138 118.171 51.1477 117.821 50.1302C117.48 49.1128 117.309 47.9632 117.309 46.6817V45.7496C117.309 44.4681 117.48 43.3224 117.821 42.3127C118.163 41.2952 118.645 40.4292 119.266 39.7146C119.895 38.9923 120.637 38.4447 121.491 38.0719C122.353 37.6913 123.305 37.501 124.346 37.501C125.394 37.501 126.35 37.6913 127.212 38.0719C128.074 38.4447 128.816 38.9923 129.437 39.7146C130.058 40.4292 130.536 41.2952 130.87 42.3127C131.212 43.3224 131.383 44.4681 131.383 45.7496ZM128.458 46.6817V45.7263C128.458 44.7788 128.365 43.9438 128.179 43.2215C128 42.4914 127.732 41.8816 127.375 41.3923C127.025 40.8952 126.594 40.5224 126.082 40.2739C125.569 40.0176 124.99 39.8894 124.346 39.8894C123.701 39.8894 123.126 40.0176 122.621 40.2739C122.116 40.5224 121.685 40.8952 121.328 41.3923C120.979 41.8816 120.711 42.4914 120.524 43.2215C120.338 43.9438 120.245 44.7788 120.245 45.7263V46.6817C120.245 47.6293 120.338 48.4681 120.524 49.1982C120.711 49.9283 120.983 50.5458 121.34 51.0506C121.705 51.5477 122.14 51.9244 122.645 52.1807C123.15 52.4293 123.724 52.5536 124.369 52.5536C125.021 52.5536 125.6 52.4293 126.105 52.1807C126.61 51.9244 127.037 51.5477 127.386 51.0506C127.736 50.5458 128 49.9283 128.179 49.1982C128.365 48.4681 128.458 47.6293 128.458 46.6817ZM140.458 39.3302H143.79C144.792 39.3302 145.713 39.4972 146.552 39.8311C147.398 40.1651 148.136 40.6389 148.765 41.2525C149.394 41.8583 149.884 42.5884 150.233 43.4428C150.583 44.2894 150.757 45.2331 150.757 46.2739C150.757 47.2992 150.583 48.2351 150.233 49.0817C149.884 49.9283 149.394 50.6584 148.765 51.272C148.136 51.8778 147.398 52.3439 146.552 52.6701C145.713 52.9963 144.792 53.1594 143.79 53.1594H140.458C139.464 53.1594 138.544 52.9963 137.697 52.6701C136.851 52.3439 136.109 51.8778 135.472 51.272C134.843 50.6662 134.353 49.9438 134.004 49.105C133.662 48.2584 133.491 47.3225 133.491 46.2972C133.491 45.2564 133.662 44.3127 134.004 43.4661C134.353 42.6117 134.843 41.8778 135.472 41.2642C136.109 40.6428 136.851 40.1651 137.697 39.8311C138.544 39.4972 139.464 39.3302 140.458 39.3302ZM140.458 41.6603C139.588 41.6603 138.839 41.8467 138.21 42.2195C137.581 42.5846 137.095 43.1127 136.753 43.804C136.42 44.4953 136.253 45.3263 136.253 46.2972C136.253 47.0118 136.35 47.6487 136.544 48.2079C136.738 48.7671 137.018 49.2409 137.383 49.6293C137.748 50.0176 138.19 50.3167 138.711 50.5264C139.231 50.7361 139.814 50.8409 140.458 50.8409H143.814C144.676 50.8409 145.418 50.6584 146.039 50.2934C146.66 49.9205 147.138 49.3924 147.472 48.7089C147.814 48.0254 147.985 47.2137 147.985 46.2739C147.985 45.5516 147.888 44.9069 147.693 44.3399C147.507 43.7652 147.231 43.2797 146.866 42.8836C146.509 42.4875 146.074 42.1846 145.561 41.9748C145.049 41.7651 144.466 41.6603 143.814 41.6603H140.458ZM143.534 37.035V55.3963H140.726V37.035H143.534ZM164.424 52.3788V54.6973H155.418V52.3788H164.424ZM156.245 37.734V54.6973H153.321V37.734H156.245ZM163.247 44.8176V47.1011H155.418V44.8176H163.247ZM164.365 37.734V40.0642H155.418V37.734H164.365ZM176.831 49.1749H179.744C179.651 50.2856 179.34 51.2759 178.812 52.1458C178.284 53.0079 177.542 53.6875 176.587 54.1846C175.631 54.6817 174.47 54.9303 173.103 54.9303C172.055 54.9303 171.111 54.7439 170.272 54.371C169.433 53.9905 168.715 53.4545 168.117 52.7633C167.519 52.0642 167.06 51.2215 166.742 50.2351C166.431 49.2487 166.276 48.1458 166.276 46.9263V45.5166C166.276 44.2972 166.435 43.1943 166.754 42.2079C167.08 41.2214 167.546 40.3787 168.152 39.6797C168.758 38.9729 169.484 38.4331 170.33 38.0603C171.185 37.6874 172.144 37.501 173.208 37.501C174.56 37.501 175.701 37.7496 176.633 38.2467C177.565 38.7438 178.288 39.4311 178.8 40.3088C179.321 41.1865 179.639 42.1923 179.756 43.3263H176.843C176.765 42.5962 176.595 41.971 176.33 41.4506C176.074 40.9302 175.694 40.5341 175.189 40.2622C174.684 39.9826 174.024 39.8428 173.208 39.8428C172.54 39.8428 171.958 39.9671 171.461 40.2156C170.963 40.4642 170.548 40.8292 170.214 41.3108C169.88 41.7923 169.628 42.3865 169.457 43.0933C169.294 43.7923 169.212 44.5923 169.212 45.4933V46.9263C169.212 47.7807 169.286 48.5574 169.433 49.2565C169.589 49.9477 169.822 50.5419 170.132 51.039C170.451 51.5361 170.855 51.9205 171.344 52.1924C171.833 52.4642 172.42 52.6002 173.103 52.6002C173.934 52.6002 174.606 52.4681 175.119 52.204C175.639 51.94 176.031 51.5555 176.296 51.0506C176.567 50.538 176.746 49.9128 176.831 49.1749ZM192.42 49.1749H195.333C195.239 50.2856 194.929 51.2759 194.4 52.1458C193.872 53.0079 193.131 53.6875 192.175 54.1846C191.22 54.6817 190.059 54.9303 188.692 54.9303C187.643 54.9303 186.699 54.7439 185.861 54.371C185.022 53.9905 184.303 53.4545 183.705 52.7633C183.107 52.0642 182.649 51.2215 182.331 50.2351C182.02 49.2487 181.864 48.1458 181.864 46.9263V45.5166C181.864 44.2972 182.024 43.1943 182.342 42.2079C182.668 41.2214 183.134 40.3787 183.74 39.6797C184.346 38.9729 185.072 38.4331 185.919 38.0603C186.773 37.6874 187.732 37.501 188.797 37.501C190.148 37.501 191.29 37.7496 192.222 38.2467C193.154 38.7438 193.876 39.4311 194.389 40.3088C194.909 41.1865 195.228 42.1923 195.344 43.3263H192.432C192.354 42.5962 192.183 41.971 191.919 41.4506C191.663 40.9302 191.282 40.5341 190.777 40.2622C190.272 39.9826 189.612 39.8428 188.797 39.8428C188.129 39.8428 187.546 39.9671 187.049 40.2156C186.552 40.4642 186.136 40.8292 185.802 41.3108C185.468 41.7923 185.216 42.3865 185.045 43.0933C184.882 43.7923 184.8 44.5923 184.8 45.4933V46.9263C184.8 47.7807 184.874 48.5574 185.022 49.2565C185.177 49.9477 185.41 50.5419 185.721 51.039C186.039 51.5361 186.443 51.9205 186.932 52.1924C187.422 52.4642 188.008 52.6002 188.692 52.6002C189.523 52.6002 190.195 52.4681 190.707 52.204C191.228 51.94 191.62 51.5555 191.884 51.0506C192.156 50.538 192.334 49.9128 192.42 49.1749ZM200.878 49.9322L208.404 37.734H211.329V54.6973H208.404V42.4875L200.878 54.6973H197.966V37.734H200.878V49.9322ZM228.362 45.7496V46.6817C228.362 47.9632 228.195 49.1128 227.861 50.1302C227.527 51.1477 227.049 52.0138 226.428 52.7283C225.814 53.4429 225.076 53.9905 224.214 54.371C223.352 54.7439 222.397 54.9303 221.348 54.9303C220.307 54.9303 219.356 54.7439 218.494 54.371C217.639 53.9905 216.898 53.4429 216.269 52.7283C215.639 52.0138 215.15 51.1477 214.801 50.1302C214.459 49.1128 214.288 47.9632 214.288 46.6817V45.7496C214.288 44.4681 214.459 43.3224 214.801 42.3127C215.142 41.2952 215.624 40.4292 216.245 39.7146C216.874 38.9923 217.616 38.4447 218.471 38.0719C219.333 37.6913 220.284 37.501 221.325 37.501C222.373 37.501 223.329 37.6913 224.191 38.0719C225.053 38.4447 225.795 38.9923 226.416 39.7146C227.038 40.4292 227.515 41.2952 227.849 42.3127C228.191 43.3224 228.362 44.4681 228.362 45.7496ZM225.438 46.6817V45.7263C225.438 44.7788 225.344 43.9438 225.158 43.2215C224.979 42.4914 224.711 41.8816 224.354 41.3923C224.005 40.8952 223.574 40.5224 223.061 40.2739C222.548 40.0176 221.97 39.8894 221.325 39.8894C220.68 39.8894 220.106 40.0176 219.601 40.2739C219.096 40.5224 218.665 40.8952 218.307 41.3923C217.958 41.8816 217.69 42.4914 217.504 43.2215C217.317 43.9438 217.224 44.7788 217.224 45.7263V46.6817C217.224 47.6293 217.317 48.4681 217.504 49.1982C217.69 49.9283 217.962 50.5458 218.319 51.0506C218.684 51.5477 219.119 51.9244 219.624 52.1807C220.129 52.4293 220.704 52.5536 221.348 52.5536C222.001 52.5536 222.579 52.4293 223.084 52.1807C223.589 51.9244 224.016 51.5477 224.366 51.0506C224.715 50.5458 224.979 49.9283 225.158 49.1982C225.344 48.4681 225.438 47.6293 225.438 46.6817ZM242.494 44.8176V47.136H233.488V44.8176H242.494ZM234.21 37.734V54.6973H231.286V37.734H234.21ZM244.743 37.734V54.6973H241.83V37.734H244.743ZM255.042 39.9943L249.974 54.6973H246.91L253.294 37.734H255.251L255.042 39.9943ZM259.282 54.6973L254.203 39.9943L253.981 37.734H255.95L262.358 54.6973H259.282ZM259.038 48.406V50.7244H249.811V48.406H259.038ZM275.593 37.734V40.0642H267.461V37.734H275.593ZM277.83 37.734V54.6973H274.906V37.734H277.83ZM266.879 37.734H269.78L269.372 46.1574C269.318 47.3924 269.213 48.4797 269.057 49.4196C268.902 50.3594 268.692 51.1633 268.428 51.8312C268.164 52.4992 267.83 53.0468 267.426 53.474C267.022 53.8934 266.537 54.2041 265.97 54.406C265.411 54.6002 264.754 54.6973 264.001 54.6973H263.255V52.3788L263.71 52.3439C264.121 52.3128 264.475 52.2157 264.77 52.0526C265.073 51.8817 265.329 51.6332 265.539 51.307C265.749 50.973 265.923 50.5419 266.063 50.0137C266.203 49.4856 266.312 48.8409 266.389 48.0797C266.475 47.3186 266.537 46.4292 266.576 45.4118L266.879 37.734Z" fill="#850E1C"/>
<defs>
<clipPath id="clip0_352_309">
<rect width="69.8136" height="75.9997" fill="white"/>
</clipPath>
</defs>
</svg>
